<?xml version="1.0" encoding="UTF-8" standalone="no"?>
<!-- Created with Inkscape (http://www.inkscape.org/) -->

<svg
   version="1.1"
   id="svg1"
   xml:space="preserve"
   sodipodi:docname="Richies 3D new logo.svg"
   inkscape:export-filename="Richies 3D new logo 2.svg"
   inkscape:export-xdpi="96"
   inkscape:export-ydpi="96"
   inkscape:version="1.4 (e7c3feb1, 2024-10-09)"
   xmlns:inkscape="http://www.inkscape.org/namespaces/inkscape"
   xmlns:sodipodi="http://sodipodi.sourceforge.net/DTD/sodipodi-0.dtd"
   xmlns:xlink="http://www.w3.org/1999/xlink"
   xmlns="http://www.w3.org/2000/svg"
   xmlns:svg="http://www.w3.org/2000/svg"><sodipodi:namedview
     id="namedview1"
     pagecolor="#ccb5e9"
     bordercolor="#000000"
     borderopacity="0.25"
     inkscape:showpageshadow="2"
     inkscape:pageopacity="0.0"
     inkscape:pagecheckerboard="0"
     inkscape:deskcolor="#d1d1d1"
     inkscape:document-units="px"
     inkscape:zoom="0.090177141"
     inkscape:cx="2933.1158"
     inkscape:cy="1785.3749"
     inkscape:window-width="1920"
     inkscape:window-height="907"
     inkscape:window-x="78"
     inkscape:window-y="220"
     inkscape:window-maximized="0"
     inkscape:current-layer="layer1"
     inkscape:lockguides="false"
     showguides="false"
     inkscape:export-bgcolor="#000000ff" /><defs
     id="defs1"><rect
       x="2080.5685"
       y="1977.446"
       width="2268.662"
       height="1296.504"
       id="rect3" /><rect
       x="465.73547"
       y="1299.1569"
       width="2962.4978"
       height="668.83813"
       id="rect4" /><rect
       x="1201.3875"
       y="356.37485"
       width="2367.5454"
       height="883.36938"
       id="rect2" /><rect
       x="1131.582"
       y="676.01001"
       width="1127.908"
       height="367.39676"
       id="rect1" /><rect
       x="1201.3875"
       y="356.37485"
       width="2409.9036"
       height="485.09598"
       id="rect2-8" /><filter
       id="colors2797606173"
       x="0"
       y="0"
       width="1"
       height="1"><feColorMatrix
         type="matrix"
         values="0 0 0 0 0.80078125  0 0 0 0 0.9375  0 0 0 0 0.9140625  0 0 0 1 0"
         class="icon-fecolormatrix"
         id="feColorMatrix12" /></filter><filter
       id="colorsf4657745303"><feColorMatrix
         type="matrix"
         values="0 0 0 0 0.99609375  0 0 0 0 0.99609375  0 0 0 0 0.99609375  0 0 0 1 0"
         class="icon-fecolormatrix"
         id="feColorMatrix13" /></filter><filter
       id="colorsb3967048326"><feColorMatrix
         type="matrix"
         values="0 0 0 0 0  0 0 0 0 0  0 0 0 0 0  0 0 0 1 0"
         class="icon-fecolormatrix"
         id="feColorMatrix14" /></filter><rect
       x="1201.3875"
       y="356.37485"
       width="2367.5454"
       height="883.36938"
       id="rect2-0" /><rect
       x="1201.3875"
       y="356.37485"
       width="2367.5454"
       height="883.36938"
       id="rect2-0-0" /></defs><path
     d="m -1389.0072,861.32355 h 31.4128 v -57.4346 h 36.4447 l 30.4785,57.4346 h 35.3664 l -37.8824,-62.7539 c 19.696,-9.7761 28.5376,-31.1973 28.5376,-48.593 0,-32.7786 -20.4148,-51.3963 -57.147,-51.3963 h -67.2106 z m 31.4128,-83.4562 v -51.8277 h 32.2755 c 20.918,0 31.1973,8.5541 31.1973,24.584 0,17.2519 -12.1483,27.2437 -30.9816,27.2437 z m 150.8825,-54.1998 v -25.0872 h -31.6285 v 25.0872 z m -31.6285,137.656 h 31.341 v -116.2349 h -31.341 z m 139.4531,2.3002 c 46.2927,0 71.3798,-27.1718 76.7711,-60.8849 h -31.8442 c -5.3912,20.1991 -21.8525,33.4975 -45.7895,33.4975 -31.9161,0 -52.1152,-28.1782 -52.1152,-58.5847 0,-32.1317 22.5713,-53.7685 51.612,-53.7685 27.675,0 42.0516,15.5986 46.724,34.9352 h 31.4129 c -4.6724,-40.0389 -36.0853,-62.5383 -80.2215,-62.5383 -49.5274,0 -80.2215,37.3792 -80.2215,83.6719 0,46.0051 28.1063,83.6718 83.6719,83.6718 z m 145.34746,-72.53 h 69.07959 v 70.2298 h 31.34101 v -162.7432 h -31.34101 v 62.7539 h -69.07959 z m -45.78949,70.2298 h 31.341 v -162.7432 h -31.341 z m 209.46716,-137.656 v -25.0872 h -31.62854 v 25.0872 z m -31.62854,137.656 h 31.41289 v -116.2349 h -31.41289 z m 181.7922,-132.2648 v -30.4784 h -120.40408 v 30.4784 z m 0,65.2698 v -28.8251 h -120.40408 v 28.8251 z m -120.40408,66.995 h 120.40408 v -30.6941 h -120.40408 z m 206.44807,-139.7407 c 21.13362,0 35.79776,11.8607 35.79776,30.4785 h 31.41288 c 0,-36.5166 -25.80601,-55.7813 -67.42628,-55.7813 z m -62.75389,18.4021 c 0,59.2316 98.55165,37.8824 98.55165,76.2679 0,13.2265 -13.72966,21.8524 -33.20997,21.8524 -22.57127,0 -35.79775,-11.645 -35.79775,-30.4784 h -31.84418 c 0,38.6012 27.17178,55.9969 68.28888,55.9969 37.66671,0 63.9759,-18.8333 63.9759,-47.3709 0,-59.0879 -99.48612,-41.189 -99.48612,-75.8366 z m 143.90984,70.1578 c 0.71883,24.6559 10.42304,53.481 59.01594,53.481 40.9734,0 63.2571,-18.3302 63.2571,-48.5929 0,-23.0026 -16.4612,-33.21 -35.2946,-36.7322 16.9644,-4.1693 31.1254,-14.8798 31.1254,-35.5821 0,-32.4912 -27.4593,-46.4365 -57.6502,-46.4365 -40.9015,0 -58.80033,18.8334 -58.80033,51.8277 h 29.47203 c 0,-16.5331 8.1947,-26.5249 28.3938,-26.5249 15.5986,0 28.3938,6.9727 28.3938,23.5058 0,19.4803 -17.2519,23.4339 -32.8505,23.4339 h -13.4422 v 21.9243 h 13.7297 c 18.1145,0 36.0134,1.5814 36.0134,23.4339 0,17.6832 -13.514,25.3747 -30.6941,25.3747 -20.9179,0 -29.9752,-9.7761 -30.694,-29.1127 z m 142.04084,-111.5624 v 162.7432 h 67.2107 c 49.5274,0 71.1642,-35.3665 71.1642,-81.3716 0,-46.2927 -21.6368,-81.3716 -71.1642,-81.3716 z m 57.0033,30.4784 c 27.6031,0 48.3054,10.6387 48.3054,50.8932 0,40.4701 -20.4148,50.6775 -48.0898,50.6775 h -25.5903 v -101.5707 z"
     fill="#f7dbf0"
     id="path15"
     style="color-interpolation-filters:sRGB;stroke-width:7.1883" /><path
     d="m -1416.2149,907.97555 v 56.572 h 7.1883 v -26.6686 h 26.3092 v 26.6686 h 7.1883 v -56.572 h -7.1883 v 23.7214 h -26.3092 v -23.7214 z m 56.2125,0 v 56.572 h 7.1883 v -56.572 z m 19.4084,28.2501 c 0,4.6005 0.647,8.7697 1.9409,12.4357 1.222,3.5942 3.019,6.6851 5.2474,9.201 2.2284,2.516 4.8881,4.3849 8.0509,5.7507 3.091,1.2939 6.4695,1.9408 10.2074,1.9408 3.8098,0 7.2602,-0.575 10.2793,-1.797 3.0191,-1.2939 5.3912,-2.8035 7.2602,-4.7443 v -23.7933 h -18.5459 v 5.9663 h 12.0045 v 14.736 c -1.1501,1.0064 -2.6597,1.869 -4.4567,2.444 -1.7971,0.647 -3.738,0.9345 -5.7507,0.9345 -3.0191,0 -5.7506,-0.5751 -8.0509,-1.6533 -2.3002,-1.0783 -4.313,-2.6597 -5.8944,-4.6724 -1.5814,-2.0127 -2.7315,-4.4568 -3.5941,-7.2602 -0.8626,-2.8753 -1.2221,-6.0382 -1.2221,-9.6323 0,-3.5223 0.4313,-6.6851 1.2939,-9.4886 0.9345,-2.8034 2.1565,-5.2474 3.738,-7.1883 1.6533,-2.0127 3.5941,-3.5222 5.8944,-4.6005 2.3002,-1.0782 4.888,-1.5814 7.7633,-1.5814 2.8754,0 5.2475,0.5032 7.1165,1.5095 1.8689,1.0064 3.5222,2.2284 4.9599,3.7379 l 4.0254,-4.5286 c -1.6533,-1.7252 -3.8098,-3.3785 -6.3976,-4.8162 -2.5877,-1.4376 -5.8944,-2.2283 -9.776,-2.2283 -3.8098,0 -7.2602,0.7188 -10.4231,2.0846 -3.1628,1.2939 -5.9663,3.2347 -8.2665,5.8225 -2.3003,2.5159 -4.1693,5.6069 -5.4631,9.201 -1.2939,3.5942 -1.9409,7.6915 -1.9409,12.2202 z m 56.5001,-28.2501 v 56.572 h 7.1883 v -26.6686 h 26.3092 v 26.6686 h 7.2602 v -56.572 h -7.2602 v 23.7214 h -26.3092 v -23.7214 z m 77.8493,28.0344 c 0,-3.5223 0.3594,-6.6851 1.222,-9.4886 0.7907,-2.8034 1.9409,-5.2474 3.3785,-7.1883 1.4377,-1.9408 3.2348,-3.4503 5.2475,-4.5286 2.0846,-1.0782 4.313,-1.5814 6.9008,-1.5814 2.5159,0 4.8161,0.5032 6.8288,1.5814 2.0128,1.0783 3.8098,2.5878 5.2475,4.5286 1.5095,1.9409 2.5878,4.3849 3.4504,7.1883 0.7907,2.8035 1.1501,5.9663 1.1501,9.4886 0,3.5942 -0.3594,6.9008 -1.1501,9.7761 -0.8626,2.8753 -1.9409,5.3912 -3.4504,7.4758 -1.4377,2.0846 -3.2347,3.6661 -5.2475,4.7443 -2.0127,1.0783 -4.3129,1.6533 -6.8288,1.6533 -2.5878,0 -4.8162,-0.575 -6.9008,-1.6533 -2.0127,-1.0782 -3.8098,-2.6597 -5.2475,-4.7443 -1.4376,-2.0846 -2.5878,-4.6005 -3.3785,-7.4758 -0.8626,-2.8753 -1.222,-6.1819 -1.222,-9.7761 z m 42.1953,41.4046 -1.4376,-5.6068 c -0.7907,0.2156 -1.6533,0.4313 -2.5878,0.575 -0.9345,0.2157 -2.0846,0.2875 -3.3066,0.2875 -3.1629,0 -5.8944,-0.6469 -8.3385,-1.797 -2.3721,-1.222 -4.2411,-3.091 -5.6068,-5.6069 3.0191,-0.5751 5.7506,-1.5814 8.1946,-3.1629 2.5159,-1.5814 4.6006,-3.666 6.3976,-6.11 1.7252,-2.5159 3.091,-5.4631 4.0255,-8.8416 0.9345,-3.3785 1.4376,-7.0446 1.4376,-11.1419 0,-4.5286 -0.575,-8.5541 -1.797,-12.1482 -1.1502,-3.5942 -2.8035,-6.6133 -4.96,-9.1292 -2.1565,-2.5159 -4.7442,-4.4567 -7.6915,-5.7506 -2.9472,-1.3658 -6.2538,-2.0846 -9.776,-2.0846 -3.5942,0 -6.8289,0.7188 -9.848,2.0127 -2.9472,1.2939 -5.4631,3.2347 -7.6196,5.7506 -2.0846,2.5159 -3.7379,5.535 -4.96,9.1292 -1.1501,3.5941 -1.7251,7.6915 -1.7251,12.2201 0,4.0973 0.4313,7.9071 1.4376,11.3575 1.0064,3.3785 2.3722,6.3976 4.1692,8.9135 1.7971,2.5159 4.0255,4.5286 6.5414,6.1101 2.5159,1.5814 5.3193,2.5159 8.4103,2.9472 1.7252,3.8817 4.313,7.1164 7.7634,9.6323 3.5222,2.444 7.9071,3.7379 13.1546,3.7379 1.6533,0 3.2347,-0.1437 4.6724,-0.4313 1.4376,-0.2875 2.5878,-0.575 3.4503,-0.8626 z m 10.6387,-69.439 v 33.21 c 0,4.5286 0.5751,8.3384 1.5815,11.4294 1.0063,3.1628 2.444,5.6787 4.2411,7.5477 1.8689,1.9408 4.0254,3.3066 6.4694,4.1692 2.5159,0.8626 5.2475,1.222 8.1228,1.222 2.8753,0 5.535,-0.3594 7.979,-1.222 2.5159,-0.8626 4.6006,-2.2284 6.4695,-4.1692 1.7971,-1.869 3.2347,-4.3849 4.2411,-7.5477 1.0064,-3.091 1.5814,-6.9008 1.5814,-11.4294 v -33.21 h -6.9007 v 33.3537 c 0,3.3785 -0.3595,6.2539 -1.0783,8.5541 -0.6469,2.3003 -1.6533,4.1692 -2.8034,5.535 -1.222,1.3658 -2.6597,2.3722 -4.2411,2.9472 -1.6533,0.647 -3.3785,0.9345 -5.2475,0.9345 -1.8689,0 -3.5941,-0.2875 -5.1756,-0.9345 -1.6533,-0.575 -3.019,-1.5814 -4.2411,-2.9472 -1.1501,-1.3658 -2.0846,-3.2347 -2.8034,-5.535 -0.6469,-2.3002 -1.0064,-5.1756 -1.0064,-8.5541 v -33.3537 z m 78.4244,33.5694 h -16.9644 l 2.6597,-8.626 c 1.0064,-3.1628 2.0127,-6.3257 2.9472,-9.4885 0.9345,-3.091 1.7971,-6.3257 2.6597,-9.6324 h 0.3594 c 0.9345,3.3067 1.7971,6.5414 2.7316,9.6324 0.9344,3.1628 1.9408,6.3257 2.9472,9.4885 z m 1.7971,5.7506 5.3912,17.252 h 7.6915 l -19.1928,-56.572 h -8.1227 l -19.1209,56.572 h 7.332 l 5.4632,-17.252 z m 21.0617,-39.32 v 56.572 h 31.9161 v -6.1101 h -24.7278 v -50.4619 z m 41.9078,0 v 56.572 h 7.1883 v -56.572 z m 34.43197,6.0382 v 50.5338 h 7.2602 v -50.5338 h 17.10816 v -6.0382 h -41.40466 v 6.0382 z m 42.48289,28.6094 v 21.9244 h 7.1883 v -21.9244 l 17.03628,-34.6476 h -7.54772 l -7.1883,15.9581 c -0.8626,2.0846 -1.79708,4.0973 -2.80344,6.11 -0.93448,2.0127 -1.94084,4.0973 -2.9472,6.182 h -0.28754 c -1.00636,-2.0847 -1.94084,-4.1693 -2.80343,-6.182 -0.8626,-2.0127 -1.7252,-4.0254 -2.65968,-6.11 l -7.33207,-15.9581 h -7.69148 z m 46.00514,-6.3975 c 0,4.6005 0.64695,8.7697 1.86896,12.4357 1.22201,3.5942 2.94721,6.6851 5.17558,9.201 2.22837,2.516 4.81616,4.3849 7.83525,5.7507 3.01909,1.2939 6.32571,1.9408 9.91986,1.9408 3.59415,0 6.82889,-0.7188 9.63233,-2.1565 2.80343,-1.4376 5.39122,-3.4503 7.6196,-6.0381 l -4.09734,-4.3849 c -1.79707,2.0127 -3.73791,3.5941 -5.82252,4.6724 -2.01273,1.0782 -4.38487,1.6533 -7.1883,1.6533 -2.65968,0 -5.1037,-0.5751 -7.26019,-1.6533 -2.15649,-1.0783 -4.02545,-2.6597 -5.46311,-4.6724 -1.50955,-2.0127 -2.65967,-4.4568 -3.52227,-7.2602 -0.8626,-2.8753 -1.22201,-6.0382 -1.22201,-9.6323 0,-3.5223 0.4313,-6.6851 1.29389,-9.4886 0.8626,-2.8034 2.01273,-5.2474 3.59415,-7.1883 1.58143,-2.0127 3.45039,-3.5222 5.60688,-4.6005 2.15649,-1.0782 4.60052,-1.5814 7.33207,-1.5814 2.44402,0 4.52863,0.5032 6.32571,1.4376 1.79707,0.9345 3.45038,2.2284 4.95993,3.8098 l 4.09733,-4.5286 c -1.72519,-1.8689 -3.8098,-3.5223 -6.39759,-4.888 -2.58779,-1.4377 -5.60688,-2.1565 -9.05726,-2.1565 -3.66604,0 -6.97266,0.7188 -10.06363,2.0846 -3.09097,1.2939 -5.75064,3.2347 -7.97901,5.8225 -2.22838,2.5159 -4.02545,5.6069 -5.24747,9.201 -1.29389,3.5942 -1.94084,7.6915 -1.94084,12.2202 z m 51.10884,-28.2501 v 33.21 c 0,4.5286 0.50318,8.3384 1.50954,11.4294 1.07825,3.1628 2.51591,5.6787 4.31299,7.5477 1.79707,1.9408 3.95356,3.3066 6.46947,4.1692 2.51591,0.8626 5.17558,1.222 8.0509,1.222 2.87532,0 5.53499,-0.3594 8.0509,-1.222 2.44402,-0.8626 4.60051,-2.2284 6.39759,-4.1692 1.79708,-1.869 3.23474,-4.3849 4.2411,-7.5477 1.07824,-3.091 1.58143,-6.9008 1.58143,-11.4294 v -33.21 h -6.90078 v 33.3537 c 0,3.3785 -0.35941,6.2539 -1.00636,8.5541 -0.71883,2.3003 -1.65331,4.1692 -2.87532,5.535 -1.22201,1.3658 -2.58779,2.3722 -4.2411,2.9472 -1.58143,0.647 -3.3785,0.9345 -5.24746,0.9345 -1.86896,0 -3.59415,-0.2875 -5.17558,-0.9345 -1.58143,-0.575 -3.01909,-1.5814 -4.16921,-2.9472 -1.22202,-1.3658 -2.1565,-3.2347 -2.80344,-5.535 -0.71883,-2.3002 -1.07825,-5.1756 -1.07825,-8.5541 v -33.3537 z m 55.20617,44.2081 -4.31298,5.0318 c 2.44402,2.5878 5.39123,4.6005 8.76973,6.1101 3.3785,1.5095 7.11642,2.2283 11.06999,2.2283 2.9472,0 5.67876,-0.3594 7.97901,-1.222 2.37215,-0.8626 4.38487,-2.0127 6.03818,-3.4504 1.72519,-1.4376 2.9472,-3.1628 3.88168,-5.1037 0.8626,-2.0127 1.2939,-4.0973 1.2939,-6.3257 0,-2.0846 -0.28753,-3.8817 -0.8626,-5.4631 -0.64695,-1.5814 -1.43766,-2.9472 -2.44402,-4.1692 -1.07825,-1.1501 -2.30026,-2.2284 -3.73792,-3.091 -1.43766,-0.8626 -2.9472,-1.6533 -4.60051,-2.3721 l -7.97902,-3.4504 c -1.15013,-0.4313 -2.30026,-0.9345 -3.3785,-1.5095 -1.07825,-0.5751 -2.08461,-1.1502 -3.01909,-1.869 -0.93448,-0.7188 -1.65331,-1.5814 -2.22837,-2.5159 -0.50319,-0.9345 -0.79072,-2.1565 -0.79072,-3.5223 0,-2.5878 0.93448,-4.6005 2.87532,-6.0381 1.94085,-1.5096 4.45675,-2.2284 7.61961,-2.2284 2.65967,0 5.03181,0.5032 7.11642,1.4376 2.15649,0.9345 4.02545,2.2284 5.75064,3.8817 l 3.88168,-4.6005 c -2.01272,-2.0846 -4.45675,-3.8098 -7.33207,-5.1037 -2.87532,-1.2939 -5.96629,-1.9408 -9.41667,-1.9408 -2.58779,0 -4.95993,0.4313 -7.11643,1.1501 -2.15649,0.7188 -4.02545,1.7971 -5.60687,3.1629 -1.58143,1.3657 -2.80344,2.9472 -3.66604,4.7442 -0.93448,1.869 -1.36577,3.8817 -1.36577,5.9663 0,2.0846 0.35941,3.8817 1.07824,5.4631 0.64695,1.5815 1.58143,2.9472 2.65967,4.0974 1.07825,1.1501 2.30026,2.1565 3.66604,2.9472 1.43766,0.7907 2.73155,1.5095 4.09733,2.0846 l 8.12278,3.5223 c 1.2939,0.6469 2.51591,1.222 3.66604,1.797 1.15013,0.5751 2.15649,1.222 3.01909,1.9409 0.79071,0.7188 1.43766,1.5814 1.94084,2.5878 0.50318,1.0063 0.71883,2.2283 0.71883,3.666 0,2.8034 -1.00636,5.0318 -3.09097,6.6851 -2.08461,1.7252 -4.95993,2.5878 -8.69785,2.5878 -2.9472,0 -5.75064,-0.6469 -8.4822,-1.9408 -2.73155,-1.2939 -5.10369,-3.0191 -7.11642,-5.1756 z m 55.85312,-38.1699 v 50.5338 h 7.26019 v -50.5338 h 17.10816 v -6.0382 h -41.40463 v 6.0382 z m 53.33721,51.5401 c 3.59416,0 6.82889,-0.6469 9.7761,-2.0127 2.9472,-1.4377 5.53499,-3.3785 7.69148,-5.9663 2.15649,-2.5159 3.8098,-5.6069 5.03181,-9.2729 1.15013,-3.666 1.7252,-7.7634 1.7252,-12.292 0,-4.5286 -0.57507,-8.5541 -1.7252,-12.1482 -1.22201,-3.5942 -2.87532,-6.6133 -5.03181,-9.1292 -2.15649,-2.5159 -4.74428,-4.4567 -7.69148,-5.7506 -2.94721,-1.3658 -6.18194,-2.0846 -9.7761,-2.0846 -3.59415,0 -6.82888,0.7188 -9.77609,2.0127 -2.9472,1.2939 -5.53499,3.2347 -7.6196,5.7506 -2.15649,2.5159 -3.8098,5.535 -4.95993,9.1292 -1.22201,3.5941 -1.79708,7.6915 -1.79708,12.2201 0,4.5286 0.57507,8.626 1.79708,12.292 1.15013,3.666 2.80344,6.757 4.95993,9.2729 2.08461,2.5878 4.6724,4.5286 7.6196,5.9663 2.94721,1.3658 6.18194,2.0127 9.77609,2.0127 z m 0,-6.2538 c -2.5159,0 -4.81616,-0.5751 -6.82888,-1.6533 -2.08461,-1.0783 -3.80981,-2.6597 -5.31935,-4.6724 -1.43766,-2.0846 -2.58779,-4.5286 -3.3785,-7.3321 -0.79072,-2.8753 -1.22201,-6.11 -1.22201,-9.6323 0,-3.5223 0.43129,-6.6851 1.22201,-9.4886 0.79071,-2.8034 1.94084,-5.2474 3.3785,-7.1883 1.50954,-1.9408 3.23474,-3.4503 5.31935,-4.5286 2.01272,-1.0782 4.31298,-1.5814 6.82888,-1.5814 2.51591,0 4.81617,0.5032 6.82889,1.5814 2.08461,1.0783 3.8098,2.5878 5.31935,4.5286 1.43766,1.9409 2.58779,4.3849 3.3785,7.1883 0.79071,2.8035 1.22201,5.9663 1.22201,9.4886 0,3.5223 -0.4313,6.757 -1.22201,9.6323 -0.79071,2.8035 -1.94084,5.2475 -3.3785,7.3321 -1.50955,2.0127 -3.23474,3.5941 -5.31935,4.6724 -2.01272,1.0782 -4.31298,1.6533 -6.82889,1.6533 z m 36.37282,-51.3245 v 56.572 h 6.68512 v -31.1254 c 0,-2.5159 -0.14376,-5.3193 -0.35941,-8.4103 -0.21565,-3.0191 -0.4313,-5.8225 -0.57507,-8.3384 h 0.28754 l 4.52863,12.5795 10.92622,29.6158 h 4.09733 l 10.85434,-29.6158 4.52863,-12.5795 h 0.35942 c -0.21565,2.5159 -0.4313,5.3193 -0.64695,8.3384 -0.21565,3.091 -0.28753,5.8944 -0.28753,8.4103 v 31.1254 h 6.82888 v -56.572 h -8.48219 l -10.85434,30.3347 -3.95357,11.5731 h -0.35941 l -4.16922,-11.5731 -10.92622,-30.3347 z m 78.28063,45.2144 -3.66604,4.6006 c 0.93448,1.0782 2.01273,2.0127 3.16286,2.9472 1.22201,0.9344 2.5159,1.7252 4.02545,2.444 1.50954,0.7188 3.16285,1.2939 4.95992,1.7252 1.79708,0.4313 3.80981,0.6469 5.9663,0.6469 2.58779,0 4.88804,-0.3594 7.11642,-1.0782 2.15649,-0.7188 4.09733,-1.7252 5.75064,-3.091 1.58143,-1.3658 2.87532,-3.0191 3.88168,-4.9599 0.93448,-1.9409 1.36578,-4.0973 1.36578,-6.5414 0,-1.8689 -0.28753,-3.5941 -0.86259,-5.1756 -0.64695,-1.5814 -1.43767,-2.9472 -2.58779,-4.0973 -1.07825,-1.1501 -2.30026,-2.1565 -3.73792,-2.9472 -1.43766,-0.7907 -3.01909,-1.3658 -4.6724,-1.7252 v -0.3594 c 2.94721,-1.1501 5.39123,-2.8034 7.26019,-4.9599 1.79707,-2.0846 2.73155,-4.8162 2.73155,-8.1947 0,-2.2284 -0.4313,-4.1692 -1.22201,-5.8944 -0.79071,-1.7252 -1.94084,-3.2347 -3.3785,-4.3849 -1.50955,-1.1501 -3.23474,-2.0846 -5.24746,-2.7315 -2.01273,-0.647 -4.2411,-0.9345 -6.61324,-0.9345 -3.30662,0 -6.18194,0.6469 -8.76973,1.9408 -2.58779,1.2939 -4.88805,2.9472 -7.04454,4.96 l 3.8098,4.4567 c 1.65331,-1.6533 3.45039,-3.0191 5.39123,-4.0254 1.94084,-1.0064 4.02545,-1.5815 6.32571,-1.5815 2.9472,0 5.24746,0.7908 6.97265,2.3722 1.65331,1.5095 2.51591,3.666 2.51591,6.3976 0,1.4376 -0.21565,2.7315 -0.79072,4.0254 -0.50318,1.2939 -1.36578,2.3722 -2.58779,3.3066 -1.22201,0.8626 -2.87532,1.5815 -4.81616,2.1565 -2.01273,0.5032 -4.45675,0.7189 -7.40395,0.7189 v 5.4631 c 3.30662,0 6.03817,0.2875 8.26655,0.7907 2.22837,0.5032 4.09733,1.222 5.46311,2.2284 1.36577,1.0063 2.37214,2.1565 2.9472,3.5222 0.64695,1.2939 0.93448,2.8035 0.93448,4.3849 0,3.1628 -1.07824,5.6069 -3.23474,7.4039 -2.0846,1.7971 -4.81616,2.7316 -8.19466,2.7316 -3.23474,0 -5.96629,-0.6469 -8.19467,-2.0127 -2.22837,-1.2939 -4.16921,-2.8035 -5.82252,-4.5287 z m 44.78313,-45.2144 v 56.572 h 14.44849 c 4.2411,0 8.0509,-0.647 11.28563,-1.9409 3.30662,-1.2939 6.03818,-3.1628 8.33844,-5.6069 2.22837,-2.444 3.88168,-5.4631 5.03181,-8.9853 1.15013,-3.5223 1.72519,-7.5478 1.72519,-12.0045 0,-9.0573 -2.22837,-15.958 -6.757,-20.7742 -4.60052,-4.888 -11.21376,-7.2602 -19.98349,-7.2602 z m 13.58589,50.6776 h -6.46947 v -44.8551 h 6.46947 c 6.61324,0 11.57317,1.9409 14.87979,5.7507 3.30662,3.7379 4.95993,9.2729 4.95993,16.4612 0,7.1883 -1.65331,12.7233 -4.95993,16.7487 -3.30662,3.9536 -8.26655,5.8945 -14.87979,5.8945 z m 56.85946,-50.6776 v 56.572 h 7.1883 v -22.4275 h 10.1355 c 3.091,0 5.9663,-0.3595 8.4822,-1.0783 2.5878,-0.7188 4.8162,-1.7971 6.6133,-3.2347 1.8689,-1.4377 3.3066,-3.2348 4.313,-5.4631 1.0063,-2.1565 1.5095,-4.7443 1.5095,-7.7634 0,-3.091 -0.5032,-5.6788 -1.5095,-7.8353 -1.0064,-2.0846 -2.4441,-3.8098 -4.2411,-5.1036 -1.7971,-1.2939 -4.0255,-2.2284 -6.6133,-2.8035 -2.5878,-0.5751 -5.4631,-0.8626 -8.5541,-0.8626 z m 16.4612,28.2501 h -9.2729 v -22.4994 h 9.2729 c 4.8881,0 8.5541,0.7907 10.9981,2.3721 2.3722,1.5814 3.5942,4.4567 3.5942,8.4822 0,4.0254 -1.222,6.9727 -3.5942,8.8416 -2.3721,1.869 -6.0381,2.8035 -10.9981,2.8035 z m 40.3983,-1.4377 v -21.0617 h 9.4886 c 4.3848,0 7.8352,0.7907 10.1355,2.2283 2.3721,1.5096 3.5941,4.1693 3.5941,7.9072 0,3.666 -1.222,6.3976 -3.5941,8.1946 -2.3003,1.7971 -5.7507,2.7316 -10.1355,2.7316 z m 23.8652,29.7596 h 8.1228 l -14.3048,-24.6559 c 3.8098,-1.0064 6.9008,-2.8035 9.2011,-5.4631 2.3002,-2.6597 3.4503,-6.182 3.4503,-10.5668 0,-2.9472 -0.5031,-5.4631 -1.4376,-7.4759 -1.0064,-2.0127 -2.3722,-3.5941 -4.0973,-4.888 -1.7971,-1.2939 -3.8817,-2.1565 -6.3258,-2.7316 -2.444,-0.5032 -5.1037,-0.7907 -7.979,-0.7907 h -17.6832 v 56.572 h 7.1883 v -23.8652 h 10.2793 z m 19.049,-56.572 v 56.572 h 7.1883 v -56.572 z m 22.715,0 v 56.572 h 6.8289 v -29.6158 c 0,-2.9472 -0.1438,-5.9663 -0.2875,-8.9135 -0.2157,-2.9472 -0.4313,-5.8944 -0.647,-8.7698 h 0.2876 l 6.1819,11.6451 20.4867,35.654 h 7.4039 v -56.572 h -6.757 v 29.2564 c 0,2.9472 0.072,5.9663 0.2875,9.0573 0.2157,3.0909 0.3595,6.0382 0.5751,8.9135 h -0.3594 l -6.1101,-11.717 -20.4866,-35.5102 z m 67.5701,6.0382 v 50.5338 h 7.1883 v -50.5338 h 17.1081 v -6.0382 h -41.4046 v 6.0382 z m 31.2691,38.1699 -4.313,5.0318 c 2.5159,2.5878 5.3912,4.6005 8.8416,6.1101 3.3785,1.5095 7.0446,2.2283 10.9981,2.2283 3.0191,0 5.6788,-0.3594 8.0509,-1.222 2.3722,-0.8626 4.3849,-2.0127 6.0382,-3.4504 1.6533,-1.4376 2.9472,-3.1628 3.8098,-5.1037 0.9345,-2.0127 1.3658,-4.0973 1.3658,-6.3257 0,-2.0846 -0.2876,-3.8817 -0.9345,-5.4631 -0.5751,-1.5814 -1.4377,-2.9472 -2.444,-4.1692 -1.0064,-1.1501 -2.3003,-2.2284 -3.7379,-3.091 -1.4377,-0.8626 -2.9472,-1.6533 -4.5287,-2.3721 l -8.0509,-3.4504 c -1.1501,-0.4313 -2.2283,-0.9345 -3.3785,-1.5095 -1.0782,-0.5751 -2.0846,-1.1502 -3.0191,-1.869 -0.8626,-0.7188 -1.6533,-1.5814 -2.1565,-2.5159 -0.575,-0.9345 -0.8625,-2.1565 -0.8625,-3.5223 0,-2.5878 1.0063,-4.6005 2.9472,-6.0381 1.8689,-1.5096 4.4567,-2.2284 7.6196,-2.2284 2.6596,0 5.0318,0.5032 7.1164,1.4376 2.0846,0.9345 4.0254,2.2284 5.7506,3.8817 l 3.8817,-4.6005 c -2.0127,-2.0846 -4.4567,-3.8098 -7.3321,-5.1037 -2.8753,-1.2939 -6.0381,-1.9408 -9.4166,-1.9408 -2.5878,0 -4.96,0.4313 -7.1165,1.1501 -2.1565,0.7188 -4.0254,1.7971 -5.6068,3.1629 -1.5815,1.3657 -2.8035,2.9472 -3.738,4.7442 -0.8626,1.869 -1.2939,3.8817 -1.2939,5.9663 0,2.0846 0.2876,3.8817 1.0064,5.4631 0.7188,1.5815 1.5814,2.9472 2.6597,4.0974 1.0782,1.1501 2.3721,2.1565 3.7379,2.9472 1.3658,0.7907 2.7316,1.5095 4.0254,2.0846 l 8.1228,3.5223 c 1.2939,0.6469 2.5878,1.222 3.738,1.797 1.1501,0.5751 2.0846,1.222 2.9472,1.9409 0.8626,0.7188 1.5095,1.5814 2.0127,2.5878 0.4313,1.0063 0.7188,2.2283 0.7188,3.666 0,2.8034 -1.0782,5.0318 -3.091,6.6851 -2.0846,1.7252 -5.0318,2.5878 -8.7697,2.5878 -2.8753,0 -5.7506,-0.6469 -8.4822,-1.9408 -2.7315,-1.2939 -5.1037,-3.0191 -7.1164,-5.1756 z m 47.2271,-37.3073 0.9345,32.563 h 4.8881 l 0.9345,-32.563 0.2156,-8.1228 h -7.1883 z m -1.7251,45.3582 c 0,1.5814 0.5031,2.8034 1.5095,3.8098 1.0064,1.0063 2.2284,1.5095 3.666,1.5095 1.3658,0 2.5159,-0.5032 3.5223,-1.5095 1.0064,-1.0064 1.5095,-2.2284 1.5095,-3.8098 0,-1.6533 -0.5031,-3.0191 -1.5095,-4.0255 -1.0064,-1.0063 -2.1565,-1.5095 -3.5223,-1.5095 -1.4376,0 -2.6596,0.5032 -3.666,1.5095 -1.0064,1.0064 -1.5095,2.3722 -1.5095,4.0255 z"
     fill="#f9f9f9"
     id="path19"
     style="color-interpolation-filters:sRGB;stroke-width:7.1883"
     inkscape:label="path19" /><g
     id="g10"
     style="display:inline;overflow:visible;color-interpolation-filters:sRGB"
     transform="matrix(2.4926773,0,0,2.4926773,2563.1356,619.6825)"
     inkscape:label="Icon"
     fill="#f7dbf0"><path
       d="m 380.998,120.491 c 0,-0.146 0.002,-19.88 0.002,-20.032 h 20 c 19.299,0 35,-15.701 35,-35 0,-19.299 -15.701,-35 -35,-35 -47.872,0 -251.796,0 -280,0 -19.299,0 -35,15.701 -35,35 0,19.299 15.701,35 35,35 h 20 v 20 c 0.038,1.33 0.208,2.413 0.708,3.68 0.729,1.836 1.961,3.375 3.479,4.457 L 211,175.605 v 24.854 c 0,3.147 1.482,6.111 4,8 l 36,27 v 59.227 c -74.818,43.209 -69.333,39.996 -70.233,40.672 -2.473,1.94 -3.843,4.909 -3.843,7.875 v 85.543 c 0,3.573 1.906,6.874 5,8.66 79.233,45.744 74.368,42.996 75.314,43.375 2.756,1.125 5.992,0.961 8.683,-0.563 0.47,-0.261 60.801,-35.098 74.166,-42.813 3.095,-1.786 5.001,-5.087 5.001,-8.66 -0.031,-90.459 0.078,-85.601 -0.087,-86.854 -0.084,-0.669 -0.302,-1.541 -0.612,-2.334 -0.741,-1.862 -1.696,-3.024 -3.205,-4.282 -1.086,-0.835 2.399,1.324 -70.184,-40.62 v -59.227 l 36,-27 c 2.519,-1.889 4,-4.853 4,-8 v -24.854 c 69.436,-49.669 65.941,-46.946 67.063,-48.067 1.86,-1.86 2.927,-4.422 2.935,-7.046 z M 416,65.459 c 0,8.271 -6.729,15 -15,15 h -20 v -30 h 20 c 8.271,0 15,6.729 15,15 z m -55,45 H 161 c 0,-5.264 0,-44.869 0,-60 h 200 c 0,9.1 0,44.229 0,60 z m -240,-30 c -8.271,0 -15,-6.729 -15,-15 0,-8.271 6.729,-15 15,-15 h 20 v 30 z M 261,374.457 206.922,343.232 261,312.006 315.087,343.233 Z M 196.924,360.554 251,391.777 v 62.449 L 196.924,423.001 Z M 271,454.229 v -62.451 l 54.088,-31.226 v 62.45 z m 20,-258.77 -30,22.5 -30,-22.5 v -15 h 60 z m 6.795,-35 h -73.59 l -42,-30 h 157.59 z"
       id="path2"
       inkscape:label="path2"
       style="fill:#8875b5;fill-opacity:1"
       fill="#f7dbf0" /><path
       d="m 191,80.459 h 110 c 5.522,0 10,-4.477 10,-10 0,-5.523 -4.478,-10 -10,-10 H 191 c -5.523,0 -10,4.477 -10,10 0,5.523 4.477,10 10,10 z"
       id="path3"
       fill="#f7dbf0"
       style="fill:#ccefe9;fill-opacity:1" /><circle
       cx="331"
       cy="70.459"
       r="10"
       id="circle3"
       style="fill:#8875b5;fill-opacity:1"
       fill="#f7dbf0" /><circle
       cx="451"
       cy="140.459"
       r="10"
       id="circle4"
       style="fill:#8875b5;fill-opacity:1"
       fill="#f7dbf0"
       inkscape:label="circle4" /><circle
       cx="341"
       cy="250.459"
       r="10"
       id="circle5"
       style="fill:#8875b5;fill-opacity:1;fill-rule:evenodd"
       fill="#f7dbf0" /><circle
       cx="441"
       cy="360.45901"
       r="10"
       id="circle6"
       style="fill:#8875b5;fill-opacity:1"
       fill="#f7dbf0" /><circle
       cx="121"
       cy="390.45901"
       r="10"
       id="circle7"
       inkscape:label="circle7"
       style="fill:#8875b5;fill-opacity:1"
       fill="#f7dbf0" /><circle
       cx="161"
       cy="210.459"
       r="10"
       id="circle8"
       style="fill:#8875b5;fill-opacity:1"
       fill="#f7dbf0"
       inkscape:label="circle8" /><circle
       cx="61"
       cy="130.459"
       r="10"
       id="circle9"
       style="fill:#8875b5;fill-opacity:1"
       fill="#f7dbf0"
       inkscape:label="circle9" /><path
       d="m 101,250.458 c -16.542,0 -30,13.458 -30,30 0,16.542 13.458,30 30,30 16.542,0 30,-13.458 30,-30 0,-16.542 -13.458,-30 -30,-30 z m 0,40.001 c -5.514,0 -10,-4.486 -10,-10 0,-5.514 4.486,-10 10,-10 5.514,0 10,4.486 10,10 0,5.514 -4.486,10 -10,10 z"
       id="path9"
       inkscape:label="path9"
       fill="#f7dbf0"
       style="fill:#ccefe9;fill-opacity:1" /><path
       d="m 421,180.459 c -22.056,0 -40,17.944 -40,40 0,22.056 17.944,40 40,40 22.056,0 40,-17.944 40,-40 0,-22.056 -17.944,-40 -40,-40 z m 0,60 c -11.028,0 -20,-8.972 -20,-20 0,-11.028 8.972,-20 20,-20 11.028,0 20,8.972 20,20 0,11.028 -8.972,20 -20,20 z"
       id="path10"
       fill="#f7dbf0"
       inkscape:label="path10"
       style="fill:#ccefe9;fill-opacity:1" /></g><g
     inkscape:label="Layer 1"
     inkscape:groupmode="layer"
     id="layer1"
     transform="matrix(0.73341202,0,0,0.73341202,1844.3694,786.16584)"
     style="display:inline"><path
       d="m 753.68165,1691.0276 c -64.19492,-68.4183 -91.22448,-76.0203 -185.82755,-79.399 -21.96128,-0.8447 -29.56332,1.6893 -55.74804,15.204 -24.49555,11.8254 -31.253,13.5148 -48.14625,12.6701 -35.47619,-3.3787 -90.37989,-38.8548 -141.90474,-15.2041 -104.73913,65.8843 -116.56435,179.9148 -92.06906,302.392 11.82548,81.0883 13.5149,96.2924 -2.53402,166.4 -10.98064,39.6995 -11.82522,48.9909 -12.67006,77.7097 0.84484,63.3502 0.84484,146.9726 53.21428,179.9147 75.1758,26.1848 130.92384,-113.1858 124.16664,-188.3614 3.3786,-59.1269 -48.99084,-163.0214 21.96128,-199.3422 70.95237,-17.7381 54.9037,91.2244 81.93301,131.7686 22.80612,43.9228 108.96257,185.8274 142.74933,223.8376 59.12689,49.8355 107.27314,-40.5442 100.51568,-103.0498 -1.68917,-148.662 -66.72893,-127.5452 -116.56435,-221.3036 -17.73809,-28.7188 2.53401,-52.3696 28.71873,-63.3503 23.65071,-6.7573 69.26294,-14.3594 82.7776,-33.7868 32.94217,-32.0975 66.72893,-157.9533 19.42752,-206.0995 z m -155.4194,155.4193 c -3.3786,0 -11.82522,-0.8447 -24.49529,-3.3787 -19.42752,-5.068 -55.74829,-8.4467 -71.79695,0 -15.20408,7.6021 -56.59313,48.1462 -60.81632,45.6122 -21.11669,6.7574 -61.6609,-1.6893 -68.41836,-24.4954 12.67007,-28.7188 24.49555,-64.195 22.80612,-106.4285 0,-10.9807 0,-10.136 17.73809,-16.8934 10.98064,-3.3787 15.20408,-4.2233 64.19492,-5.9127 47.30167,-2.534 52.36944,-2.534 64.19492,0 37.16561,7.602 64.19491,31.2528 70.95237,62.5056 5.91261,25.3401 0,46.4569 -14.3595,48.9909 z m 210.32411,266.9158 c -11.82548,67.5736 -5.91261,82.7777 5.91262,134.3026 4.22344,21.9614 6.75745,29.5634 12.67006,38.0101 21.96153,25.3401 70.95237,66.729 106.42856,49.8356 11.82548,-5.9127 27.87414,-20.2721 65.88434,-58.2823 38.00996,-38.0101 46.45686,-48.9909 52.36946,-65.8843 11.8255,-54.9035 -2.534,-85.3117 -35.4762,-152.0406 -23.65071,-47.3015 -27.87415,-59.1269 -28.71874,-80.2437 -0.84459,-19.4274 2.53401,-32.9421 17.73814,-73.4863 19.4275,-52.3695 43.9228,-164.7107 16.8935,-201.0315 -21.9616,-43.0782 -62.50578,-78.5543 -114.03063,-66.729 -17.7381,2.5341 -33.78676,2.5341 -35.47619,-1.6893 -4.22344,-7.602 -23.65071,0 -38.85478,16.0487 -30.40816,28.7188 -34.6316,85.3117 -10.13606,123.3219 26.18472,44.7675 32.09759,67.5736 32.09759,120.7878 4.22318,58.2823 -39.69963,151.196 -47.30167,217.0803 z m 287.18784,-131.7686 c 31.2527,71.797 36.3208,114.8752 33.7867,206.0996 -0.8445,20.2721 0,22.8061 3.3786,32.9421 27.8742,76.865 78.5545,102.2051 159.6429,125.8559 46.4568,7.602 95.4476,-13.5147 139.3705,-34.6315 62.5057,-34.6315 116.5646,-97.1371 133.4578,-170.6234 16.0489,-55.7482 3.3789,-81.0883 -26.1847,-112.3411 -19.4275,-20.2721 -81.933,-22.8061 -109.8072,-7.6021 -80.2435,38.0102 -10.136,135.9919 -56.5928,179.0701 -16.8935,13.5147 -38.8548,11.8254 -54.9035,-2.534 -17.7381,-5.068 -16.8935,-66.7289 -21.9615,-90.3797 -5.9126,-22.8061 -21.9616,-38.0102 -54.9035,-50.6802 -9.2914,-1.6893 -38.0102,-31.2528 -43.0782,-39.6995 -5.068,-10.1361 -6.7574,-27.8741 -5.068,-43.9229 8.4466,-68.4183 27.8741,-161.332 88.6902,-201.0315 32.0976,-24.4954 91.2245,-17.738 87.8459,27.8741 0,14.3594 -2.5341,21.9615 -9.2915,21.9615 -38.0102,5.068 -74.331,76.865 -65.0395,112.3411 3.3786,15.2041 7.602,22.8061 20.2721,36.3208 75.1756,73.4863 154.5745,-4.2233 165.5552,-92.069 3.3788,-56.5929 48.9908,-81.933 45.6122,-119.9432 5.0681,-40.5442 -74.3309,-93.7584 -99.6711,-103.8944 -28.7187,-8.4468 -75.1755,-21.1168 -103.8943,-11.8254 -18.5829,3.3786 -21.9615,3.3786 -44.7676,-1.6894 -19.4275,-4.2233 -51.5249,-5.9127 -64.1949,-2.534 -129.2347,39.6995 -177.3807,228.061 -118.2538,342.9361 z m 565.9293,-146.9726 c 22.8061,50.6802 -42.2334,137.6813 -42.2334,195.9635 1.6892,114.0305 -104.7391,244.1097 18.5827,326.0427 46.4568,21.9615 110.6517,-22.8061 131.7686,-61.6609 10.9807,-21.1167 13.5147,-37.1655 13.5147,-75.1757 5.9126,-42.2335 -28.7187,-99.671 -12.6701,-142.7492 16.8933,-33.7868 81.933,-44.7675 108.1178,-33.7868 79.399,44.7675 -135.9919,257.6244 67.5737,326.8874 36.3208,8.4467 103.8943,-8.4468 127.545,-46.4569 7.6021,-13.5148 10.9809,-26.1848 12.6701,-53.2142 3.3788,-62.5056 -52.3694,-69.263 -74.331,-135.9919 -20.2721,-56.593 32.0976,-136.8366 42.2337,-190.0509 4.2231,-16.0487 12.67,-34.6314 30.4081,-63.3502 34.6314,-47.3016 33.7868,-151.196 14.3593,-197.6529 -12.6701,-27.8741 -43.9229,-41.3888 -83.6222,-36.3208 -100.516,10.9807 -130.0793,89.5351 -99.6711,179.9148 27.8741,108.1178 -11.8255,81.933 -101.3606,89.535 -6.7574,3.3787 -29.5635,15.2041 -32.0975,16.0488 -10.9807,-9.2914 -9.2913,-24.4955 -5.0678,-45.6122 12.6698,-45.6122 56.5929,-112.3412 49.8354,-162.1767 0.8446,-58.2823 -28.7187,-114.0305 -95.4477,-108.1178 -24.4955,-3.3787 -47.3016,-2.534 -78.5544,5.068 -87.001,30.4081 -40.5442,128.3899 8.4467,212.8569 z m 483.1501,278.7412 c -11.8252,67.5736 -5.9126,82.7777 5.9129,134.3026 4.2232,21.9614 6.7572,29.5634 12.6701,38.0101 21.9612,25.3401 70.9521,66.729 106.4283,49.8356 11.8254,-5.9127 27.8741,-20.2721 65.8843,-58.2823 38.0102,-38.0101 46.4568,-48.9909 52.3697,-65.8843 11.8252,-54.9035 -2.534,-85.3117 -35.4762,-152.0406 -23.651,-47.3015 -27.8741,-59.1269 -28.719,-80.2437 -0.8446,-19.4274 2.534,-32.9421 17.7381,-73.4863 19.4275,-52.3695 43.9231,-164.7107 16.8935,-201.0315 -21.9615,-43.0782 -62.5055,-78.5543 -114.0306,-66.729 -17.7381,2.5341 -33.7867,2.5341 -35.4759,-1.6893 -4.2234,-7.602 -23.651,0 -38.855,16.0487 -30.4082,28.7188 -34.6314,85.3117 -10.1361,123.3219 26.185,44.7675 32.0976,67.5736 32.0976,120.7878 4.2234,58.2823 -39.6996,151.196 -47.3017,217.0803 z m 650.3963,33.7868 c -47.3016,-6.7574 -74.3309,27.8741 -92.069,68.4183 -73.4864,-30.4081 -106.4286,29.5634 -143.5939,11.8254 -14.3595,-6.7574 -21.9616,-13.5148 -26.1848,-21.9615 -5.068,-6.7573 -4.2234,-47.3015 -0.8448,-54.9035 24.4955,-61.6609 73.4864,-63.3503 142.7493,-44.7675 37.1656,10.136 88.6905,20.272 113.1858,-7.6021 20.2721,-22.8061 39.6996,-71.797 30.4081,-104.7391 -10.9806,-44.7675 -59.9714,-70.9523 -114.0303,-62.5056 -18.5829,2.534 -26.185,6.7574 -75.1758,37.1655 -68.4184,34.6315 -99.6711,-10.136 -74.331,-80.2437 5.068,-16.8934 9.2915,-24.4954 15.2041,-29.5634 17.7381,-10.9807 74.331,-20.2721 103.8945,-1.6894 32.0974,16.8934 110.6518,22.8061 135.9919,-6.7573 17.7381,-17.7381 28.7187,-38.8548 28.7187,-57.4376 5.0681,-16.8934 -27.8741,-43.9229 -37.1653,-57.4376 -2.534,-3.3787 -2.534,-43.9228 -2.534,-54.9035 -31.253,-24.4955 -65.0398,-22.8061 -107.2732,-15.2041 -34.6316,7.602 -77.7098,5.9127 -119.9432,3.3787 -30.4081,-12.6701 -54.9037,-31.2528 -86.1564,-17.7381 -7.6021,3.3787 -16.0487,5.9127 -17.7381,5.9127 -39.6994,21.9614 -42.2334,80.2437 -28.7188,128.3899 10.1361,30.4081 26.1848,65.0396 23.6507,98.8264 0,45.6122 -4.2231,70.1076 -19.4272,108.1178 -20.2721,49.8355 -29.5636,105.5838 -15.2041,153.73 27.8741,75.1756 -68.4184,167.2447 40.5442,205.2548 29.5633,3.3787 50.68,-11.8253 96.2923,-11.8253 84.467,-8.4467 111.4965,16.8934 194.2741,4.2233 38.0102,-4.2233 46.4569,-8.4467 64.195,-31.2528 29.5635,-39.6995 35.4761,-75.1757 15.204,-122.4772 -10.136,-27.8741 -21.9612,-38.8548 -43.9228,-42.2335 z m 586.2004,-413.8884 c -48.1463,-34.6315 12.6701,-76.865 -102.2051,-93.7584 -80.2436,-14.3594 -87.8456,-10.1361 -151.196,28.7188 -4.2234,0.8446 -29.5635,4.2233 -55.7483,6.7573 -110.6517,12.6701 -103.8943,6.7574 -153.7299,62.5056 -7.6021,12.6701 -21.1167,45.6122 -26.1847,65.0397 -9.2915,43.9228 0.8445,114.0304 43.9228,149.5066 13.5146,10.9807 13.5146,11.8254 15.204,20.2721 8.4467,54.0588 72.6416,102.2051 125.0113,118.2538 6.7572,1.6893 21.1167,3.3787 31.2527,4.2234 41.3888,2.534 102.2051,42.2335 103.8946,86.1563 -3.3789,56.5929 -70.9524,65.0396 -108.118,22.8061 -26.1847,-20.2721 -50.68,-92.069 -78.5542,-110.6518 -23.6509,-17.7381 -60.8163,-28.7188 -81.933,-24.4954 -34.6316,9.2913 -68.4183,35.4761 -67.5738,74.331 -2.534,35.4761 22.8062,83.6223 38.8548,110.6517 3.3789,4.2234 19.4276,21.1168 36.3211,37.1656 34.6313,32.9421 36.3207,34.6314 60.816,38.0101 21.117,3.3787 39.6996,1.6894 63.3504,-5.9127 43.0782,-16.8934 65.0397,-1.6893 104.7391,9.2914 34.6316,5.9127 90.3796,-16.0487 124.1666,-32.0975 33.7868,-16.8934 50.68,-36.3208 59.9715,-68.4183 3.3786,-10.9807 11.8255,-37.1655 16.8935,-50.6802 0.8446,-56.5929 0,-88.6904 -45.6122,-132.6132 -16.8935,-16.8934 -22.8061,-19.4274 -45.6123,-19.4274 -28.7187,0 -79.399,12.67 -102.2051,5.068 -29.5636,-7.6021 -64.1949,-25.3401 -82.7776,-43.0782 -34.6316,-27.0294 -43.9228,-119.9432 -20.2721,-167.2447 15.2041,-31.2528 46.4568,-58.2823 72.6416,-63.3503 31.2527,-5.068 75.1758,-2.534 91.2244,26.1848 21.9613,43.9229 -69.2629,130.0792 -12.67,184.9828 21.9612,21.1167 61.6609,31.2528 88.6902,23.6508 0.8448,-0.8447 2.534,-8.4467 5.068,-16.0488 16.0489,-72.6416 55.7483,-72.6416 80.2438,-120.7878 8.4467,-35.4762 14.3593,-102.2051 -27.8741,-125.0112 z m -1914.4447,1581.2226 39.6994,-1.6892 4.2234,4.2232 c 1.6894,2.534 5.9126,7.602 9.2915,11.8255 5.9126,9.2914 16.8932,16.0486 29.5633,19.4275 10.9809,2.534 27.0296,2.534 60.8163,0.8446 46.4568,-3.3786 57.4375,-7.6021 87.8456,-34.6316 27.8742,-23.6507 35.4762,-32.0974 39.6997,-42.2334 5.9126,-11.8255 7.602,-32.0976 3.3786,-50.6803 -5.0681,-24.4953 -3.3786,-32.0973 15.204,-68.4183 16.0487,-32.9421 18.5827,-40.5441 17.7381,-60.8162 -0.8446,-14.3594 -1.6894,-16.8934 -7.602,-29.5635 -4.2234,-9.2913 -9.2915,-16.8934 -17.7381,-24.4954 -11.8252,-11.8254 -19.4273,-16.0487 -38.0102,-17.7381 -5.9126,-0.8446 -10.1361,-1.6893 -10.1361,-2.534 0.8449,-0.8447 11.8255,-9.2914 24.4956,-18.5827 12.6701,-10.1361 26.1847,-21.1168 30.4082,-25.3401 9.2912,-9.2914 16.0486,-22.8061 19.4272,-37.1655 8.4469,-35.4762 -3.3786,-65.8843 -36.3208,-97.9818 -16.8932,-16.0487 -18.5826,-18.5827 -18.5826,-29.5634 0,-12.6701 5.068,-26.1848 16.8935,-45.6122 16.8932,-27.8741 19.4272,-33.7868 19.4272,-49.8356 0,-11.8253 -0.8445,-15.204 -5.9126,-25.3401 -6.7574,-14.3594 -20.2721,-28.7188 -33.7867,-35.4761 -21.117,-10.1361 -44.7677,-10.1361 -76.0204,0 -21.9616,6.7573 -56.5929,13.5147 -79.399,15.204 -29.5636,1.6894 -46.4568,7.6021 -65.0398,23.6508 -10.9806,9.2914 -15.2038,10.1361 -43.9228,12.6701 -27.0293,1.6893 -37.1653,4.2233 -48.146,12.67 -10.9809,8.4467 -16.8935,17.7381 -21.9615,32.0975 -7.6021,21.1167 -5.9126,33.7868 8.4466,65.8843 7.602,16.0487 8.4469,19.4274 6.7575,45.6122 -1.6895,16.8934 -1.6895,18.5827 2.534,27.0294 5.9126,11.8254 16.8932,23.6508 26.1847,28.7188 17.7381,8.4467 49.8357,3.3787 69.2629,-11.8254 16.0487,-11.8254 21.9616,-25.3401 24.4956,-57.4376 0.8446,-10.9807 3.3786,-22.8061 4.2232,-27.0294 5.9128,-15.2041 33.787,-31.2528 64.1949,-37.1655 10.9809,-2.534 15.2041,-2.534 20.2721,-0.8447 8.4469,2.534 8.4469,5.9127 -1.6892,29.5635 -10.136,24.4954 -10.136,36.3208 -2.534,61.6609 7.602,21.1168 9.2912,39.6995 5.068,53.2142 -5.9128,19.4275 -23.6509,43.0782 -38.8548,49.8356 -6.7574,3.3787 -10.136,3.3787 -30.4081,2.534 -57.4377,-0.8447 -57.4377,-1.6894 -67.5738,4.2233 -12.6701,5.9127 -29.5633,22.8061 -34.6313,34.6315 -4.2235,10.9807 -4.2235,24.4955 0,32.9422 5.068,10.136 15.204,16.0487 35.4762,20.272 22.8058,4.2234 59.9714,3.3787 96.2922,-2.534 27.0296,-5.068 41.3888,-5.9127 47.3017,-3.3787 2.534,1.6894 3.3786,4.2234 3.3786,12.6701 0,11.8254 -4.2235,25.3401 -14.3595,43.9229 -8.4467,16.8934 -11.8253,32.0975 -10.9807,41.3887 0.8446,3.3789 3.3786,12.6701 5.9126,20.2721 4.2235,13.5149 4.2235,14.3595 1.6895,20.2721 -7.6021,15.2041 -44.7674,27.8742 -70.1076,22.8062 -18.5829,-3.3786 -23.6509,-10.1361 -31.253,-42.2334 -6.7572,-30.4082 -10.9806,-39.6996 -20.2718,-49.8357 -13.5149,-12.67 -27.8742,-16.0487 -51.5251,-9.2913 -21.9613,5.068 -47.3014,18.5827 -59.9715,32.0974 -21.1167,19.4275 -33.7867,54.0589 -35.4762,90.3796 -0.8446,19.4276 -0.8446,21.117 3.3786,30.4082 6.7575,14.3595 18.583,21.9615 45.6123,28.7187 26.1847,7.6021 40.5442,8.4469 83.6224,7.6021 z m 788.0779,-582.8224 c -40.5443,-16.8934 -84.4671,9.2914 -133.4579,-27.8741 -27.0296,-17.7381 -37.1656,-21.9614 -77.7098,-25.3401 -25.3402,-2.534 -42.2334,-0.8447 -78.5542,8.4467 -23.6509,5.9127 -27.8741,6.7573 -30.4081,4.2233 -45.6123,-10.136 -100.516,56.5929 -89.5351,104.7391 2.534,16.0488 6.7572,26.1848 19.4273,44.7676 38.0102,59.9716 55.7483,137.6812 54.9037,220.4589 10.136,86.1564 -50.6803,163.8659 -51.5249,244.9543 -1.6894,55.7483 14.3593,70.1078 57.4375,80.2436 48.1462,15.2041 70.1075,-0.8446 108.1177,-32.9419 28.719,-33.787 63.3503,-32.9422 100.516,-28.719 93.7582,-5.068 106.4283,-175.6913 129.2344,-244.9543 6.7574,-21.1167 18.5827,-41.3888 43.9228,-80.2436 65.0397,-98.8264 57.4377,-211.1676 -52.3694,-267.7605 z m -70.9524,240.731 c -2.534,7.6021 -8.4466,21.1168 -13.5147,30.4082 -16.0486,20.272 -22.8061,95.4477 -33.7867,135.9919 -15.2041,43.9228 -28.719,65.8841 -70.1078,82.7776 -22.8061,9.2915 -39.6994,8.4467 -43.9228,-2.534 -2.534,-5.068 -1.6894,-8.4466 8.4466,-31.2527 31.253,-71.797 28.719,-140.2153 3.3789,-225.527 -15.2041,-50.6802 16.0486,-110.6518 72.6415,-109.8071 13.5147,-0.8447 16.0487,0 24.4955,3.3786 54.0589,20.2721 68.4181,64.195 52.3695,116.5645 z"
       id="text2-5"
       style="font-size:333.333px;font-family:'LEQUA HYPER';-inkscape-font-specification:'LEQUA HYPER, Normal';text-align:center;text-anchor:middle;white-space:pre;shape-padding:19.2031;fill:#f7dbf0;fill-opacity:1;stroke-width:2.53401"
       inkscape:label="Pink text"
       aria-label="Richies&#10;3D" /><path
       style="font-size:333.333px;font-family:'LEQUA HYPER';-inkscape-font-specification:'LEQUA HYPER, Normal';text-align:center;text-anchor:middle;white-space:pre;shape-padding:10.2637;fill:#8875b5;fill-opacity:1;stroke-width:2.53401"
       d="m 820.32425,1621.4519 c -64.19492,-68.4183 -91.22448,-76.0203 -185.82755,-79.399 -21.96128,-0.8446 -29.56332,1.6894 -55.74804,15.2041 -24.49555,11.8254 -31.253,13.5147 -48.14625,12.67 -35.47619,-3.3786 -90.37989,-38.8548 -141.90474,-15.204 -104.73913,65.8843 -116.56435,179.9148 -92.06906,302.3919 11.82548,81.0884 13.5149,96.2924 -2.53402,166.4001 -10.98064,39.6995 -11.82522,48.9908 -12.67006,77.7096 0.84484,63.3503 0.84484,146.9727 53.21428,179.9148 75.1758,26.1848 130.92384,-113.1858 124.16664,-188.3615 3.3786,-59.1269 -48.99084,-163.0213 21.96128,-199.3421 70.95237,-17.7381 54.9037,91.2243 81.93301,131.7685 22.80612,43.9229 108.96257,185.8275 142.74933,223.8376 59.12689,49.8356 107.27314,-40.5441 100.51568,-103.0498 -1.68917,-148.6619 -66.72893,-127.5451 -116.56435,-221.3035 -17.73809,-28.7188 2.53401,-52.3696 28.71873,-63.3503 23.65071,-6.7574 69.26294,-14.3594 82.7776,-33.7868 32.94217,-32.0975 66.72893,-157.9534 19.42752,-206.0996 z m -155.4194,155.4194 c -3.3786,0 -11.82522,-0.8447 -24.49529,-3.3787 -19.42752,-5.068 -55.74829,-8.4467 -71.79695,0 -15.20408,7.602 -56.59313,48.1462 -60.81632,45.6122 -21.11669,6.7573 -61.6609,-1.6894 -68.41836,-24.4955 12.67007,-28.7188 24.49555,-64.1949 22.80612,-106.4284 0,-10.9807 0,-10.136 17.73809,-16.8934 10.98064,-3.3787 15.20408,-4.2234 64.19492,-5.9127 47.30167,-2.534 52.36944,-2.534 64.19492,0 37.16561,7.602 64.19491,31.2528 70.95237,62.5056 5.91261,25.3401 0,46.4569 -14.3595,48.9909 z m 210.32411,266.9158 c -11.82548,67.5736 -5.91261,82.7777 5.91262,134.3025 4.22344,21.9615 6.75745,29.5635 12.67006,38.0102 21.96153,25.3401 70.95237,66.7289 106.42856,49.8355 11.8255,-5.9127 27.8741,-20.272 65.8843,-58.2822 38.01,-38.0102 46.4569,-48.9909 52.3695,-65.8843 11.8255,-54.9036 -2.534,-85.3117 -35.4762,-152.0406 -23.6507,-47.3016 -27.8742,-59.1269 -28.7187,-80.2437 -0.8446,-19.4274 2.534,-32.9421 17.7381,-73.4863 19.4275,-52.3696 43.9228,-164.7107 16.8935,-201.0315 -21.9616,-43.0782 -62.5058,-78.5544 -114.03063,-66.729 -17.7381,2.534 -33.78676,2.534 -35.47619,-1.6893 -4.22344,-7.6021 -23.65071,0 -38.85478,16.0487 -30.40816,28.7188 -34.6316,85.3117 -10.13606,123.3219 26.18472,44.7675 32.09759,67.5736 32.09759,120.7878 4.22318,58.2823 -39.69963,151.196 -47.30167,217.0803 z m 287.18784,-131.7686 c 31.2527,71.797 36.3208,114.8752 33.7867,206.0996 -0.8445,20.272 0,22.806 3.3786,32.9421 27.8742,76.865 78.5545,102.2051 159.6429,125.8558 46.4568,7.6021 95.4476,-13.5147 139.3705,-34.6314 62.5057,-34.6315 116.5646,-97.1371 133.4578,-170.6234 16.0489,-55.7483 3.3789,-81.0884 -26.1847,-112.3412 -19.4275,-20.272 -81.933,-22.8061 -109.8072,-7.602 -80.2435,38.0102 -10.136,135.9919 -56.5928,179.0701 -16.8935,13.5147 -38.8548,11.8254 -54.9035,-2.534 -17.7381,-5.068 -16.8935,-66.729 -21.9615,-90.3797 -5.9126,-22.8061 -21.9616,-38.0102 -54.9035,-50.6802 -9.2914,-1.6894 -38.0102,-31.2528 -43.0782,-39.6995 -5.068,-10.1361 -6.7574,-27.8742 -5.068,-43.9229 8.4466,-68.4183 27.8741,-161.332 88.6902,-201.0315 32.0976,-24.4954 91.2245,-17.7381 87.8459,27.8741 0,14.3594 -2.5341,21.9614 -9.2915,21.9614 -38.0102,5.068 -74.331,76.865 -65.0395,112.3412 3.3786,15.204 7.602,22.8061 20.2721,36.3208 75.1756,73.4863 154.5745,-4.2234 165.5552,-92.0691 3.3788,-56.5929 48.9908,-81.933 45.6122,-119.9431 5.0681,-40.5442 -74.3309,-93.7584 -99.6711,-103.8945 -28.7187,-8.4467 -75.1755,-21.1167 -103.8943,-11.8254 -18.5829,3.3787 -21.9615,3.3787 -44.7676,-1.6893 -19.4275,-4.2234 -51.5249,-5.9127 -64.1949,-2.534 -129.2347,39.6995 -177.3807,228.0609 -118.2538,342.9361 z m 565.9293,-146.9726 c 22.8061,50.6802 -42.2334,137.6812 -42.2334,195.9635 1.6892,114.0305 -104.7391,244.1097 18.5827,326.0427 46.4568,21.9614 110.6517,-22.8061 131.7686,-61.6609 10.9807,-21.1168 13.5147,-37.1655 13.5147,-75.1757 5.9126,-42.2335 -28.7187,-99.6711 -12.6701,-142.7493 16.8933,-33.7868 81.933,-44.7675 108.1178,-33.7868 79.399,44.7676 -135.9919,257.6245 67.5737,326.8874 36.3208,8.4467 103.8943,-8.4467 127.545,-46.4568 7.6021,-13.5148 10.9809,-26.1848 12.6701,-53.2143 3.3788,-62.5056 -52.3694,-69.2629 -74.331,-135.9919 -20.2721,-56.5929 32.0976,-136.8366 42.2337,-190.0508 4.2231,-16.0487 12.67,-34.6315 30.4081,-63.3503 34.6314,-47.3015 33.7868,-151.1959 14.3593,-197.6528 -12.6701,-27.8741 -43.9229,-41.3888 -83.6222,-36.3208 -100.516,10.9807 -130.0793,89.535 -99.6711,179.9147 27.8741,108.1179 -11.8255,81.9331 -101.3606,89.5351 -6.7574,3.3787 -29.5635,15.204 -32.0975,16.0487 -10.9807,-9.2914 -9.2913,-24.4954 -5.0678,-45.6122 12.6698,-45.6122 56.5929,-112.3411 49.8354,-162.1766 0.8446,-58.2823 -28.7187,-114.0305 -95.4477,-108.1178 -24.4955,-3.3787 -47.3016,-2.5341 -78.5544,5.068 -87.001,30.4081 -40.5442,128.3899 8.4467,212.8569 z m 483.1501,278.7412 c -11.8252,67.5736 -5.9126,82.7777 5.9129,134.3025 4.2232,21.9615 6.7572,29.5635 12.6701,38.0102 21.9612,25.3401 70.9521,66.7289 106.4283,49.8355 11.8254,-5.9127 27.8741,-20.272 65.8843,-58.2822 38.0102,-38.0102 46.4568,-48.9909 52.3697,-65.8843 11.8252,-54.9036 -2.534,-85.3117 -35.4762,-152.0406 -23.651,-47.3016 -27.8741,-59.1269 -28.719,-80.2437 -0.8446,-19.4274 2.534,-32.9421 17.7381,-73.4863 19.4275,-52.3696 43.9231,-164.7107 16.8935,-201.0315 -21.9615,-43.0782 -62.5055,-78.5544 -114.0306,-66.729 -17.7381,2.534 -33.7867,2.534 -35.4759,-1.6893 -4.2234,-7.6021 -23.651,0 -38.855,16.0487 -30.4082,28.7188 -34.6314,85.3117 -10.1361,123.3219 26.185,44.7675 32.0976,67.5736 32.0976,120.7878 4.2234,58.2823 -39.6996,151.196 -47.3017,217.0803 z m 650.3963,33.7868 c -47.3016,-6.7574 -74.3309,27.8741 -92.069,68.4182 -73.4864,-30.4081 -106.4286,29.5635 -143.5939,11.8255 -14.3595,-6.7574 -21.9616,-13.5148 -26.1848,-21.9615 -5.068,-6.7574 -4.2234,-47.3015 -0.8448,-54.9036 24.4955,-61.6609 73.4864,-63.3502 142.7493,-44.7675 37.1656,10.1361 88.6905,20.2721 113.1858,-7.602 20.2721,-22.8061 39.6996,-71.797 30.4081,-104.7391 -10.9806,-44.7675 -59.9714,-70.9523 -114.0303,-62.5056 -18.5829,2.534 -26.185,6.7574 -75.1758,37.1655 -68.4184,34.6315 -99.6711,-10.1361 -74.331,-80.2437 5.068,-16.8934 9.2915,-24.4954 15.2041,-29.5635 17.7381,-10.9807 74.331,-20.272 103.8945,-1.6893 32.0974,16.8934 110.6518,22.8061 135.9919,-6.7574 17.7381,-17.738 28.7187,-38.8548 28.7187,-57.4375 5.0681,-16.8934 -27.8741,-43.9229 -37.1653,-57.4376 -2.534,-3.3787 -2.534,-43.9229 -2.534,-54.9036 -31.253,-24.4954 -65.0398,-22.8061 -107.2732,-15.204 -34.6316,7.602 -77.7098,5.9126 -119.9432,3.3787 -30.4081,-12.6701 -54.9037,-31.2529 -86.1564,-17.7381 -7.6021,3.3786 -16.0487,5.9127 -17.7381,5.9127 -39.6994,21.9614 -42.2334,80.2436 -28.7188,128.3898 10.1361,30.4082 26.1848,65.0396 23.6507,98.8264 0,45.6122 -4.2231,70.1077 -19.4272,108.1179 -20.2721,49.8355 -29.5636,105.5837 -15.2041,153.7299 27.8741,75.1757 -68.4184,167.2447 40.5442,205.2549 29.5633,3.3787 50.68,-11.8254 96.2923,-11.8254 84.467,-8.4467 111.4965,16.8934 194.2741,4.2234 38.0102,-4.2234 46.4569,-8.4467 64.195,-31.2528 29.5635,-39.6995 35.4761,-75.1757 15.204,-122.4772 -10.136,-27.8741 -21.9612,-38.8549 -43.9228,-42.2335 z m 586.2004,-413.8884 c -48.1463,-34.6315 12.6701,-76.865 -102.2051,-93.7585 -80.2436,-14.3593 -87.8456,-10.136 -151.196,28.7189 -4.2234,0.8446 -29.5635,4.2233 -55.7483,6.7573 -110.6517,12.67 -103.8943,6.7574 -153.7299,62.5056 -7.6021,12.6701 -21.1167,45.6122 -26.1847,65.0396 -9.2915,43.9229 0.8445,114.0305 43.9228,149.5067 13.5146,10.9807 13.5146,11.8253 15.204,20.272 8.4467,54.0589 72.6416,102.2051 125.0113,118.2539 6.7572,1.6893 21.1167,3.3786 31.2527,4.2233 41.3888,2.534 102.2051,42.2335 103.8946,86.1564 -3.3789,56.5929 -70.9524,65.0396 -108.118,22.8061 -26.1847,-20.2721 -50.68,-92.0691 -78.5542,-110.6518 -23.6509,-17.7381 -60.8163,-28.7188 -81.933,-24.4955 -34.6316,9.2914 -68.4183,35.4762 -67.5738,74.331 -2.534,35.4762 22.8062,83.6224 38.8548,110.6518 3.3789,4.2234 19.4276,21.1168 36.3211,37.1655 34.6313,32.9422 36.3207,34.6315 60.816,38.0102 21.117,3.3787 39.6996,1.6893 63.3504,-5.9127 43.0782,-16.8934 65.0397,-1.6894 104.7391,9.2914 34.6316,5.9126 90.3796,-16.0488 124.1666,-32.0975 33.7868,-16.8934 50.68,-36.3208 59.9715,-68.4183 3.3786,-10.9807 11.8255,-37.1655 16.8935,-50.6802 0.8446,-56.5929 0,-88.6904 -45.6122,-132.6132 -16.8935,-16.8934 -22.8061,-19.4275 -45.6123,-19.4275 -28.7187,0 -79.399,12.6701 -102.2051,5.0681 -29.5636,-7.6021 -64.1949,-25.3401 -82.7776,-43.0782 -34.6316,-27.0295 -43.9228,-119.9432 -20.2721,-167.2447 15.2041,-31.2528 46.4568,-58.2823 72.6416,-63.3503 31.2527,-5.068 75.1758,-2.534 91.2244,26.1848 21.9613,43.9228 -69.2629,130.0792 -12.67,184.9828 21.9612,21.1167 61.6609,31.2528 88.6902,23.6507 0.8448,-0.8446 2.534,-8.4467 5.068,-16.0487 16.0489,-72.6417 55.7483,-72.6417 80.2438,-120.7879 8.4467,-35.4761 14.3593,-102.205 -27.8741,-125.0111 z m -1914.4447,1581.2227 39.6994,-1.6895 4.2234,4.2235 c 1.6894,2.534 5.9126,7.602 9.2915,11.8252 5.9126,9.2915 16.8932,16.0489 29.5633,19.4275 10.9809,2.534 27.0296,2.534 60.8163,0.8446 46.4568,-3.3786 57.4375,-7.602 87.8456,-34.6313 27.8742,-23.6507 35.4762,-32.0976 39.6997,-42.2337 5.9126,-11.8252 7.602,-32.0973 3.3786,-50.68 -5.0681,-24.4955 -3.3786,-32.0976 15.204,-68.4184 16.0487,-32.9421 18.5827,-40.5441 17.7381,-60.8162 -0.8446,-14.3594 -1.6894,-16.8934 -7.602,-29.5635 -4.2234,-9.2914 -9.2915,-16.8934 -17.7381,-24.4954 -11.8252,-11.8254 -19.4273,-16.0488 -38.0102,-17.7381 -5.9126,-0.8447 -10.1361,-1.6893 -10.1361,-2.534 0.8449,-0.8447 11.8255,-9.2914 24.4956,-18.5827 12.6701,-10.1361 26.1847,-21.1168 30.4082,-25.3402 9.2912,-9.2913 16.0486,-22.8061 19.4272,-37.1655 8.4469,-35.4761 -3.3786,-65.8842 -36.3208,-97.9817 -16.8932,-16.0487 -18.5826,-18.5827 -18.5826,-29.5635 0,-12.67 5.068,-26.1847 16.8935,-45.6121 16.8932,-27.8742 19.4272,-33.7869 19.4272,-49.8356 0,-11.8254 -0.8445,-15.204 -5.9126,-25.3401 -6.7574,-14.3594 -20.2721,-28.7188 -33.7867,-35.4762 -21.117,-10.136 -44.7677,-10.136 -76.0204,0 -21.9616,6.7574 -56.5929,13.5148 -79.399,15.2041 -29.5636,1.6893 -46.4568,7.602 -65.0398,23.6508 -10.9806,9.2913 -15.2038,10.136 -43.9228,12.67 -27.0293,1.6894 -37.1653,4.2234 -48.146,12.6701 -10.9809,8.4467 -16.8935,17.738 -21.9615,32.0975 -7.6021,21.1167 -5.9126,33.7868 8.4466,65.8842 7.602,16.0488 8.4469,19.4274 6.7575,45.6122 -1.6895,16.8934 -1.6895,18.5828 2.534,27.0295 5.9126,11.8254 16.8932,23.6507 26.1847,28.7188 17.7381,8.4467 49.8357,3.3786 69.2629,-11.8254 16.0487,-11.8254 21.9616,-25.3401 24.4956,-57.4376 0.8446,-10.9807 3.3786,-22.8061 4.2232,-27.0294 5.9128,-15.2041 33.787,-31.2528 64.1949,-37.1655 10.9809,-2.534 15.2041,-2.534 20.2721,-0.8447 8.4469,2.534 8.4469,5.9127 -1.6892,29.5635 -10.136,24.4954 -10.136,36.3208 -2.534,61.6609 7.602,21.1167 9.2912,39.6995 5.068,53.2142 -5.9128,19.4274 -23.6509,43.0782 -38.8548,49.8355 -6.7574,3.3787 -10.136,3.3787 -30.4081,2.534 -57.4377,-0.8446 -57.4377,-1.6893 -67.5738,4.2234 -12.6701,5.9127 -29.5633,22.8061 -34.6313,34.6315 -4.2235,10.9807 -4.2235,24.4954 0,32.9421 5.068,10.1361 15.204,16.0488 35.4762,20.2721 22.8058,4.2234 59.9714,3.3787 96.2922,-2.534 27.0296,-5.068 41.3888,-5.9127 47.3017,-3.3787 2.534,1.6894 3.3786,4.2234 3.3786,12.6701 0,11.8254 -4.2235,25.3401 -14.3595,43.9228 -8.4467,16.8934 -11.8253,32.0975 -10.9807,41.3889 0.8446,3.3786 3.3786,12.6701 5.9126,20.2721 4.2235,13.5147 4.2235,14.3593 1.6895,20.2721 -7.6021,15.2041 -44.7674,27.8742 -70.1076,22.8062 -18.5829,-3.3789 -23.6509,-10.1361 -31.253,-42.2337 -6.7572,-30.4081 -10.9806,-39.6995 -20.2718,-49.8355 -13.5149,-12.6701 -27.8742,-16.0488 -51.5251,-9.2914 -21.9613,5.068 -47.3014,18.5828 -59.9715,32.0975 -21.1167,19.4274 -33.7867,54.059 -35.4762,90.3797 -0.8446,19.4273 -0.8446,21.1167 3.3786,30.4082 6.7575,14.3592 18.583,21.9613 45.6123,28.7187 26.1847,7.6021 40.5442,8.4467 83.6224,7.6021 z m 788.0779,-582.8225 c -40.5443,-16.8934 -84.4671,9.2914 -133.4579,-27.8741 -27.0296,-17.7381 -37.1656,-21.9615 -77.7098,-25.3402 -25.3402,-2.534 -42.2334,-0.8446 -78.5542,8.4467 -23.6509,5.9127 -27.8741,6.7574 -30.4081,4.2234 -45.6123,-10.136 -100.516,56.5929 -89.5351,104.7391 2.534,16.0488 6.7572,26.1848 19.4273,44.7675 38.0102,59.9716 55.7483,137.6813 54.9037,220.459 10.136,86.1563 -50.6803,163.866 -51.5249,244.9544 -1.6894,55.7481 14.3593,70.1076 57.4375,80.2436 48.1462,15.2041 70.1075,-0.8446 108.1177,-32.9421 28.719,-33.7868 63.3503,-32.9422 100.516,-28.7188 93.7582,-5.068 106.4283,-175.6914 129.2344,-244.9544 6.7574,-21.1167 18.5827,-41.3888 43.9228,-80.2436 65.0397,-98.8265 57.4377,-211.1676 -52.3694,-267.7605 z m -70.9524,240.731 c -2.534,7.602 -8.4466,21.1167 -13.5147,30.4081 -16.0486,20.2721 -22.8061,95.4478 -33.7867,135.9919 -15.2041,43.9228 -28.719,65.8843 -70.1078,82.7778 -22.8061,9.2912 -39.6994,8.4467 -43.9228,-2.534 -2.534,-5.068 -1.6894,-8.4469 8.4466,-31.253 31.253,-71.7969 28.719,-140.2151 3.3789,-225.5269 -15.2041,-50.6802 16.0486,-110.6517 72.6415,-109.8071 13.5147,-0.8446 16.0487,0 24.4955,3.3787 54.0589,20.2721 68.4181,64.1949 52.3695,116.5645 z"
       id="text2-5-6"
       inkscape:label="Purple text"
       aria-label="Richies&#10;3D" /><path
       style="font-size:400px;font-family:'LEQUA HYPER';-inkscape-font-specification:'LEQUA HYPER, Normal';text-align:center;text-anchor:middle;white-space:pre;shape-padding:50.3001;display:none;fill:#f7dbf0;fill-opacity:1"
       sodipodi:type="inkscape:offset"
       inkscape:radius="0"
       inkscape:original="M 3147.0469 859.19531 C 3137.3971 859.19531 3126.7652 861.15672 3114.6621 865.08203 C 3097.6524 870.31579 3070.8299 875.54898 3053.166 876.85742 C 3030.2683 878.16585 3017.1838 882.74561 3002.791 895.17578 C 2994.2861 902.3722 2991.015 903.02757 2968.7715 904.99023 C 2947.8365 906.29867 2939.9854 908.26054 2931.4805 914.80273 C 2922.9757 921.34493 2918.396 928.54232 2914.4707 939.66406 C 2908.5827 956.01955 2909.892 965.83301 2921.0137 990.69336 C 2926.9017 1003.1235 2927.5564 1005.7387 2926.248 1026.0195 C 2924.9395 1039.1039 2924.9379 1040.4129 2928.209 1046.9551 C 2932.7886 1056.1141 2941.2938 1065.2739 2948.4902 1069.1992 C 2962.2288 1075.7414 2987.0897 1071.815 3002.1367 1060.0391 C 3014.5669 1050.88 3019.1467 1040.4131 3021.1094 1015.5527 C 3021.7636 1007.0479 3023.7267 997.88829 3024.3809 994.61719 C 3028.9604 982.84124 3050.5497 970.41157 3074.1016 965.83203 C 3082.6065 963.86937 3085.8773 963.86929 3089.8027 965.17773 C 3096.3449 967.14039 3096.3448 969.75802 3088.4941 988.07617 C 3080.6435 1007.0486 3080.6432 1016.2074 3086.5312 1035.834 C 3092.4192 1052.1895 3093.7281 1066.5812 3090.457 1077.0488 C 3085.8774 1092.0958 3072.1372 1110.4147 3060.3613 1115.6484 C 3055.1275 1118.2653 3052.5117 1118.2655 3036.8105 1117.6113 C 2992.3235 1116.9571 2992.3233 1116.3032 2984.4727 1120.8828 C 2974.6594 1125.4623 2961.5757 1138.546 2957.6504 1147.7051 C 2954.3793 1156.2099 2954.3793 1166.6785 2957.6504 1173.2207 C 2961.5757 1181.0714 2969.4258 1185.6508 2985.127 1188.9219 C 3002.791 1192.193 3031.5755 1191.5385 3059.707 1186.959 C 3080.642 1183.0336 3091.7642 1182.3791 3096.3438 1184.3418 C 3098.3063 1185.6502 3098.9609 1187.6121 3098.9609 1194.1543 C 3098.9609 1203.3133 3095.6904 1213.781 3087.8398 1228.1738 C 3081.2976 1241.2582 3078.6797 1253.034 3079.334 1260.2305 C 3079.9882 1262.8473 3081.9514 1270.0436 3083.9141 1275.9316 C 3087.1852 1286.3991 3087.1854 1287.0533 3085.2227 1291.6328 C 3079.3348 1303.4087 3050.5485 1313.2222 3030.9219 1309.2969 C 3016.5291 1306.68 3012.6048 1301.4463 3006.7168 1276.5859 C 3001.483 1253.034 2998.212 1245.8389 2991.0156 1237.9883 C 2980.5481 1228.175 2969.4256 1225.5572 2951.1074 1230.791 C 2934.0977 1234.7163 2914.4715 1245.1848 2904.6582 1255.6523 C 2888.3027 1270.6994 2878.49 1297.5209 2877.1816 1325.6523 C 2876.5274 1340.6994 2876.5258 1342.0087 2879.7969 1349.2051 C 2885.0306 1360.3268 2894.19 1366.2154 2915.125 1371.4492 C 2935.4058 1377.3372 2946.5274 1377.9901 2979.8926 1377.3359 L 3010.6406 1376.0273 L 3013.9121 1379.2988 C 3015.2205 1381.2615 3018.4925 1385.1879 3021.1094 1388.459 C 3025.6889 1395.6554 3034.1926 1400.8891 3044.0059 1403.5059 C 3052.5107 1405.4686 3064.9425 1405.4686 3091.1113 1404.1602 C 3127.0934 1401.5433 3135.5965 1398.2709 3159.1484 1377.3359 C 3180.7377 1359.0177 3186.6273 1352.4756 3189.8984 1344.625 C 3194.4779 1335.4659 3195.7848 1319.7658 3192.5137 1305.373 C 3188.5884 1286.4006 3189.8982 1280.5124 3204.291 1252.3809 C 3216.7212 1226.8664 3218.6835 1220.9786 3218.0293 1205.2773 C 3217.3751 1194.1556 3216.7202 1192.1922 3212.1406 1182.3789 C 3208.8695 1175.1825 3204.9445 1169.2941 3198.4023 1163.4062 C 3189.2432 1154.2471 3183.3558 1150.9765 3168.9629 1149.668 C 3164.3834 1149.0138 3161.1113 1148.3593 3161.1113 1147.7051 C 3161.7655 1147.0509 3170.2707 1140.509 3180.084 1133.3125 C 3189.8973 1125.4619 3200.3656 1116.9566 3203.6367 1113.6855 C 3210.8331 1106.489 3216.0667 1096.0221 3218.6836 1084.9004 C 3225.2258 1057.4232 3216.0672 1033.8702 3190.5527 1009.0098 C 3177.4683 996.57962 3176.1582 994.61813 3176.1582 986.11328 C 3176.1582 976.29998 3180.0851 965.83221 3189.2441 950.78516 C 3202.3285 929.19591 3204.291 924.61573 3204.291 912.18555 C 3204.291 903.02648 3203.6362 900.41118 3199.7109 892.56055 C 3194.4771 881.43881 3184.0105 870.31579 3173.543 865.08203 C 3165.3652 861.15672 3156.6966 859.19531 3147.0469 859.19531 z M 381.33203 876.20508 C 364.32232 875.55086 358.4351 877.51295 338.1543 887.98047 C 319.18193 897.13954 313.94767 898.44719 300.86328 897.79297 C 273.38605 895.17609 230.86247 867.69943 190.95508 886.01758 C 109.83184 937.04671 100.67216 1025.3666 119.64453 1120.2285 C 128.8036 1183.0335 130.11181 1194.8092 117.68164 1249.1094 C 109.17679 1279.8577 108.52336 1287.0535 107.86914 1309.2969 C 108.52336 1358.3634 108.52237 1423.1319 149.08398 1448.6465 C 207.30953 1468.9273 250.48962 1360.9815 245.25586 1302.7559 C 247.87274 1256.9606 207.31118 1176.4908 262.26562 1148.3594 C 317.22008 1134.6208 304.78959 1219.0154 325.72461 1250.418 C 343.38854 1284.4374 410.11832 1394.3453 436.28711 1423.7852 C 482.08248 1462.3841 519.37242 1392.3829 514.13867 1343.9707 C 512.83023 1228.828 462.45638 1245.1848 423.85742 1172.5664 C 410.11881 1150.323 425.8188 1132.0048 446.09961 1123.5 C 464.41776 1118.2662 499.74733 1112.3771 510.21484 1097.3301 C 535.7294 1072.4697 561.89802 974.99169 525.26172 937.70117 C 475.54103 884.70938 454.60462 878.82195 381.33203 876.20508 z M 1268.7422 878.81055 C 1254.6356 878.16655 1240.1604 879.6387 1222.0059 884.05469 C 1154.6213 907.6066 1190.604 983.49603 1228.5488 1048.918 C 1246.2127 1088.1712 1195.8379 1155.5561 1195.8379 1200.6973 C 1197.1463 1289.0169 1114.7145 1389.7673 1210.2305 1453.2266 C 1246.2126 1470.2363 1295.9336 1435.5629 1312.2891 1405.4688 C 1320.7939 1389.1133 1322.7559 1376.682 1322.7559 1347.2422 C 1327.3354 1314.5312 1300.5132 1270.0449 1312.9434 1236.6797 C 1326.0278 1210.511 1376.4028 1202.0049 1396.6836 1210.5098 C 1458.1803 1245.1834 1291.3526 1410.0474 1449.0195 1463.6934 C 1477.1509 1470.2356 1529.4884 1457.1508 1547.8066 1427.7109 C 1553.6945 1417.2434 1556.3127 1407.4312 1557.6211 1386.4961 C 1560.238 1338.0839 1517.0585 1332.8493 1500.0488 1281.166 C 1484.3475 1237.3333 1524.9092 1175.1826 1532.7598 1133.9668 C 1536.0309 1121.5366 1542.5739 1107.1439 1556.3125 1084.9004 C 1583.1355 1048.2641 1582.4807 967.79458 1567.4336 931.8125 C 1557.6203 910.22325 1533.4143 899.75632 1502.666 903.68164 C 1424.8139 912.18649 1401.9168 973.02785 1425.4688 1043.0293 C 1447.0579 1126.7695 1416.3102 1106.489 1346.9629 1112.377 C 1341.7292 1114.9939 1324.0642 1124.1524 1322.1016 1124.8066 C 1313.5967 1117.6102 1314.9047 1105.836 1318.1758 1089.4805 C 1327.9891 1054.1527 1362.0092 1002.4681 1356.7754 963.86914 C 1357.4296 918.72799 1334.5311 875.54938 1282.8477 880.12891 C 1278.1046 879.47469 1273.4444 879.02521 1268.7422 878.81055 z M 3412.8945 883.89062 C 3399.6159 883.76796 3386.9814 885.85464 3365.8828 891.25195 C 3347.5646 895.83148 3344.2946 896.48414 3342.332 894.52148 C 3307.0041 886.67085 3264.4795 938.35597 3272.9844 975.64648 C 3274.947 988.07666 3278.218 995.92549 3288.0312 1010.3184 C 3317.4711 1056.768 3331.2089 1116.9568 3330.5547 1181.0703 C 3338.4053 1247.8007 3291.3026 1307.9898 3290.6484 1370.7949 C 3289.34 1413.9734 3301.7696 1425.0947 3335.1348 1432.9453 C 3372.4254 1444.7213 3389.4351 1432.29 3418.875 1407.4297 C 3441.1184 1381.2609 3467.9409 1381.9164 3496.7266 1385.1875 C 3569.345 1381.2622 3579.1584 1249.1089 3596.8223 1195.4629 C 3602.056 1179.1074 3611.2152 1163.4067 3630.8418 1133.3125 C 3681.2167 1056.7689 3675.3297 969.75849 3590.2812 925.92578 C 3558.8787 912.84138 3524.8588 933.1216 3486.9141 904.33594 C 3465.9791 890.59733 3458.1271 887.32586 3426.7246 884.70898 C 3421.818 884.21832 3417.3207 883.93151 3412.8945 883.89062 z M 2429.9492 892.00977 C 2408.7382 892.89782 2394.938 901.2283 2364.2715 920.03711 C 2361.0004 920.69133 2341.3747 923.30882 2321.0938 925.27148 C 2235.3911 935.08477 2240.6243 930.50509 2202.0254 973.68359 C 2196.1374 983.49688 2185.6694 1009.0115 2181.7441 1024.0586 C 2174.5477 1058.078 2182.3985 1112.3783 2215.7637 1139.8555 C 2226.2312 1148.3604 2226.2326 1149.0144 2227.541 1155.5566 C 2234.0832 1197.4267 2283.8036 1234.7163 2324.3652 1247.1465 C 2329.599 1248.4549 2340.7196 1249.7637 2348.5703 1250.418 C 2380.627 1252.3806 2427.7306 1283.1289 2429.0391 1317.1484 C 2426.4222 1360.9811 2374.0844 1367.5235 2345.2988 1334.8125 C 2325.018 1319.1112 2306.0463 1263.5022 2284.457 1249.1094 C 2266.1389 1235.3708 2237.3535 1226.8657 2220.998 1230.1367 C 2194.175 1237.3332 2168.006 1257.6149 2168.6602 1287.709 C 2166.6975 1315.1862 2186.3237 1352.4752 2198.7539 1373.4102 C 2201.3708 1376.6813 2213.8023 1389.7671 2226.8867 1402.1973 C 2253.7097 1427.7119 2255.0179 1429.0198 2273.9902 1431.6367 C 2290.3457 1434.2536 2304.7385 1432.9446 2323.0566 1427.0566 C 2356.4218 1413.9723 2373.4314 1425.749 2404.1797 1434.2539 C 2431.0027 1438.8334 2474.1808 1421.8228 2500.3496 1409.3926 C 2526.5184 1396.3082 2539.6024 1381.2608 2546.7988 1356.4004 C 2549.4157 1347.8956 2555.9575 1327.6159 2559.8828 1317.1484 C 2560.537 1273.3156 2559.8845 1248.4549 2524.5566 1214.4355 C 2511.4722 1201.3511 2506.8924 1199.3887 2489.2285 1199.3887 C 2466.985 1199.3887 2427.7323 1209.2025 2410.0684 1203.3145 C 2387.1707 1197.4266 2360.3459 1183.6879 2345.9531 1169.9492 C 2319.1301 1149.0142 2311.9339 1077.0504 2330.252 1040.4141 C 2342.028 1016.2079 2366.2348 995.27297 2386.5156 991.34766 C 2410.7217 987.42234 2444.7418 989.38349 2457.1719 1011.627 C 2474.1816 1045.6464 2403.5247 1112.378 2447.3574 1154.9023 C 2464.3671 1171.2578 2495.1158 1179.1087 2516.0508 1173.2207 C 2516.705 1172.5665 2518.0139 1166.677 2519.9766 1160.7891 C 2532.4068 1104.5262 2563.1546 1104.5268 2582.127 1067.2363 C 2588.6692 1039.759 2593.2481 988.07604 2560.5371 970.41211 C 2523.2466 943.5891 2570.3509 910.87736 2481.377 897.79297 C 2458.0704 893.62232 2442.6758 891.47693 2429.9492 892.00977 z M 613.08008 892.88672 C 606.9161 892.64139 596.24408 898.28479 587.41211 907.60742 C 563.86021 929.85088 560.59013 973.68322 579.5625 1003.123 C 599.84331 1037.7967 604.42187 1055.4599 604.42188 1096.6758 C 607.69298 1141.8169 573.67508 1213.7814 567.78711 1264.8105 C 558.62803 1317.1481 563.20616 1328.9246 572.36523 1368.832 C 575.63633 1385.8417 577.60015 1391.7293 582.17969 1398.2715 C 599.1894 1417.8981 637.1341 1449.9555 664.61133 1436.8711 C 673.7704 1432.2916 686.20073 1421.1684 715.64062 1391.7285 C 745.08051 1362.2886 751.62163 1353.7836 756.20117 1340.6992 C 765.36025 1298.1749 754.23917 1274.6248 728.72461 1222.9414 C 710.40646 1186.3051 707.13469 1177.1446 706.48047 1160.7891 C 705.82625 1145.742 708.4428 1135.2755 720.21875 1103.873 C 735.2658 1063.3114 754.23972 976.29941 733.30469 948.16797 C 716.29499 914.80277 684.89177 887.3253 644.98438 896.48438 C 631.24577 898.44704 618.81624 898.44688 617.50781 895.17578 C 616.69004 893.70379 615.13474 892.9685 613.08008 892.88672 z M 1648.0547 892.88672 C 1641.8907 892.64139 1631.2187 898.28479 1622.3867 907.60742 C 1598.8348 929.85088 1595.5647 973.68322 1614.5371 1003.123 C 1634.8179 1037.7967 1639.3965 1055.4599 1639.3965 1096.6758 C 1642.6676 1141.8169 1608.6497 1213.7814 1602.7617 1264.8105 C 1593.6026 1317.1481 1598.1807 1328.9246 1607.3398 1368.832 C 1610.6109 1385.8417 1612.5748 1391.7293 1617.1543 1398.2715 C 1634.1641 1417.8981 1672.1087 1449.9555 1699.5859 1436.8711 C 1708.745 1432.2916 1721.1754 1421.1684 1750.6152 1391.7285 C 1780.0551 1362.2886 1786.5962 1353.7836 1791.1758 1340.6992 C 1800.3348 1298.1749 1789.2138 1274.6248 1763.6992 1222.9414 C 1745.3811 1186.3051 1742.1093 1177.1446 1741.4551 1160.7891 C 1740.8009 1145.742 1743.4174 1135.2755 1755.1934 1103.873 C 1770.2404 1063.3114 1789.2143 976.29941 1768.2793 948.16797 C 1751.2696 914.80277 1719.8664 887.3253 1679.959 896.48438 C 1666.2204 898.44704 1653.7908 898.44688 1652.4824 895.17578 C 1651.6646 893.70379 1650.1093 892.9685 1648.0547 892.88672 z M 891.60547 895.88281 C 887.65971 896.07703 884.26582 896.48445 881.8125 897.13867 C 781.71691 927.88699 744.42533 1073.7782 790.2207 1162.752 C 814.42683 1218.3607 818.35329 1251.7271 816.39062 1322.3828 C 815.7364 1338.0841 816.38898 1340.0458 819.00586 1347.8965 C 840.59511 1407.4305 879.84922 1427.0568 942.6543 1445.375 C 978.63637 1451.263 1016.5802 1434.9082 1050.5996 1418.5527 C 1099.0118 1391.7297 1140.8824 1343.3175 1153.9668 1286.4004 C 1166.397 1243.2219 1156.5832 1223.5949 1133.6855 1199.3887 C 1118.6384 1183.6875 1070.228 1181.724 1048.6387 1193.5 C 986.48784 1222.9398 1040.7868 1298.8301 1004.8047 1332.1953 C 991.72032 1342.6628 974.71143 1341.3542 962.28125 1330.2324 C 948.54264 1326.3071 949.19679 1278.5486 945.27148 1260.2305 C 940.69194 1242.5665 928.26066 1230.7918 902.74609 1220.9785 C 895.54968 1219.67 873.30618 1196.7726 869.38086 1190.2305 C 865.45554 1182.3798 864.14859 1168.6411 865.45703 1156.2109 C 871.99923 1103.2191 887.04463 1031.2542 934.14844 1000.5059 C 959.00879 981.53346 1004.8044 986.76786 1002.1875 1022.0957 C 1002.1875 1033.2174 1000.226 1039.1055 994.99219 1039.1055 C 965.55231 1043.0308 937.42077 1098.638 944.61719 1126.1152 C 947.23406 1137.8912 950.50506 1143.7805 960.31836 1154.248 C 1018.5439 1211.1651 1080.0401 1150.9764 1088.5449 1082.9375 C 1091.1618 1039.1048 1126.4899 1019.4789 1123.873 990.03906 C 1127.7983 958.63652 1066.3024 917.42094 1046.6758 909.57031 C 1024.4323 903.02811 988.4505 893.21375 966.20703 900.41016 C 951.8142 903.02704 949.19713 903.02688 931.5332 899.10156 C 920.24792 896.64824 903.44276 895.30015 891.60547 895.88281 z M 1884.3926 902.64844 C 1878.8419 902.61777 1873.1179 903.68195 1867.0664 906.29883 C 1861.1784 908.91571 1854.6365 910.87695 1853.3281 910.87695 C 1822.5798 927.88666 1820.6165 973.02781 1831.084 1010.3184 C 1838.9347 1033.8703 1851.3649 1060.6945 1849.4023 1086.8633 C 1849.4023 1122.1911 1846.1315 1141.1636 1834.3555 1170.6035 C 1818.6542 1209.2024 1811.4563 1252.3814 1822.5781 1289.6719 C 1844.1673 1347.8975 1769.5862 1419.2066 1853.9805 1448.6465 C 1876.8782 1451.2634 1893.2347 1439.4863 1928.5625 1439.4863 C 1993.9845 1432.9441 2014.9197 1452.5711 2079.0332 1442.7578 C 2108.4731 1439.4867 2115.0153 1436.2166 2128.7539 1418.5527 C 2151.6516 1387.8044 2156.2306 1360.3257 2140.5293 1323.6895 C 2132.6787 1302.1002 2123.5195 1293.5954 2106.5098 1290.9785 C 2069.8735 1285.7447 2048.9398 1312.5681 2035.2012 1343.9707 C 1978.2841 1320.4188 1952.7681 1366.8695 1923.9824 1353.1309 C 1912.8607 1347.8972 1906.9723 1342.6633 1903.7012 1336.1211 C 1899.7759 1330.8874 1900.4319 1299.4836 1903.0488 1293.5957 C 1922.0211 1245.8376 1959.9653 1244.5291 2013.6113 1258.9219 C 2042.397 1266.7725 2082.3049 1274.6245 2101.2773 1253.0352 C 2116.9786 1235.3713 2132.0245 1197.4267 2124.8281 1171.9121 C 2116.3233 1137.2385 2078.3778 1116.9578 2036.5078 1123.5 C 2022.1149 1125.4626 2016.228 1128.7333 1978.2832 1152.2852 C 1925.2914 1179.1082 1901.0843 1144.435 1920.7109 1090.1348 C 1924.6362 1077.0504 1927.9087 1071.1616 1932.4883 1067.2363 C 1946.2269 1058.7314 1990.0593 1051.5349 2012.957 1065.9277 C 2037.8173 1079.0121 2098.6586 1083.5911 2118.2852 1060.6934 C 2132.0238 1046.9548 2140.5293 1030.5999 2140.5293 1016.207 C 2144.4546 1003.1226 2118.9405 982.18821 2111.7441 971.7207 C 2109.7815 969.10382 2109.7812 937.70017 2109.7812 929.19531 C 2085.575 910.22294 2059.4063 911.53194 2026.6953 917.41992 C 1999.8723 923.3079 1966.5079 921.99977 1933.7969 920.03711 C 1916.133 912.67713 1901.0445 902.74043 1884.3926 902.64844 z M 346.49609 970.24805 C 353.20184 970.24805 356.4732 970.73937 361.05273 971.7207 C 389.83839 977.60867 410.7721 995.92664 416.00586 1020.1328 C 420.58539 1039.7593 416.00651 1056.1154 404.88477 1058.0781 C 402.2679 1058.0781 395.7254 1057.4236 385.91211 1055.4609 C 370.86506 1051.5356 342.7329 1048.9187 330.30273 1055.4609 C 318.52678 1061.3489 286.47032 1092.7517 283.19922 1090.7891 C 266.84373 1096.0228 235.44274 1089.4803 230.20898 1071.8164 C 240.02228 1049.5729 249.17953 1022.0957 247.87109 989.38477 C 247.87109 980.87991 247.87272 981.53259 261.61133 976.29883 C 270.11619 973.68196 273.38729 973.02914 311.33203 971.7207 C 329.65018 970.73937 339.79034 970.24805 346.49609 970.24805 z M 3482.252 1019.2422 C 3487.5266 1019.2729 3489.857 1020.133 3494.7637 1022.0957 C 3536.6338 1037.797 3547.7564 1071.8154 3535.3262 1112.377 C 3533.3636 1118.265 3528.7847 1128.7333 3524.8594 1135.9297 C 3512.4293 1151.631 3507.1944 1209.8552 3498.6895 1241.2578 C 3486.9136 1275.2772 3476.4455 1292.2886 3444.3887 1305.373 C 3426.7248 1312.5694 3413.6402 1311.9151 3410.3691 1303.4102 C 3408.4064 1299.4849 3409.0615 1296.867 3416.9121 1279.2031 C 3441.1182 1223.5945 3439.1559 1170.6035 3419.5293 1104.5273 C 3407.7533 1065.2741 3431.9602 1018.8243 3475.793 1019.4785 C 3478.4098 1019.315 3480.4937 1019.232 3482.252 1019.2422 z "
       xlink:href="#text2"
       id="path4"
       d="m 3147.0469,859.19531 c -9.6498,0 -20.2817,1.96141 -32.3848,5.88672 -17.0097,5.23376 -43.8322,10.46695 -61.4961,11.77539 -22.8977,1.30843 -35.9822,5.88819 -50.375,18.31836 -8.5049,7.19642 -11.776,7.85179 -34.0195,9.81445 -20.935,1.30844 -28.7861,3.27031 -37.291,9.8125 -8.5048,6.5422 -13.0845,13.73959 -17.0098,24.86133 -5.888,16.35549 -4.5787,26.16895 6.543,51.0293 5.888,12.43014 6.5427,15.04534 5.2343,35.32614 -1.3085,13.0844 -1.3101,14.3934 1.961,20.9356 4.5796,9.159 13.0848,18.3188 20.2812,22.2441 13.7386,6.5422 38.5995,2.6158 53.6465,-9.1601 12.4302,-9.1591 17.01,-19.626 18.9727,-44.4864 0.6542,-8.5048 2.6173,-17.66441 3.2715,-20.93551 4.5795,-11.77595 26.1688,-24.20562 49.7207,-28.78516 8.5049,-1.96266 11.7757,-1.96274 15.7011,-0.6543 6.5422,1.96266 6.5421,4.58029 -1.3086,22.89844 -7.8506,18.97243 -7.8509,28.13123 -1.9629,47.75783 5.888,16.3555 7.1969,30.7472 3.9258,41.2148 -4.5796,15.047 -18.3198,33.3659 -30.0957,38.5996 -5.2338,2.6169 -7.8496,2.6171 -23.5508,1.9629 -44.487,-0.6542 -44.4872,-1.3081 -52.3378,3.2715 -9.8133,4.5795 -22.897,17.6632 -26.8223,26.8223 -3.2711,8.5048 -3.2711,18.9734 0,25.5156 3.9253,7.8507 11.7754,12.4301 27.4766,15.7012 17.664,3.2711 46.4485,2.6166 74.58,-1.9629 20.935,-3.9254 32.0572,-4.5799 36.6368,-2.6172 1.9625,1.3084 2.6171,3.2703 2.6171,9.8125 0,9.159 -3.2705,19.6267 -11.1211,34.0195 -6.5422,13.0844 -9.1601,24.8602 -8.5058,32.0567 0.6542,2.6168 2.6174,9.8131 4.5801,15.7011 3.2711,10.4675 3.2713,11.1217 1.3086,15.7012 -5.8879,11.7759 -34.6742,21.5894 -54.3008,17.6641 -14.3928,-2.6169 -18.3171,-7.8506 -24.2051,-32.711 -5.2338,-23.5519 -8.5048,-30.747 -15.7012,-38.5976 -10.4675,-9.8133 -21.59,-12.4311 -39.9082,-7.1973 -17.0097,3.9253 -36.6359,14.3938 -46.4492,24.8613 -16.3555,15.0471 -26.1682,41.8686 -27.4766,70 -0.6542,15.0471 -0.6558,16.3564 2.6153,23.5528 5.2337,11.1217 14.3931,17.0103 35.3281,22.2441 20.2808,5.888 31.4024,6.5409 64.7676,5.8867 l 30.748,-1.3086 3.2715,3.2715 c 1.3084,1.9627 4.5804,5.8891 7.1973,9.1602 4.5795,7.1964 13.0832,12.4301 22.8965,15.0469 8.5048,1.9627 20.9366,1.9627 47.1054,0.6543 35.9821,-2.6169 44.4852,-5.8893 68.0371,-26.8243 21.5893,-18.3182 27.4789,-24.8603 30.75,-32.7109 4.5795,-9.1591 5.8864,-24.8592 2.6153,-39.252 -3.9253,-18.9724 -2.6155,-24.8606 11.7773,-52.9921 12.4302,-25.5145 14.3925,-31.4023 13.7383,-47.1036 -0.6542,-11.1217 -1.3091,-13.0851 -5.8887,-22.8984 -3.2711,-7.1964 -7.1961,-13.0848 -13.7383,-18.9727 -9.1591,-9.1591 -15.0465,-12.4297 -29.4394,-13.7382 -4.5795,-0.6542 -7.8516,-1.3087 -7.8516,-1.9629 0.6542,-0.6542 9.1594,-7.1961 18.9727,-14.3926 9.8133,-7.8506 20.2816,-16.3559 23.5527,-19.627 7.1964,-7.1965 12.43,-17.6634 15.0469,-28.7851 6.5422,-27.4772 -2.6164,-51.0302 -28.1309,-75.8906 -13.0844,-12.43018 -14.3945,-14.39167 -14.3945,-22.89652 0,-9.8133 3.9269,-20.28107 13.0859,-35.32812 13.0844,-21.58925 15.0469,-26.16943 15.0469,-38.59961 0,-9.15907 -0.6548,-11.77437 -4.5801,-19.625 -5.2338,-11.12174 -15.7004,-22.24476 -26.1679,-27.47852 -8.1778,-3.92531 -16.8464,-5.88672 -26.4961,-5.88672 z M 381.33203,876.20508 c -17.00971,-0.65422 -22.89693,1.30787 -43.17773,11.77539 -18.97237,9.15907 -24.20663,10.46672 -37.29102,9.8125 -27.47723,-2.61688 -70.00081,-30.09354 -109.9082,-11.77539 -81.12324,51.02913 -90.28292,139.34902 -71.31055,234.21092 9.15907,62.805 10.46728,74.5807 -1.96289,128.8809 -8.50485,30.7483 -9.15828,37.9441 -9.8125,60.1875 0.65422,49.0665 0.65323,113.835 41.21484,139.3496 58.22555,20.2808 101.40564,-87.665 96.17188,-145.8906 2.61688,-45.7953 -37.94468,-126.2651 17.00976,-154.3965 54.95446,-13.7386 42.52397,70.656 63.45899,102.0586 17.66393,34.0194 84.39371,143.9273 110.5625,173.3672 45.79537,38.5989 83.08531,-31.4023 77.85156,-79.8145 -1.30844,-115.1427 -51.68229,-98.7859 -90.28125,-171.4043 -13.73861,-22.2434 1.96138,-40.5616 22.24219,-49.0664 18.31815,-5.2338 53.64772,-11.1229 64.11523,-26.1699 25.51456,-24.8604 51.68318,-122.33841 15.04688,-159.62893 -49.72069,-52.99179 -70.6571,-58.87922 -143.92969,-61.49609 z m 887.41017,2.60547 c -14.1066,-0.644 -28.5818,0.82815 -46.7363,5.24414 -67.3846,23.55191 -31.4019,99.44134 6.5429,164.86331 17.6639,39.2532 -32.7109,106.6381 -32.7109,151.7793 1.3084,88.3196 -81.1234,189.07 14.3926,252.5293 35.9821,17.0097 85.7031,-17.6637 102.0586,-47.7578 8.5048,-16.3555 10.4668,-28.7868 10.4668,-58.2266 4.5795,-32.711 -22.2427,-77.1973 -9.8125,-110.5625 13.0844,-26.1687 63.4594,-34.6748 83.7402,-26.1699 61.4967,34.6736 -105.331,199.5376 52.3359,253.1836 28.1314,6.5422 80.4689,-6.5426 98.7871,-35.9825 5.8879,-10.4675 8.5061,-20.2797 9.8145,-41.2148 2.6169,-48.4122 -40.5626,-53.6468 -57.5723,-105.3301 -15.7013,-43.8327 24.8604,-105.9834 32.711,-147.1992 3.2711,-12.4302 9.8141,-26.8229 23.5527,-49.0664 26.823,-36.6363 26.1682,-117.10582 11.1211,-153.0879 -9.8133,-21.58925 -34.0193,-32.05618 -64.7676,-28.13086 -77.8521,8.50485 -100.7492,69.34621 -77.1972,139.34766 21.5891,83.7402 -9.1586,63.4597 -78.5059,69.3477 -5.2337,2.6169 -22.8987,11.7754 -24.8613,12.4296 -8.5049,-7.1964 -7.1969,-18.9706 -3.9258,-35.3261 9.8133,-35.3278 43.8334,-87.0124 38.5996,-125.61136 0.6542,-45.14115 -22.2443,-88.31976 -73.9277,-83.74023 -4.7431,-0.65422 -9.4033,-1.1037 -14.1055,-1.31836 z m 2144.1523,5.08007 c -13.2786,-0.12266 -25.9131,1.96402 -47.0117,7.36133 -18.3182,4.57953 -21.5882,5.23219 -23.5508,3.26953 -35.3279,-7.85063 -77.8525,43.83449 -69.3476,81.125 1.9626,12.43018 5.2336,20.27901 15.0468,34.67192 29.4399,46.4496 43.1777,106.6384 42.5235,170.7519 7.8506,66.7304 -39.2521,126.9195 -39.9063,189.7246 -1.3084,43.1785 11.1212,54.2998 44.4864,62.1504 37.2906,11.776 54.3003,-0.6553 83.7402,-25.5156 22.2434,-26.1688 49.0659,-25.5133 77.8516,-22.2422 72.6184,-3.9253 82.4318,-136.0786 100.0957,-189.7246 5.2337,-16.3555 14.3929,-32.0562 34.0195,-62.1504 50.3749,-76.5436 44.4879,-163.55401 -40.5606,-207.38672 -31.4025,-13.0844 -65.4224,7.19582 -103.3671,-21.58984 -20.935,-13.73861 -28.787,-17.01008 -60.1895,-19.62696 -4.9066,-0.49066 -9.4039,-0.77747 -13.8301,-0.81836 z m -982.9453,8.11915 c -21.211,0.88805 -35.0112,9.21853 -65.6777,28.02734 -3.2711,0.65422 -22.8968,3.27171 -43.1777,5.23437 -85.7027,9.81329 -80.4695,5.23361 -119.0684,48.41211 -5.888,9.81329 -16.356,35.32791 -20.2813,50.37501 -7.1964,34.0194 0.6544,88.3197 34.0196,115.7969 10.4675,8.5049 10.4689,9.1589 11.7773,15.7011 6.5422,41.8701 56.2626,79.1597 96.8242,91.5899 5.2338,1.3084 16.3544,2.6172 24.2051,3.2715 32.0567,1.9626 79.1603,32.7109 80.4688,66.7304 -2.6169,43.8327 -54.9547,50.3751 -83.7403,17.6641 -20.2808,-15.7013 -39.2525,-71.3103 -60.8418,-85.7031 -18.3181,-13.7386 -47.1035,-22.2437 -63.459,-18.9727 -26.823,7.1965 -52.992,27.4782 -52.3378,57.5723 -1.9627,27.4772 17.6635,64.7662 30.0937,85.7012 2.6169,3.2711 15.0484,16.3569 28.1328,28.7871 26.823,25.5146 28.1312,26.8225 47.1035,29.4394 16.3555,2.6169 30.7483,1.3079 49.0664,-4.5801 33.3652,-13.0843 50.3748,-1.3076 81.1231,7.1973 26.823,4.5795 70.0011,-12.4311 96.1699,-24.8613 26.1688,-13.0844 39.2528,-28.1318 46.4492,-52.9922 2.6169,-8.5048 9.1587,-28.7845 13.084,-39.252 0.6542,-43.8328 0,-68.6935 -35.3262,-102.7129 -13.0844,-13.0844 -17.6642,-15.0468 -35.3281,-15.0468 -22.2435,0 -61.4962,9.8138 -79.1601,3.9258 -22.8977,-5.8879 -49.7225,-19.6266 -64.1153,-33.3653 -26.823,-20.935 -34.0192,-92.8988 -15.7011,-129.5351 11.776,-24.2062 35.9828,-45.14113 56.2636,-49.06644 24.2061,-3.92532 58.2262,-1.96417 70.6563,20.27934 17.0097,34.0194 -53.6472,100.751 -9.8145,143.2753 17.0097,16.3555 47.7584,24.2064 68.6934,18.3184 0.6542,-0.6542 1.9631,-6.5437 3.9258,-12.4316 12.4302,-56.2629 43.178,-56.2623 62.1504,-93.5528 6.5422,-27.4773 11.1211,-79.16026 -21.5899,-96.82419 -37.2905,-26.82301 9.8138,-59.53475 -79.1601,-72.61914 -23.3066,-4.17065 -38.7012,-6.31604 -51.4278,-5.7832 z m -1816.86912,0.87695 c -6.16398,-0.24533 -16.836,5.39807 -25.66797,14.7207 -23.5519,22.24346 -26.82198,66.0758 -7.84961,95.51558 20.28081,34.6737 24.85937,52.3369 24.85938,93.5528 3.2711,45.1411 -30.7468,117.1056 -36.63477,168.1347 -9.15908,52.3376 -4.58095,64.1141 4.57812,104.0215 3.2711,17.0097 5.23492,22.8973 9.81446,29.4395 17.00971,19.6266 54.95441,51.684 82.43164,38.5996 9.15907,-4.5795 21.5894,-15.7027 51.02929,-45.1426 29.43989,-29.4399 35.98101,-37.9449 40.56055,-51.0293 9.15908,-42.5243 -1.962,-66.0744 -27.47656,-117.7578 -18.31815,-36.6363 -21.58992,-45.7968 -22.24414,-62.1523 -0.65422,-15.0471 1.96233,-25.5136 13.73828,-56.9161 15.04705,-40.5616 34.02097,-127.57359 13.08594,-155.70503 -17.0097,-33.3652 -48.41292,-60.84267 -88.32031,-51.68359 -13.73861,1.96266 -26.16814,1.9625 -27.47657,-1.3086 -0.81777,-1.47199 -2.37307,-2.20728 -4.42773,-2.28906 z m 1034.97462,0 c -6.164,-0.24533 -16.836,5.39807 -25.668,14.7207 -23.5519,22.24346 -26.822,66.0758 -7.8496,95.51558 20.2808,34.6737 24.8594,52.3369 24.8594,93.5528 3.2711,45.1411 -30.7468,117.1056 -36.6348,168.1347 -9.1591,52.3376 -4.581,64.1141 4.5781,104.0215 3.2711,17.0097 5.235,22.8973 9.8145,29.4395 17.0098,19.6266 54.9544,51.684 82.4316,38.5996 9.1591,-4.5795 21.5895,-15.7027 51.0293,-45.1426 29.4399,-29.4399 35.981,-37.9449 40.5606,-51.0293 9.159,-42.5243 -1.962,-66.0744 -27.4766,-117.7578 -18.3181,-36.6363 -21.5899,-45.7968 -22.2441,-62.1523 -0.6542,-15.0471 1.9623,-25.5136 13.7383,-56.9161 15.047,-40.5616 34.0209,-127.57359 13.0859,-155.70503 -17.0097,-33.3652 -48.4129,-60.84267 -88.3203,-51.68359 -13.7386,1.96266 -26.1682,1.9625 -27.4766,-1.3086 -0.8178,-1.47199 -2.3731,-2.20728 -4.4277,-2.28906 z m -756.44923,2.99609 c -3.94576,0.19422 -7.33965,0.60164 -9.79297,1.25586 -100.09559,30.74832 -137.38717,176.63953 -91.5918,265.61333 24.20613,55.6087 28.13259,88.9751 26.16992,159.6308 -0.65422,15.7013 -0.002,17.663 2.61524,25.5137 21.58925,59.534 60.84336,79.1603 123.64844,97.4785 35.98207,5.888 73.9259,-10.4668 107.9453,-26.8223 48.4122,-26.823 90.2828,-75.2352 103.3672,-132.1523 12.4302,-43.1785 2.6164,-62.8055 -20.2813,-87.0117 -15.0471,-15.7012 -63.4575,-17.6647 -85.0468,-5.8887 -62.15086,29.4398 -7.8519,105.3301 -43.834,138.6953 -13.08438,10.4675 -30.09327,9.1589 -42.52345,-1.9629 -13.73861,-3.9253 -13.08446,-51.6838 -17.00977,-70.0019 -4.57954,-17.664 -17.01082,-29.4387 -42.52539,-39.252 -7.19641,-1.3085 -29.43991,-24.2059 -33.36523,-30.748 -3.92532,-7.8507 -5.23227,-21.5894 -3.92383,-34.0196 6.5422,-52.9918 21.5876,-124.9567 68.69141,-155.705 24.86035,-18.97244 70.65596,-13.73804 68.03906,21.5898 0,11.1217 -1.9615,17.0098 -7.19531,17.0098 -29.43988,3.9253 -57.57142,59.5325 -50.375,87.0097 2.61687,11.776 5.88787,17.6653 15.70117,28.1328 58.22554,56.9171 119.72174,-3.2716 128.22654,-71.3105 2.6169,-43.8327 37.945,-63.4586 35.3281,-92.89844 3.9253,-31.40254 -57.5706,-72.61812 -77.1972,-80.46875 -22.2435,-6.5422 -58.2253,-16.35656 -80.46877,-9.16015 -14.39283,2.61688 -17.0099,2.61672 -34.67383,-1.3086 -11.28528,-2.45332 -28.09044,-3.80141 -39.92773,-3.21875 z m 992.78713,6.76563 c -5.5507,-0.0307 -11.2747,1.03351 -17.3262,3.65039 -5.888,2.61688 -12.4299,4.57812 -13.7383,4.57812 -30.7483,17.00971 -32.7116,62.15086 -22.2441,99.44145 7.8507,23.5519 20.2809,50.3761 18.3183,76.5449 0,35.3278 -3.2708,54.3003 -15.0468,83.7402 -15.7013,38.5989 -22.8992,81.7779 -11.7774,119.0684 21.5892,58.2256 -52.9919,129.5347 31.4024,158.9746 22.8977,2.6169 39.2542,-9.1602 74.582,-9.1602 65.422,-6.5422 86.3572,13.0848 150.4707,3.2715 29.4399,-3.2711 35.9821,-6.5412 49.7207,-24.2051 22.8977,-30.7483 27.4767,-58.227 11.7754,-94.8632 -7.8506,-21.5893 -17.0098,-30.0941 -34.0195,-32.711 -36.6363,-5.2338 -57.57,21.5896 -71.3086,52.9922 -56.9171,-23.5519 -82.4331,22.8988 -111.2188,9.1602 -11.1217,-5.2337 -17.0101,-10.4676 -20.2812,-17.0098 -3.9253,-5.2337 -3.2693,-36.6375 -0.6524,-42.5254 18.9723,-47.7581 56.9165,-49.0666 110.5625,-34.6738 28.7857,7.8506 68.6936,15.7026 87.666,-5.8867 15.7013,-17.6639 30.7472,-55.6085 23.5508,-81.1231 -8.5048,-34.6736 -46.4503,-54.9543 -88.3203,-48.4121 -14.3929,1.9626 -20.2798,5.2333 -58.2246,28.7852 -52.9918,26.823 -77.1989,-7.8502 -57.5723,-62.1504 3.9253,-13.0844 7.1978,-18.9732 11.7774,-22.8985 13.7386,-8.5049 57.571,-15.7014 80.4687,-1.3086 24.8603,13.0844 85.7016,17.6634 105.3282,-5.2343 13.7386,-13.7386 22.2441,-30.0935 22.2441,-44.4864 3.9253,-13.0844 -21.5888,-34.01879 -28.7852,-44.4863 -1.9626,-2.61688 -1.9629,-34.02053 -1.9629,-42.52539 -24.2062,-18.97237 -50.3749,-17.66337 -83.0859,-11.77539 -26.823,5.88798 -60.1874,4.57985 -92.8984,2.61719 -17.6639,-7.35998 -32.7524,-17.29668 -49.4043,-17.38867 z M 346.49609,970.24805 c 6.70575,0 9.97711,0.49132 14.55664,1.47265 28.78566,5.88797 49.71937,24.20594 54.95313,48.4121 4.57953,19.6265 6.5e-4,35.9826 -11.12109,37.9453 -2.61687,0 -9.15937,-0.6545 -18.97266,-2.6172 -15.04705,-3.9253 -43.17921,-6.5422 -55.60938,0 -11.77595,5.888 -43.83241,37.2908 -47.10351,35.3282 -16.35549,5.2337 -47.75648,-1.3088 -52.99024,-18.9727 9.8133,-22.2435 18.97055,-49.7207 17.66211,-82.43163 0,-8.50486 0.002,-7.85218 13.74024,-13.08594 8.50486,-2.61687 11.77596,-3.26969 49.7207,-4.57813 18.31815,-0.98133 28.45831,-1.47265 35.16406,-1.47265 z M 3482.252,1019.2422 c 5.2746,0.031 7.605,0.8908 12.5117,2.8535 41.8701,15.7013 52.9927,49.7197 40.5625,90.2813 -1.9626,5.888 -6.5415,16.3563 -10.4668,23.5527 -12.4301,15.7013 -17.665,73.9255 -26.1699,105.3281 -11.7759,34.0194 -22.244,51.0308 -54.3008,64.1152 -17.6639,7.1964 -30.7485,6.5421 -34.0196,-1.9628 -1.9627,-3.9253 -1.3076,-6.5432 6.543,-24.2071 24.2061,-55.6086 22.2438,-108.5996 2.6172,-174.6758 -11.776,-39.2532 12.4309,-85.703 56.2637,-85.0488 2.6168,-0.1635 4.7007,-0.2465 6.459,-0.2363 z"
       inkscape:label="path4"
       transform="translate(-28.014161,35.017701)" /><path
       style="font-size:400px;font-family:'LEQUA HYPER';-inkscape-font-specification:'LEQUA HYPER, Normal';text-align:center;text-anchor:middle;white-space:pre;shape-padding:50.3001;display:none;fill:#8875b5;stroke-width:1.63555"
       d="M 525.26107,937.70079 C 475.54038,884.709 454.60535,878.82102 381.33276,876.20415 c -17.00971,-0.65422 -22.89769,1.30843 -43.17849,11.77595 -18.97237,9.15907 -24.20613,10.46751 -37.29052,9.81329 -27.47723,-2.61688 -70.0015,-30.0941 -109.90889,-11.77595 -81.12324,51.02913 -90.28231,139.34876 -71.30994,234.21066 9.15907,62.805 10.46751,74.581 -1.96266,128.8812 -8.50485,30.7483 -9.15907,37.9448 -9.81329,60.1882 0.65422,49.0665 0.65422,113.8342 41.21583,139.3488 58.22555,20.2808 101.40404,-87.6654 96.17028,-145.891 2.61688,-45.7953 -37.94473,-126.2644 17.00971,-154.3958 54.95445,-13.7386 42.52428,70.6557 63.4593,102.0583 17.66393,34.0194 84.39433,143.9283 110.56312,173.3682 45.79537,38.5989 83.08588,-31.4026 77.85213,-79.8148 -1.30844,-115.1427 -51.68335,-98.7872 -90.28231,-171.4056 -13.73861,-22.2434 1.96266,-40.5616 22.24347,-49.0664 18.31815,-5.2338 53.64601,-11.1218 64.11352,-26.1688 25.51456,-24.8604 51.68335,-122.33909 15.04705,-159.62961 z M 404.88466,1058.0772 c -2.61687,0 -9.15907,-0.6542 -18.97236,-2.6169 -15.04705,-3.9253 -43.1785,-6.5422 -55.60867,0 -11.77595,5.888 -43.83271,37.2905 -47.10381,35.3279 -16.35549,5.2337 -47.75803,-1.3085 -52.99179,-18.9724 9.8133,-22.2435 18.97237,-49.7207 17.66393,-82.43166 0,-8.50486 0,-7.85064 13.73861,-13.0844 8.50486,-2.61687 11.77595,-3.27109 49.72069,-4.57953 36.6363,-1.96266 40.56162,-1.96266 49.72069,0 28.78566,5.88797 49.72069,24.20612 54.95445,48.41229 4.57953,19.6265 0,35.982 -11.12174,37.9447 z m 162.90167,206.7334 c -9.15908,52.3376 -4.57954,64.1135 4.57953,104.0209 3.2711,17.0097 5.23376,22.8977 9.8133,29.4399 17.00971,19.6266 54.95444,51.6833 82.43167,38.5989 9.15907,-4.5795 21.58924,-15.7012 51.02913,-45.1411 29.43988,-29.4399 35.98207,-37.9447 40.56161,-51.0291 9.15908,-42.5243 -1.96266,-66.0762 -27.47722,-117.7596 -18.31815,-36.6363 -21.58925,-45.7953 -22.24347,-62.1508 -0.65422,-15.0471 1.96266,-25.5146 13.73861,-56.9171 15.04705,-40.5616 34.01942,-127.57286 13.08439,-155.7043 -17.0097,-33.3652 -48.41225,-60.84242 -88.31964,-51.68335 -13.73861,1.96266 -26.16879,1.96266 -27.47722,-1.30844 -3.2711,-5.88797 -18.31815,0 -30.09411,12.43018 -23.5519,22.24346 -26.823,66.07618 -7.85063,95.51601 20.28081,34.6737 24.86034,52.3376 24.86034,93.5535 3.2711,45.1411 -30.74832,117.1053 -36.63629,168.1344 z m 222.43466,-102.0583 c 24.20613,55.6087 28.13144,88.9739 26.16878,159.6296 -0.65422,15.7013 0,17.6639 2.61688,25.5146 21.58925,59.534 60.84243,79.1605 123.64751,97.4787 35.98207,5.888 73.92684,-10.4675 107.94624,-26.823 48.4122,-26.823 90.2823,-75.2353 103.3667,-132.1524 12.4302,-43.1785 2.6169,-62.805 -20.2808,-87.0112 -15.0471,-15.7012 -63.4593,-17.6639 -85.0486,-5.8879 -62.15083,29.4398 -7.8506,105.3293 -43.8327,138.6945 -13.08437,10.4675 -30.09408,9.1591 -42.52426,-1.9627 -13.73861,-3.9253 -13.08439,-51.6833 -17.0097,-70.0014 -4.57954,-17.664 -17.00971,-29.4399 -42.52428,-39.2532 -7.19641,-1.3085 -29.43988,-24.2062 -33.3652,-30.7483 -3.92532,-7.8507 -5.23376,-21.5893 -3.92532,-34.0195 6.5422,-52.9918 21.58925,-124.9559 68.69306,-155.7042 24.86035,-18.9724 70.6557,-13.73864 68.0388,21.5892 0,11.1217 -1.9626,17.0097 -7.19638,17.0097 -29.43988,3.9253 -57.57132,59.534 -50.3749,87.0112 2.61687,11.776 5.88797,17.664 15.70127,28.1315 58.22551,56.9171 119.72221,-3.2711 128.22701,-71.31 2.6169,-43.8327 37.9448,-63.4593 35.3279,-92.89914 3.9253,-31.40254 -57.5713,-72.61838 -77.1979,-80.46901 -22.2435,-6.5422 -58.22557,-16.35549 -80.46904,-9.15908 -14.39283,2.61688 -17.00971,2.61688 -34.67364,-1.30844 -15.04705,-3.2711 -39.90739,-4.57954 -49.72069,-1.96266 -100.09559,30.74832 -137.38611,176.63933 -91.59074,265.61313 z m 438.32731,-113.8342 c 17.6639,39.2532 -32.711,106.6378 -32.711,151.779 1.3084,88.3196 -81.1232,189.0694 14.3928,252.5287 35.9821,17.0097 85.7028,-17.6639 102.0583,-47.758 8.5048,-16.3555 10.4675,-28.7857 10.4675,-58.2255 4.5795,-32.711 -22.2435,-77.198 -9.8133,-110.5632 13.0844,-26.1687 63.4593,-34.6736 83.7401,-26.1687 61.4967,34.6736 -105.3293,199.5369 52.3376,253.1829 28.1314,6.5422 80.469,-6.5421 98.7872,-35.982 5.8879,-10.4675 8.5048,-20.2808 9.8132,-41.2159 2.6169,-48.4122 -40.5616,-53.646 -57.5713,-105.3293 -15.7013,-43.8327 24.8604,-105.9836 32.711,-147.1994 3.2711,-12.4302 9.8133,-26.823 23.5519,-49.0665 26.823,-36.6363 26.1688,-117.10531 11.1217,-153.08739 -9.8133,-21.58925 -34.0194,-32.05676 -64.7677,-28.13144 -77.8521,8.50485 -100.7498,69.34728 -77.1979,139.34873 21.5892,83.7402 -9.1591,63.4593 -78.5064,69.3473 -5.2337,2.6169 -22.8977,11.776 -24.8603,12.4302 -8.5049,-7.1964 -7.1964,-18.9724 -3.9253,-35.3279 9.8133,-35.3278 43.8327,-87.0112 38.5989,-125.61013 0.6542,-45.14115 -22.2434,-88.31964 -73.9268,-83.74011 -18.9724,-2.61688 -36.6363,-1.96266 -60.8424,3.92532 -67.3846,23.55191 -31.4026,99.44138 6.5422,164.86332 z m 374.2126,215.8925 c -9.1591,52.3376 -4.5795,64.1135 4.5796,104.0209 3.2711,17.0097 5.2337,22.8977 9.8132,29.4399 17.0098,19.6266 54.9545,51.6833 82.4317,38.5989 9.1591,-4.5795 21.5893,-15.7012 51.0291,-45.1411 29.4399,-29.4399 35.9821,-37.9447 40.5617,-51.0291 9.159,-42.5243 -1.9627,-66.0762 -27.4773,-117.7596 -18.3181,-36.6363 -21.5892,-45.7953 -22.2434,-62.1508 -0.6542,-15.0471 1.9626,-25.5146 13.7386,-56.9171 15.047,-40.5616 34.0194,-127.57286 13.0844,-155.7043 -17.0097,-33.3652 -48.4123,-60.84242 -88.3197,-51.68335 -13.7386,1.96266 -26.1688,1.96266 -27.4772,-1.30844 -3.2711,-5.88797 -18.3181,0 -30.0941,12.43018 -23.5519,22.24346 -26.823,66.07618 -7.8506,95.51601 20.2808,34.6737 24.8603,52.3376 24.8603,93.5535 3.2711,45.1411 -30.7483,117.1053 -36.6363,168.1344 z m 503.7493,26.1688 c -36.6363,-5.2338 -57.5714,21.5892 -71.31,52.9918 -56.9171,-23.5519 -82.4316,22.8976 -111.2173,9.159 -11.1217,-5.2337 -17.0097,-10.4675 -20.2808,-17.0097 -3.9253,-5.2337 -3.2711,-36.6363 -0.6542,-42.5242 18.9723,-47.7581 56.9171,-49.0665 110.5631,-34.6737 28.7857,7.8506 68.693,15.7013 87.6654,-5.888 15.7013,-17.6639 30.7483,-55.6086 23.5519,-81.1232 -8.5048,-34.6736 -46.4496,-54.9544 -88.3196,-48.4122 -14.3929,1.9626 -20.2808,5.2337 -58.2256,28.7856 -52.9918,26.823 -77.1979,-7.8506 -57.5713,-62.1508 3.9253,-13.0844 7.1964,-18.9724 11.776,-22.8977 13.7386,-8.5049 57.5713,-15.7013 80.469,-1.3085 24.8603,13.0844 85.7027,17.664 105.3293,-5.2337 13.7386,-13.7386 22.2435,-30.0941 22.2435,-44.487 3.9253,-13.0844 -21.5893,-34.01938 -28.7857,-44.48689 -1.9626,-2.61688 -1.9626,-34.01942 -1.9626,-42.52428 -24.2062,-18.97237 -50.3749,-17.66393 -83.0859,-11.77595 -26.823,5.88798 -60.1882,4.57954 -92.8992,2.61688 -23.5519,-9.8133 -42.5243,-24.20613 -66.7304,-13.73861 -5.888,2.61688 -12.4302,4.57953 -13.7386,4.57953 -30.7483,17.00971 -32.711,62.15087 -22.2435,99.44142 7.8507,23.5519 20.2808,50.3749 18.3182,76.5437 0,35.3278 -3.2711,54.3002 -15.0471,83.7401 -15.7013,38.5989 -22.8977,81.7774 -11.7759,119.0679 21.5892,58.2256 -52.9918,129.5355 31.4025,158.9754 22.8977,2.6169 39.2532,-9.1591 74.581,-9.1591 65.422,-6.5422 86.357,13.0844 150.4705,3.2711 29.4399,-3.2711 35.9821,-6.5422 49.7207,-24.2061 22.8977,-30.7483 27.4773,-58.2256 11.776,-94.8618 -7.8506,-21.5893 -17.0097,-30.0941 -34.0194,-32.711 z m 454.0277,-320.56763 c -37.2905,-26.82301 9.8133,-59.53399 -79.1606,-72.61838 -62.1508,-11.12173 -68.0388,-7.85063 -117.1053,22.24347 -3.2711,0.65422 -22.8976,3.2711 -43.1785,5.23376 -85.7027,9.81329 -80.469,5.23375 -119.0679,48.41225 -5.888,9.81329 -16.3555,35.32783 -20.2808,50.37493 -7.1964,34.0194 0.6542,88.3196 34.0194,115.7968 10.4675,8.5049 10.4675,9.1591 11.7759,15.7013 6.5422,41.8701 56.2629,79.1606 96.8245,91.5908 5.2338,1.3084 16.3555,2.6168 24.2062,3.2711 32.0567,1.9626 79.1605,32.7109 80.469,66.7304 -2.6169,43.8327 -54.9545,50.3749 -83.7401,17.6639 -20.2808,-15.7013 -39.2532,-71.31 -60.8425,-85.7028 -18.3181,-13.7386 -47.1038,-22.2434 -63.4593,-18.9724 -26.823,7.1965 -52.9917,27.4773 -52.3375,57.5714 -1.9627,27.4772 17.6639,64.7677 30.0941,85.7027 2.6169,3.2711 15.047,16.3555 28.1314,28.7857 26.823,25.5146 28.1315,26.823 47.1038,29.4399 16.3555,2.6169 30.7484,1.3084 49.0665,-4.5796 33.3652,-13.0843 50.3749,-1.3084 81.1232,7.1965 26.823,4.5795 70.0015,-12.4302 96.1703,-24.8604 26.1688,-13.0844 39.2532,-28.1314 46.4496,-52.9918 2.6169,-8.5048 9.1591,-28.7856 13.0844,-39.2531 0.6542,-43.8328 0,-68.6931 -35.3279,-102.7125 -13.0844,-13.0844 -17.6639,-15.0471 -35.3278,-15.0471 -22.2435,0 -61.4967,9.8133 -79.1606,3.9253 -22.8977,-5.8879 -49.7207,-19.6265 -64.1135,-33.3652 -26.823,-20.935 -34.0194,-92.8991 -15.7013,-129.5354 11.776,-24.2062 35.9821,-45.14119 56.2629,-49.0665 24.2061,-3.92532 58.2256,-1.96266 70.6557,20.2808 17.0097,34.0194 -53.646,100.7498 -9.8133,143.2741 17.0097,16.3555 47.7581,24.2061 68.6931,18.3181 0.6542,-0.6542 1.9626,-6.5422 3.9253,-12.4301 12.4302,-56.2629 43.1785,-56.2629 62.1509,-93.5534 6.5422,-27.4773 11.1217,-79.1606 -21.5893,-96.82453 z m 419.3553,406.92463 30.7483,-1.3085 3.2711,3.2711 c 1.3084,1.9627 4.5795,5.888 7.1964,9.1591 4.5795,7.1964 13.0844,12.4302 22.8977,15.047 8.5048,1.9627 20.935,1.9627 47.1038,0.6543 35.9821,-2.6169 44.4869,-5.888 68.0388,-26.823 21.5893,-18.3182 27.4773,-24.8604 30.7484,-32.711 4.5795,-9.1591 5.8879,-24.8604 2.6168,-39.2532 -3.9253,-18.9724 -2.6168,-24.8603 11.776,-52.9918 12.4302,-25.5145 14.3928,-31.4025 13.7386,-47.1038 -0.6542,-11.1217 -1.3084,-13.0844 -5.888,-22.8977 -3.2711,-7.1964 -7.1964,-13.0844 -13.7386,-18.9723 -9.1591,-9.1591 -15.047,-12.4302 -29.4399,-13.7387 -4.5795,-0.6542 -7.8506,-1.3084 -7.8506,-1.9626 0.6542,-0.6542 9.1591,-7.1964 18.9724,-14.3929 9.8133,-7.8506 20.2808,-16.3554 23.5519,-19.6265 7.1964,-7.1965 12.4301,-17.664 15.047,-28.7857 6.5422,-27.4772 -2.6169,-51.0291 -28.1314,-75.8895 -13.0844,-12.43015 -14.3928,-14.39281 -14.3928,-22.89766 0,-9.8133 3.9253,-20.28081 13.0843,-35.32786 13.0844,-21.58925 15.0471,-26.16878 15.0471,-38.59896 0,-9.15907 -0.6542,-11.77595 -4.5795,-19.62658 -5.2338,-11.12174 -15.7013,-22.24347 -26.1688,-27.47723 -16.3555,-7.85063 -34.6737,-7.85063 -58.8798,0 -17.0097,5.23376 -43.8327,10.46752 -61.4966,11.77596 -22.8977,1.30843 -35.9821,5.88797 -50.3749,18.31814 -8.5049,7.19642 -11.776,7.85064 -34.0195,9.8133 -20.935,1.30844 -28.7856,3.2711 -37.2905,9.81329 -8.5048,6.5422 -13.0844,13.73861 -17.0097,24.86035 -5.888,16.35549 -4.5795,26.16878 6.5422,51.02913 5.888,12.43012 6.5422,15.04702 5.2338,35.32782 -1.3085,13.0844 -1.3085,14.3929 1.9626,20.9351 4.5796,9.159 13.0844,18.3181 20.2808,22.2434 13.7386,6.5422 38.599,2.6169 53.646,-9.159 12.4302,-9.1591 17.0097,-19.6266 18.9724,-44.487 0.6542,-8.5048 2.6169,-17.66391 3.2711,-20.93501 4.5795,-11.77595 26.1688,-24.20612 49.7207,-28.78566 8.5049,-1.96266 11.7759,-1.96266 15.7013,-0.65422 6.5422,1.96266 6.5422,4.57954 -1.3085,22.89769 -7.8506,18.9724 -7.8506,28.1314 -1.9626,47.758 5.8879,16.3555 7.1964,30.7483 3.9253,41.2159 -4.5796,15.047 -18.3182,33.3652 -30.0941,38.5989 -5.2338,2.6169 -7.8507,2.6169 -23.5519,1.9627 -44.487,-0.6542 -44.487,-1.3085 -52.3376,3.2711 -9.8133,4.5795 -22.8977,17.6639 -26.823,26.823 -3.2711,8.5048 -3.2711,18.9723 0,25.5145 3.9253,7.8507 11.776,12.4302 27.4772,15.7013 17.664,3.2711 46.4496,2.6169 74.5811,-1.9626 20.935,-3.9254 32.0567,-4.5796 36.6363,-2.6169 1.9626,1.3084 2.6168,3.2711 2.6168,9.8133 0,9.159 -3.2711,19.6266 -11.1217,34.0194 -6.5422,13.0844 -9.1591,24.8603 -8.5048,32.0568 0.6542,2.6168 2.6168,9.8132 4.5795,15.7012 3.2711,10.4675 3.2711,11.1218 1.3084,15.7013 -5.8879,11.7759 -34.6736,21.5892 -54.3002,17.6639 -14.3928,-2.6169 -18.3181,-7.8506 -24.2061,-32.711 -5.2338,-23.5519 -8.5049,-30.7483 -15.7013,-38.5989 -10.4675,-9.8133 -21.5892,-12.4302 -39.9074,-7.1964 -17.0097,3.9253 -36.6363,14.3928 -46.4496,24.8603 -16.3555,15.0471 -26.1688,41.8701 -27.4772,70.0015 -0.6542,15.0471 -0.6542,16.3555 2.6169,23.5519 5.2337,11.1217 14.3928,17.0097 35.3278,22.2435 20.2808,5.888 31.4026,6.5422 64.7678,5.888 z m 610.3872,-451.41156 c -31.4026,-13.0844 -65.422,7.19641 -103.3667,-21.58925 -20.935,-13.73861 -28.7857,-17.00971 -60.1882,-19.62659 -19.6266,-1.96266 -32.711,-0.65422 -60.8424,6.5422 -18.3182,4.57953 -21.5893,5.23375 -23.5519,3.27109 -35.3279,-7.85063 -77.8522,43.83272 -69.3473,81.12323 1.9626,12.43018 5.2337,20.28081 15.047,34.67368 29.4399,46.4496 43.1785,106.6378 42.5243,170.7513 7.8506,66.7304 -39.2532,126.9186 -39.9074,189.7237 -1.3084,43.1785 11.1217,54.3002 44.4869,62.1508 37.2906,11.776 54.3003,-0.6542 83.7402,-25.5145 22.2434,-26.1688 49.0664,-25.5146 77.8521,-22.2435 72.6184,-3.9253 82.4317,-136.0777 100.0956,-189.7237 5.2337,-16.3555 14.3928,-32.0567 34.0194,-62.1509 50.3749,-76.5436 44.4869,-163.55485 -40.5616,-207.38756 z m -54.9545,186.45256 c -1.9626,5.888 -6.5422,16.3555 -10.4675,23.5519 -12.4301,15.7013 -17.6639,73.9268 -26.1688,105.3294 -11.7759,34.0194 -22.2434,51.0291 -54.3002,64.1135 -17.6639,7.1964 -30.7483,6.5422 -34.0194,-1.9627 -1.9627,-3.9253 -1.3084,-6.5422 6.5422,-24.2061 24.2061,-55.6086 22.2435,-108.6004 2.6169,-174.6766 -11.776,-39.2532 12.4301,-85.7028 56.2629,-85.0486 10.4675,-0.6542 12.4301,0 18.9723,2.6169 41.8701,15.7013 52.9918,49.7207 40.5616,90.2823 z"
       id="text2"
       inkscape:label="Purple"
       inkscape:transform-center-x="-19.855562"
       inkscape:transform-center-y="-188.62793"
       aria-label="Richies 3D" /><text
       xml:space="preserve"
       transform="matrix(1.3634901,0,0,1.3634901,-2514.7793,-1071.9293)"
       id="text1"
       style="font-size:95.99999726px;font-family:'LEQUA HYPER';-inkscape-font-specification:'LEQUA HYPER, Normal';text-align:center;letter-spacing:0px;word-spacing:0px;writing-mode:lr-tb;direction:ltr;white-space:pre;shape-inside:url(#rect3);fill:#eeeeee;fill-opacity:0;fill-rule:evenodd;stroke-width:1.00157;font-weight:normal;font-style:normal;font-stretch:normal;font-variant:normal;font-variant-ligatures:normal;font-variant-caps:normal;font-variant-numeric:normal;font-variant-east-asian:normal"><tspan
         x="2953.7794"
         y="2065.5901"
         id="tspan1">Richies 3D</tspan></text></g></svg>
