<?xml version="1.0" encoding="UTF-8" standalone="no"?>
<!-- Created with Inkscape (http://www.inkscape.org/) -->

<svg
   width="3840"
   height="3840"
   viewBox="0 0 3840 3840"
   version="1.1"
   id="svg1"
   xml:space="preserve"
   sodipodi:docname="Richies 3D new logo.svg"
   inkscape:export-filename="Richies 3D new logo 2.png"
   inkscape:export-xdpi="96"
   inkscape:export-ydpi="96"
   xmlns:inkscape="http://www.inkscape.org/namespaces/inkscape"
   xmlns:sodipodi="http://sodipodi.sourceforge.net/DTD/sodipodi-0.dtd"
   xmlns:xlink="http://www.w3.org/1999/xlink"
   xmlns="http://www.w3.org/2000/svg"
   xmlns:svg="http://www.w3.org/2000/svg"><sodipodi:namedview
     id="namedview1"
     pagecolor="#ccb5e9"
     bordercolor="#000000"
     borderopacity="0.25"
     inkscape:showpageshadow="2"
     inkscape:pageopacity="0.0"
     inkscape:pagecheckerboard="0"
     inkscape:deskcolor="#d1d1d1"
     inkscape:document-units="px"
     inkscape:zoom="0.28556983"
     inkscape:cx="1735.1272"
     inkscape:cy="775.64215"
     inkscape:window-width="2056"
     inkscape:window-height="1286"
     inkscape:window-x="0"
     inkscape:window-y="43"
     inkscape:window-maximized="0"
     inkscape:current-layer="layer1"
     inkscape:lockguides="false"
     showguides="false"
     inkscape:export-bgcolor="#ccb5e9ff" /><defs
     id="defs1" /><g
     id="g10"
     style="display:inline;overflow:visible;color-interpolation-filters:sRGB"
     transform="matrix(3.5169106,0,0,3.5169106,1019.6709,78.378276)"
     inkscape:label="Icon"
     fill="#f7dbf0"><path
       d="m 380.998,120.491 c 0,-0.146 0.002,-19.88 0.002,-20.032 h 20 c 19.299,0 35,-15.701 35,-35 0,-19.299 -15.701,-35 -35,-35 -47.872,0 -251.796,0 -280,0 -19.299,0 -35,15.701 -35,35 0,19.299 15.701,35 35,35 h 20 v 20 c 0.038,1.33 0.208,2.413 0.708,3.68 0.729,1.836 1.961,3.375 3.479,4.457 L 211,175.605 v 24.854 c 0,3.147 1.482,6.111 4,8 l 36,27 v 59.227 c -74.818,43.209 -69.333,39.996 -70.233,40.672 -2.473,1.94 -3.843,4.909 -3.843,7.875 v 85.543 c 0,3.573 1.906,6.874 5,8.66 79.233,45.744 74.368,42.996 75.314,43.375 2.756,1.125 5.992,0.961 8.683,-0.563 0.47,-0.261 60.801,-35.098 74.166,-42.813 3.095,-1.786 5.001,-5.087 5.001,-8.66 -0.031,-90.459 0.078,-85.601 -0.087,-86.854 -0.084,-0.669 -0.302,-1.541 -0.612,-2.334 -0.741,-1.862 -1.696,-3.024 -3.205,-4.282 -1.086,-0.835 2.399,1.324 -70.184,-40.62 v -59.227 l 36,-27 c 2.519,-1.889 4,-4.853 4,-8 v -24.854 c 69.436,-49.669 65.941,-46.946 67.063,-48.067 1.86,-1.86 2.927,-4.422 2.935,-7.046 z M 416,65.459 c 0,8.271 -6.729,15 -15,15 h -20 v -30 h 20 c 8.271,0 15,6.729 15,15 z m -55,45 H 161 c 0,-5.264 0,-44.869 0,-60 h 200 c 0,9.1 0,44.229 0,60 z m -240,-30 c -8.271,0 -15,-6.729 -15,-15 0,-8.271 6.729,-15 15,-15 h 20 v 30 z M 261,374.457 206.922,343.232 261,312.006 315.087,343.233 Z M 196.924,360.554 251,391.777 v 62.449 L 196.924,423.001 Z M 271,454.229 v -62.451 l 54.088,-31.226 v 62.45 z m 20,-258.77 -30,22.5 -30,-22.5 v -15 h 60 z m 6.795,-35 h -73.59 l -42,-30 h 157.59 z"
       id="path2"
       inkscape:label="path2"
       style="fill:#8875b5;fill-opacity:1"
       fill="#f7dbf0" /><path
       d="m 191,80.459 h 110 c 5.522,0 10,-4.477 10,-10 0,-5.523 -4.478,-10 -10,-10 H 191 c -5.523,0 -10,4.477 -10,10 0,5.523 4.477,10 10,10 z"
       id="path3"
       fill="#f7dbf0"
       style="fill:#ccefe9;fill-opacity:1" /><circle
       cx="331"
       cy="70.459"
       r="10"
       id="circle3"
       style="fill:#8875b5;fill-opacity:1"
       fill="#f7dbf0" /><circle
       cx="451"
       cy="140.459"
       r="10"
       id="circle4"
       style="fill:#8875b5;fill-opacity:1"
       fill="#f7dbf0"
       inkscape:label="circle4" /><circle
       cx="341"
       cy="250.459"
       r="10"
       id="circle5"
       style="fill:#8875b5;fill-opacity:1;fill-rule:evenodd"
       fill="#f7dbf0" /><circle
       cx="441"
       cy="360.45901"
       r="10"
       id="circle6"
       style="fill:#8875b5;fill-opacity:1"
       fill="#f7dbf0" /><circle
       cx="121"
       cy="390.45901"
       r="10"
       id="circle7"
       inkscape:label="circle7"
       style="fill:#8875b5;fill-opacity:1"
       fill="#f7dbf0" /><circle
       cx="161"
       cy="210.459"
       r="10"
       id="circle8"
       style="fill:#8875b5;fill-opacity:1"
       fill="#f7dbf0"
       inkscape:label="circle8" /><circle
       cx="61"
       cy="130.459"
       r="10"
       id="circle9"
       style="fill:#8875b5;fill-opacity:1"
       fill="#f7dbf0"
       inkscape:label="circle9" /><path
       d="m 101,250.458 c -16.542,0 -30,13.458 -30,30 0,16.542 13.458,30 30,30 16.542,0 30,-13.458 30,-30 0,-16.542 -13.458,-30 -30,-30 z m 0,40.001 c -5.514,0 -10,-4.486 -10,-10 0,-5.514 4.486,-10 10,-10 5.514,0 10,4.486 10,10 0,5.514 -4.486,10 -10,10 z"
       id="path9"
       inkscape:label="path9"
       fill="#f7dbf0"
       style="fill:#ccefe9;fill-opacity:1" /><path
       d="m 421,180.459 c -22.056,0 -40,17.944 -40,40 0,22.056 17.944,40 40,40 22.056,0 40,-17.944 40,-40 0,-22.056 -17.944,-40 -40,-40 z m 0,60 c -11.028,0 -20,-8.972 -20,-20 0,-11.028 8.972,-20 20,-20 11.028,0 20,8.972 20,20 0,11.028 -8.972,20 -20,20 z"
       id="path10"
       fill="#f7dbf0"
       inkscape:label="path10"
       style="fill:#ccefe9;fill-opacity:1" /></g><g
     inkscape:label="Layer 1"
     inkscape:groupmode="layer"
     id="layer1"
     transform="translate(52.9757,296.54106)"
     style="display:inline"><path
       d="m 1971.3272,424.303 c -25.3333,-26.99997 -36,-29.99997 -73.3333,-31.3333 -8.6666,-0.33334 -11.6666,0.66666 -21.9999,5.99999 -9.6667,4.66666 -12.3334,5.33333 -19,5 -14,-1.33334 -35.6667,-15.33332 -56,-6 -41.3333,25.99998 -45.9999,70.99993 -36.3333,119.33322 4.6667,31.99997 5.3334,37.99996 -1,65.6666 -4.3333,15.66665 -4.6666,19.33332 -5,30.66664 0.3334,24.99997 0.3334,57.99994 21,70.99993 29.6667,10.33332 51.6666,-44.66662 49,-74.33326 1.3333,-23.33331 -19.3333,-64.33327 8.6666,-78.66659 28,-6.99999 21.6667,35.99996 32.3333,51.99995 9,17.33331 43,73.33326 56.3333,88.33324 23.3333,19.66665 42.3333,-15.99998 39.6666,-40.66662 -0.6666,-58.66661 -26.3333,-50.33329 -45.9999,-87.33325 -7,-11.33332 1,-20.66665 11.3333,-24.99998 9.3333,-2.66666 27.3333,-5.66666 32.6666,-13.33332 13,-12.66665 26.3333,-62.33327 7.6667,-81.33325 z m -61.3333,61.33327 c -1.3333,0 -4.6666,-0.33333 -9.6666,-1.33333 -7.6667,-2 -22,-3.33333 -28.3333,0 -6,3 -22.3334,18.99998 -24,17.99998 -8.3333,2.66667 -24.3333,-0.66666 -27,-9.66665 5,-11.33333 9.6667,-25.33331 9,-41.99996 0,-4.33333 0,-4 7,-6.66666 4.3333,-1.33333 6,-1.66667 25.3333,-2.33333 18.6667,-1 20.6666,-1 25.3333,0 14.6667,2.99999 25.3333,12.33332 28,24.66664 2.3333,9.99999 0,18.33331 -5.6667,19.33331 z m 83.0004,105.33323 c -4.6667,26.66664 -2.3333,32.66664 2.3333,52.99995 1.6667,8.66666 2.6667,11.66666 5,14.99999 8.6667,9.99999 28,26.3333 42,19.66664 4.6667,-2.33333 11,-7.99999 26,-22.99997 14.9999,-14.99999 18.3333,-19.33332 20.6666,-25.99998 4.6667,-21.66664 -1,-33.66663 -14,-59.99994 -9.3333,-18.66665 -11,-23.33331 -11.3333,-31.66663 -0.3333,-7.66666 1,-12.99999 7,-28.99998 7.6667,-20.66664 17.3333,-64.99993 6.6667,-79.33325 -8.6667,-16.99999 -24.6667,-30.99997 -45,-26.33331 -7,1 -13.3333,1 -14,-0.66667 -1.6667,-2.99999 -9.3333,0 -15.3333,6.33333 -12,11.33332 -13.6667,33.66664 -4,48.66662 10.3333,17.66665 12.6667,26.66664 12.6667,47.66662 1.6666,22.99998 -15.6667,59.66661 -18.6667,85.66658 z m 113.3332,-51.99995 c 12.3333,28.33331 14.3333,45.33329 13.3333,81.33326 -0.3333,7.99999 0,8.99999 1.3333,12.99999 11,30.3333 31,40.33329 63,49.66661 18.3333,3 37.6666,-5.33332 54.9999,-13.66665 24.6667,-13.66665 46,-38.3333 52.6666,-67.33327 6.3334,-21.99998 1.3334,-31.99997 -10.3333,-44.33329 -7.6667,-7.99999 -32.3333,-8.99999 -43.3333,-2.99999 -31.6666,14.99998 -4,53.66661 -22.3333,70.66659 -6.6667,5.33333 -15.3333,4.66667 -21.6666,-1 -7,-1.99999 -6.6667,-26.3333 -8.6667,-35.66663 -2.3333,-8.99999 -8.6667,-14.99998 -21.6666,-19.99998 -3.6667,-0.66666 -15,-12.33332 -17,-15.66665 -2,-4 -2.6667,-10.99999 -2,-17.33332 3.3333,-26.99997 11,-63.6666 34.9999,-79.33325 12.6667,-9.66666 36,-6.99999 34.6667,10.99999 0,5.66666 -1,8.66666 -3.6667,8.66666 -15,1.99999 -29.3333,30.3333 -25.6666,44.33329 1.3333,5.99999 3,8.99999 8,14.33332 29.6666,28.99997 60.9999,-1.66667 65.3332,-36.3333 1.3334,-22.33331 19.3333,-32.3333 18,-47.33329 2,-15.99998 -29.3333,-36.99996 -39.3333,-40.99996 -11.3333,-3.33333 -29.6666,-8.33332 -40.9999,-4.66666 -7.3334,1.33333 -8.6667,1.33333 -17.6667,-0.66667 -7.6667,-1.66666 -20.3333,-2.33333 -25.3333,-1 -51,15.66665 -69.9999,89.99992 -46.6666,135.3332 z m 223.3332,-57.99994 c 9,19.99998 -16.6666,54.33328 -16.6666,77.33326 0.6666,44.99996 -41.3333,96.33324 7.3333,128.66654 18.3333,8.66666 43.6666,-8.99999 52,-24.33331 4.3333,-8.33332 5.3333,-14.66665 5.3333,-29.66664 2.3333,-16.66665 -11.3333,-39.33329 -5,-56.33328 6.6666,-13.33332 32.3333,-17.66664 42.6666,-13.33332 31.3333,17.66665 -53.6666,101.66657 26.6667,128.99988 14.3333,3.33333 40.9999,-3.33333 50.3332,-18.33332 3,-5.33333 4.3334,-10.33332 5,-20.99998 1.3334,-24.66664 -20.6666,-27.3333 -29.3333,-53.66661 -8,-22.33331 12.6667,-53.99995 16.6667,-74.99993 1.6666,-6.33332 5,-13.66665 12,-24.99997 13.6666,-18.66665 13.3333,-59.66661 5.6666,-77.99993 -5,-10.99999 -17.3333,-16.33331 -32.9999,-14.33332 -39.6667,4.33333 -51.3333,35.3333 -39.3333,70.99993 11,42.66663 -4.6667,32.33331 -40,35.3333 -2.6667,1.33333 -11.6667,6 -12.6667,6.33333 -4.3333,-3.66666 -3.6666,-9.66666 -1.9999,-17.99998 4.9999,-17.99998 22.3333,-44.33329 19.6666,-63.99994 0.3333,-22.99998 -11.3333,-44.99996 -37.6666,-42.66662 -9.6667,-1.33334 -18.6667,-1 -31,1.99999 -34.3333,11.99999 -16,50.66662 3.3333,83.99992 z m 190.666,109.99989 c -4.6666,26.66664 -2.3333,32.66664 2.3334,52.99995 1.6666,8.66666 2.6666,11.66666 5,14.99999 8.6666,9.99999 27.9999,26.3333 41.9999,19.66664 4.6667,-2.33333 11,-7.99999 26,-22.99997 15,-14.99999 18.3333,-19.33332 20.6667,-25.99998 4.6666,-21.66664 -1,-33.66663 -14,-59.99994 -9.3334,-18.66665 -11,-23.33331 -11.3334,-31.66663 -0.3333,-7.66666 1,-12.99999 7,-28.99998 7.6667,-20.66664 17.3334,-64.99993 6.6667,-79.33325 -8.6667,-16.99999 -24.6666,-30.99997 -45,-26.33331 -7,1 -13.3333,1 -13.9999,-0.66667 -1.6667,-2.99999 -9.3334,0 -15.3334,6.33333 -12,11.33332 -13.6666,33.66664 -4,48.66662 10.3334,17.66665 12.6667,26.66664 12.6667,47.66662 1.6667,22.99998 -15.6667,59.66661 -18.6667,85.66658 z m 256.6665,13.33332 c -18.6667,-2.66666 -29.3333,10.99999 -36.3333,26.99998 -29,-11.99999 -42,11.66665 -56.6666,4.66666 -5.6667,-2.66666 -8.6667,-5.33333 -10.3333,-8.66666 -2,-2.66666 -1.6667,-18.66665 -0.3334,-21.66664 9.6667,-24.33331 29,-24.99998 56.3333,-17.66665 14.6667,3.99999 35,7.99999 44.6666,-3 8,-8.99999 15.6667,-28.33331 12,-41.33329 -4.3333,-17.66665 -23.6666,-27.99998 -44.9999,-24.66665 -7.3334,1 -10.3334,2.66667 -29.6667,14.66666 -27,13.66665 -39.3333,-4 -29.3333,-31.66664 2,-6.66666 3.6667,-9.66666 6,-11.66665 7,-4.33333 29.3333,-8 41,-0.66667 12.6666,6.66666 43.6666,8.99999 53.6666,-2.66666 7,-7 11.3333,-15.33332 11.3333,-22.66665 2,-6.66666 -11,-17.33332 -14.6666,-22.66664 -1,-1.33334 -1,-17.33332 -1,-21.66665 -12.3334,-9.66666 -25.6667,-8.99999 -42.3333,-5.99999 -13.6667,2.99999 -30.6667,2.33333 -47.3333,1.33333 -12,-5 -21.6667,-12.33332 -34,-6.99999 -3,1.33333 -6.3333,2.33333 -7,2.33333 -15.6666,8.66665 -16.6666,31.66663 -11.3333,50.66661 4,11.99999 10.3333,25.66665 9.3333,38.99997 0,17.99998 -1.6666,27.66664 -7.6666,42.66662 -8,19.66665 -11.6667,41.66663 -6,60.66661 11,29.66664 -27,65.99993 16,80.99992 11.6666,1.33333 19.9999,-4.66666 37.9999,-4.66666 33.3333,-3.33333 44,6.66666 76.6666,1.66666 15,-1.66666 18.3333,-3.33333 25.3333,-12.33332 11.6667,-15.66665 14,-29.66664 6,-48.33329 -4,-10.99998 -8.6666,-15.33331 -17.3333,-16.66665 z M 3008.326,440.96965 c -19,-13.66665 5,-30.3333 -40.3333,-36.99996 -31.6666,-5.66666 -34.6666,-4 -59.6666,11.33332 -1.6667,0.33333 -11.6667,1.66666 -22,2.66666 -43.6666,5 -40.9999,2.66667 -60.6666,24.66665 -3,4.99999 -8.3333,17.99998 -10.3333,25.66664 -3.6667,17.33331 0.3333,44.99995 17.3333,58.99994 5.3333,4.33333 5.3333,4.66666 6,7.99999 3.3333,21.33331 28.6666,40.3333 49.3333,46.66662 2.6666,0.66667 8.3333,1.33333 12.3333,1.66667 16.3333,1 40.3333,16.66665 41,33.99996 -1.3334,22.33332 -28,25.66665 -42.6667,9 -10.3333,-8 -19.9999,-36.3333 -30.9999,-43.66663 -9.3334,-6.99999 -24,-11.33332 -32.3333,-9.66666 -13.6667,3.66667 -27,13.99999 -26.6667,29.33331 -1,13.99999 9,32.99997 15.3333,43.66662 1.3334,1.66667 7.6667,8.33333 14.3334,14.66666 13.6666,12.99998 14.3333,13.66665 23.9999,14.99998 8.3334,1.33333 15.6667,0.66667 25,-2.33333 17,-6.66666 25.6667,-0.66667 41.3333,3.66666 13.6667,2.33333 35.6666,-6.33332 49,-12.66665 13.3333,-6.66666 19.9999,-14.33332 23.6666,-26.99998 1.3333,-4.33332 4.6667,-14.66665 6.6667,-19.99998 0.3333,-22.33331 0,-34.99996 -18,-52.33328 -6.6667,-6.66666 -9,-7.66666 -18,-7.66666 -11.3333,0 -31.3333,5 -40.3333,2 -11.6667,-3 -25.3333,-9.99999 -32.6666,-16.99998 -13.6667,-10.66666 -17.3333,-47.33329 -8,-65.99994 6,-12.33332 18.3333,-22.99998 28.6666,-24.99997 12.3333,-2 29.6667,-1 36,10.33332 8.6666,17.33332 -27.3333,51.33328 -5,72.99993 8.6666,8.33332 24.3333,12.33332 34.9999,9.33332 0.3334,-0.33333 1,-3.33333 2,-6.33332 6.3334,-28.66664 22,-28.66664 31.6667,-47.66662 3.3333,-13.99999 5.6666,-40.3333 -11,-49.33329 z m -755.4991,623.99935 15.6666,-0.6666 1.6667,1.6666 c 0.6667,1 2.3333,3 3.6667,4.6667 2.3333,3.6667 6.6666,6.3333 11.6666,7.6667 4.3334,1 10.6667,1 24,0.3333 18.3333,-1.3333 22.6666,-3 34.6666,-13.6667 11,-9.3333 14,-12.6666 15.6667,-16.6666 2.3333,-4.6667 3,-12.6667 1.3333,-20 -2,-9.6666 -1.3333,-12.6666 6,-27 6.3333,-12.99995 7.3333,-15.99995 7,-23.99994 -0.3333,-5.66666 -0.6667,-6.66666 -3,-11.66666 -1.6667,-3.66666 -3.6667,-6.66666 -7,-9.66665 -4.6666,-4.66666 -7.6666,-6.33333 -15,-7 -2.3333,-0.33333 -4,-0.66666 -4,-0.99999 0.3334,-0.33334 4.6667,-3.66667 9.6667,-7.33333 5,-4 10.3333,-8.33333 12,-9.99999 3.6666,-3.66666 6.3333,-8.99999 7.6666,-14.66665 3.3334,-13.99999 -1.3333,-25.99998 -14.3333,-38.66663 -6.6666,-6.33333 -7.3333,-7.33333 -7.3333,-11.66666 0,-4.99999 2,-10.33332 6.6667,-17.99998 6.6666,-10.99999 7.6666,-13.33332 7.6666,-19.66665 0,-4.66666 -0.3333,-5.99999 -2.3333,-9.99999 -2.6667,-5.66666 -8,-11.33332 -13.3333,-13.99998 -8.3334,-4 -17.6667,-4 -30,0 -8.6667,2.66666 -22.3333,5.33332 -31.3333,5.99999 -11.6667,0.66667 -18.3333,3 -25.6667,9.33332 -4.3333,3.66667 -5.9999,4 -17.3333,5 -10.6666,0.66667 -14.6666,1.66666 -18.9999,4.99999 -4.3334,3.33333 -6.6667,7 -8.6667,12.66666 -3,8.33332 -2.3333,13.33332 3.3333,25.99997 3,6.33333 3.3334,7.66666 2.6667,17.99999 -0.6667,6.66666 -0.6667,7.33332 1,10.66665 2.3333,4.66666 6.6666,9.33333 10.3333,11.33332 7,3.33333 19.6667,1.33334 27.3333,-4.66666 6.3333,-4.66666 8.6667,-9.99999 9.6667,-22.66664 0.3333,-4.33333 1.3333,-8.99999 1.6666,-10.66666 2.3334,-5.99999 13.3334,-12.33332 25.3333,-14.66665 4.3334,-1 6,-1 8,-0.33333 3.3334,0.99999 3.3334,2.33333 -0.6666,11.66665 -4,9.66666 -4,14.33332 -1,24.33331 3,8.33333 3.6666,15.66665 2,20.99998 -2.3334,7.66666 -9.3334,16.99998 -15.3333,19.66665 -2.6667,1.33333 -4,1.33333 -12,1 -22.6667,-0.33334 -22.6667,-0.66667 -26.6667,1.66666 -5,2.33333 -11.6666,8.99999 -13.6666,13.66666 -1.6667,4.33332 -1.6667,9.66665 0,12.99998 2,4 6,6.33333 14,7.99999 8.9999,1.66667 23.6666,1.33334 37.9999,-0.99999 10.6667,-2 16.3333,-2.33334 18.6667,-1.33334 1,0.66667 1.3333,1.66667 1.3333,5 0,4.66666 -1.6667,9.99999 -5.6667,17.33332 -3.3333,6.66666 -4.6666,12.66668 -4.3333,16.33328 0.3333,1.3334 1.3333,5 2.3333,8 1.6667,5.3334 1.6667,5.6667 0.6667,8 -3,6 -17.6666,11 -27.6666,9 -7.3334,-1.3333 -9.3334,-4 -12.3334,-16.6666 -2.6666,-12 -4.3333,-15.66669 -7.9999,-19.66669 -5.3334,-4.99999 -11,-6.33333 -20.3334,-3.66666 -8.6666,2 -18.6666,7.33332 -23.6666,12.66665 -8.3333,7.6667 -13.3333,21.3333 -14,35.6666 -0.3333,7.6667 -0.3333,8.3334 1.3333,12 2.6667,5.6667 7.3334,8.6667 18,11.3333 10.3333,3 16,3.3334 33,3 z m 310.9999,-229.99973 c -16,-6.66666 -33.3333,3.66666 -52.6666,-10.99999 -10.6667,-7 -14.6667,-8.66666 -30.6667,-9.99999 -10,-1 -16.6666,-0.33334 -30.9999,3.33333 -9.3334,2.33333 -11,2.66666 -12,1.66666 -18,-3.99999 -39.6667,22.33331 -35.3333,41.33329 1,6.33333 2.6666,10.33333 7.6666,17.66665 15,23.66665 22,54.33328 21.6667,86.99992 4,33.99997 -20,64.66656 -20.3333,96.66656 -0.6667,22 5.6666,27.6667 22.6666,31.6666 19,6 27.6666,-0.3333 42.6666,-12.9999 11.3334,-13.3334 25,-13 39.6667,-11.3334 36.9999,-2 41.9999,-69.33323 50.9999,-96.66654 2.6667,-8.33332 7.3333,-16.33331 17.3333,-31.66663 25.6667,-38.99996 22.6667,-83.33325 -20.6666,-105.66656 z m -28,94.9999 c -1,3 -3.3333,8.33333 -5.3333,11.99999 -6.3333,7.99999 -9,37.66663 -13.3333,53.66662 -6,17.33332 -11.3334,25.99992 -27.6667,32.66662 -9,3.6667 -15.6666,3.3333 -17.3333,-1 -1,-2 -0.6667,-3.3333 3.3333,-12.3333 12.3334,-28.33332 11.3334,-55.33329 1.3334,-88.99992 -6,-19.99998 6.3333,-43.66663 28.6666,-43.33329 5.3333,-0.33334 6.3333,0 9.6667,1.33333 21.3333,7.99999 26.9999,25.33331 20.6666,45.99995 z"
       id="text2-5"
       style="font-size:333.333px;font-family:'LEQUA HYPER';-inkscape-font-specification:'LEQUA HYPER, Normal';text-align:center;text-anchor:middle;white-space:pre;shape-padding:19.2031;fill:#f7dbf0;fill-opacity:1"
       inkscape:label="Pink text"
       transform="matrix(2.5340132,0,0,2.5340132,-4241.6875,615.83817)"
       aria-label="Richies&#10;3D" /><path
       style="font-size:333.333px;font-family:'LEQUA HYPER';-inkscape-font-specification:'LEQUA HYPER, Normal';text-align:center;text-anchor:middle;white-space:pre;shape-padding:10.2637;fill:#8875b5;fill-opacity:1"
       d="m 1971.3272,415.36355 c -25.3333,-26.99998 -36,-29.99997 -73.3333,-31.33331 -8.6666,-0.33333 -11.6666,0.66667 -21.9999,6 -9.6667,4.66666 -12.3334,5.33333 -19,4.99999 -14,-1.33333 -35.6667,-15.33332 -56,-5.99999 -41.3333,25.99997 -45.9999,70.99993 -36.3333,119.33322 4.6667,31.99996 5.3334,37.99996 -1,65.6666 -4.3333,15.66665 -4.6666,19.33331 -5,30.66664 0.3334,24.99997 0.3334,57.99994 21,70.99993 29.6667,10.33332 51.6666,-44.66663 49,-74.33326 1.3333,-23.33332 -19.3333,-64.33328 8.6666,-78.66659 28,-7 21.6667,35.99996 32.3333,51.99994 9,17.33332 43,73.33327 56.3333,88.33325 23.3333,19.66665 42.3333,-15.99998 39.6666,-40.66663 -0.6666,-58.6666 -26.3333,-50.33328 -45.9999,-87.33324 -7,-11.33333 1,-20.66665 11.3333,-24.99998 9.3333,-2.66666 27.3333,-5.66666 32.6666,-13.33332 13,-12.66665 26.3333,-62.33327 7.6667,-81.33325 z m -61.3333,61.33327 c -1.3333,0 -4.6666,-0.33333 -9.6666,-1.33333 -7.6667,-2 -22,-3.33333 -28.3333,0 -6,3 -22.3334,18.99998 -24,17.99998 -8.3333,2.66666 -24.3333,-0.66667 -27,-9.66666 5,-11.33332 9.6667,-25.33331 9,-41.99996 0,-4.33332 0,-3.99999 7,-6.66666 4.3333,-1.33333 6,-1.66666 25.3333,-2.33333 18.6667,-1 20.6666,-1 25.3333,0 14.6667,3 25.3333,12.33332 28,24.66665 2.3333,9.99999 0,18.33331 -5.6667,19.33331 z m 83.0004,105.33323 c -4.6667,26.66664 -2.3333,32.66664 2.3333,52.99995 1.6667,8.66666 2.6667,11.66665 5,14.99998 8.6667,9.99999 28,26.33331 42,19.66665 4.6667,-2.33333 11,-7.99999 26,-22.99998 14.9999,-14.99998 18.3333,-19.33331 20.6666,-25.99997 4.6667,-21.66665 -1,-33.66663 -14,-59.99994 -9.3333,-18.66665 -11,-23.33331 -11.3333,-31.66664 -0.3333,-7.66666 1,-12.99998 7,-28.99997 7.6667,-20.66665 17.3333,-64.99994 6.6667,-79.33326 -8.6667,-16.99998 -24.6667,-30.99996 -45,-26.3333 -7,1 -13.3333,1 -14,-0.66667 -1.6667,-3 -9.3333,0 -15.3333,6.33333 -12,11.33332 -13.6667,33.66663 -4,48.66662 10.3333,17.66665 12.6667,26.66664 12.6667,47.66662 1.6666,22.99998 -15.6667,59.66661 -18.6667,85.66658 z m 113.3332,-51.99995 c 12.3333,28.33331 14.3333,45.33329 13.3333,81.33326 -0.3333,7.99999 0,8.99999 1.3333,12.99998 11,30.33331 31,40.3333 63,49.66662 18.3333,3 37.6666,-5.33333 54.9999,-13.66665 24.6667,-13.66666 46,-38.3333 52.6666,-67.33327 6.3334,-21.99998 1.3334,-31.99997 -10.3333,-44.33329 -7.6667,-7.99999 -32.3333,-8.99999 -43.3333,-3 -31.6666,14.99999 -4,53.66662 -22.3333,70.6666 -6.6667,5.33333 -15.3333,4.66666 -21.6666,-1 -7,-2 -6.6667,-26.33331 -8.6667,-35.66663 -2.3333,-8.99999 -8.6667,-14.99999 -21.6666,-19.99998 -3.6667,-0.66667 -15,-12.33332 -17,-15.66665 -2,-4 -2.6667,-10.99999 -2,-17.33332 3.3333,-26.99997 11,-63.6666 34.9999,-79.33325 12.6667,-9.66666 36,-7 34.6667,10.99998 0,5.66667 -1,8.66666 -3.6667,8.66666 -15,2 -29.3333,30.33331 -25.6666,44.33329 1.3333,6 3,8.99999 8,14.33332 29.6666,28.99997 60.9999,-1.66666 65.3332,-36.3333 1.3334,-22.33331 19.3333,-32.3333 18,-47.33328 2,-15.99999 -29.3333,-36.99997 -39.3333,-40.99996 -11.3333,-3.33333 -29.6666,-8.33333 -40.9999,-4.66666 -7.3334,1.33333 -8.6667,1.33333 -17.6667,-0.66667 -7.6667,-1.66667 -20.3333,-2.33333 -25.3333,-1 -51,15.66665 -69.9999,89.99991 -46.6666,135.3332 z m 223.3332,-57.99994 c 9,19.99998 -16.6666,54.33328 -16.6666,77.33326 0.6666,44.99995 -41.3333,96.33324 7.3333,128.66654 18.3333,8.66666 43.6666,-8.99999 52,-24.33331 4.3333,-8.33333 5.3333,-14.66666 5.3333,-29.66664 2.3333,-16.66665 -11.3333,-39.3333 -5,-56.33328 6.6666,-13.33332 32.3333,-17.66665 42.6666,-13.33332 31.3333,17.66665 -53.6666,101.66657 26.6667,128.99988 14.3333,3.33333 40.9999,-3.33334 50.3332,-18.33332 3,-5.33333 4.3334,-10.33332 5,-20.99998 1.3334,-24.66664 -20.6666,-27.33331 -29.3333,-53.66661 -8,-22.33332 12.6667,-53.99995 16.6667,-74.99993 1.6666,-6.33333 5,-13.66665 12,-24.99998 13.6666,-18.66664 13.3333,-59.6666 5.6666,-77.99992 -5,-10.99999 -17.3333,-16.33332 -32.9999,-14.33332 -39.6667,4.33333 -51.3333,35.3333 -39.3333,70.99993 11,42.66663 -4.6667,32.3333 -40,35.3333 -2.6667,1.33333 -11.6667,5.99999 -12.6667,6.33333 -4.3333,-3.66667 -3.6666,-9.66666 -1.9999,-17.99999 4.9999,-17.99998 22.3333,-44.33329 19.6666,-63.99993 0.3333,-22.99998 -11.3333,-44.99996 -37.6666,-42.66663 -9.6667,-1.33333 -18.6667,-1 -31,2 -34.3333,11.99999 -16,50.66662 3.3333,83.99992 z m 190.666,109.99989 c -4.6666,26.66664 -2.3333,32.66664 2.3334,52.99995 1.6666,8.66666 2.6666,11.66665 5,14.99998 8.6666,9.99999 27.9999,26.33331 41.9999,19.66665 4.6667,-2.33333 11,-7.99999 26,-22.99998 15,-14.99998 18.3333,-19.33331 20.6667,-25.99997 4.6666,-21.66665 -1,-33.66663 -14,-59.99994 -9.3334,-18.66665 -11,-23.33331 -11.3334,-31.66664 -0.3333,-7.66666 1,-12.99998 7,-28.99997 7.6667,-20.66665 17.3334,-64.99994 6.6667,-79.33326 -8.6667,-16.99998 -24.6666,-30.99996 -45,-26.3333 -7,1 -13.3333,1 -13.9999,-0.66667 -1.6667,-3 -9.3334,0 -15.3334,6.33333 -12,11.33332 -13.6666,33.66663 -4,48.66662 10.3334,17.66665 12.6667,26.66664 12.6667,47.66662 1.6667,22.99998 -15.6667,59.66661 -18.6667,85.66658 z m 256.6665,13.33332 c -18.6667,-2.66666 -29.3333,10.99999 -36.3333,26.99997 -29,-11.99998 -42,11.66666 -56.6666,4.66667 -5.6667,-2.66667 -8.6667,-5.33333 -10.3333,-8.66666 -2,-2.66667 -1.6667,-18.66665 -0.3334,-21.66665 9.6667,-24.33331 29,-24.99997 56.3333,-17.66665 14.6667,4 35,8 44.6666,-2.99999 8,-8.99999 15.6667,-28.33331 12,-41.3333 -4.3333,-17.66665 -23.6666,-27.99997 -44.9999,-24.66664 -7.3334,1 -10.3334,2.66667 -29.6667,14.66665 -27,13.66666 -39.3333,-3.99999 -29.3333,-31.66663 2,-6.66666 3.6667,-9.66666 6,-11.66666 7,-4.33333 29.3333,-7.99999 41,-0.66666 12.6666,6.66666 43.6666,8.99999 53.6666,-2.66667 7,-6.99999 11.3333,-15.33332 11.3333,-22.66664 2,-6.66666 -11,-17.33332 -14.6666,-22.66665 -1,-1.33333 -1,-17.33331 -1,-21.66664 -12.3334,-9.66666 -25.6667,-8.99999 -42.3333,-6 -13.6667,3 -30.6667,2.33333 -47.3333,1.33334 -12,-5 -21.6667,-12.33333 -34,-7 -3,1.33333 -6.3333,2.33333 -7,2.33333 -15.6666,8.66666 -16.6666,31.66664 -11.3333,50.66662 4,11.99999 10.3333,25.66664 9.3333,38.99996 0,17.99998 -1.6666,27.66664 -7.6666,42.66663 -8,19.66664 -11.6667,41.66662 -6,60.6666 11,29.66664 -27,65.99994 16,80.99993 11.6666,1.33333 19.9999,-4.66667 37.9999,-4.66667 33.3333,-3.33333 44,6.66666 76.6666,1.66667 15,-1.66667 18.3333,-3.33333 25.3333,-12.33332 11.6667,-15.66665 14,-29.66664 6,-48.33329 -4,-10.99999 -8.6666,-15.33332 -17.3333,-16.66665 z M 3008.326,432.0302 c -19,-13.66666 5,-30.33331 -40.3333,-36.99997 -31.6666,-5.66666 -34.6666,-3.99999 -59.6666,11.33333 -1.6667,0.33333 -11.6667,1.66666 -22,2.66666 -43.6666,4.99999 -40.9999,2.66666 -60.6666,24.66664 -3,5 -8.3333,17.99998 -10.3333,25.66664 -3.6667,17.33332 0.3333,44.99996 17.3333,58.99995 5.3333,4.33333 5.3333,4.66666 6,7.99999 3.3333,21.33331 28.6666,40.33329 49.3333,46.66662 2.6666,0.66667 8.3333,1.33333 12.3333,1.66666 16.3333,1 40.3333,16.66665 41,33.99997 -1.3334,22.33331 -28,25.66664 -42.6667,8.99999 -10.3333,-7.99999 -19.9999,-36.3333 -30.9999,-43.66662 -9.3334,-6.99999 -24,-11.33332 -32.3333,-9.66666 -13.6667,3.66666 -27,13.99999 -26.6667,29.33331 -1,13.99998 9,32.99996 15.3333,43.66662 1.3334,1.66666 7.6667,8.33333 14.3334,14.66665 13.6666,12.99999 14.3333,13.66666 23.9999,14.99999 8.3334,1.33333 15.6667,0.66666 25,-2.33333 17,-6.66666 25.6667,-0.66667 41.3333,3.66666 13.6667,2.33333 35.6666,-6.33333 49,-12.66665 13.3333,-6.66666 19.9999,-14.33332 23.6666,-26.99998 1.3333,-4.33333 4.6667,-14.66665 6.6667,-19.99998 0.3333,-22.33331 0,-34.99996 -18,-52.33328 -6.6667,-6.66666 -9,-7.66666 -18,-7.66666 -11.3333,0 -31.3333,4.99999 -40.3333,2 -11.6667,-3 -25.3333,-9.99999 -32.6666,-16.99999 -13.6667,-10.66665 -17.3333,-47.33328 -8,-65.99993 6,-12.33332 18.3333,-22.99998 28.6666,-24.99998 12.3333,-1.99999 29.6667,-1 36,10.33333 8.6666,17.33331 -27.3333,51.33328 -5,72.99993 8.6666,8.33332 24.3333,12.33332 34.9999,9.33332 0.3334,-0.33333 1,-3.33333 2,-6.33333 6.3334,-28.66664 22,-28.66664 31.6667,-47.66662 3.3333,-13.99998 5.6666,-40.33329 -11,-49.33328 z m -755.4991,623.9994 15.6666,-0.6667 1.6667,1.6667 c 0.6667,1 2.3333,3 3.6667,4.6666 2.3333,3.6667 6.6666,6.3334 11.6666,7.6667 4.3334,1 10.6667,1 24,0.3333 18.3333,-1.3333 22.6666,-3 34.6666,-13.6666 11,-9.3333 14,-12.6667 15.6667,-16.6667 2.3333,-4.6666 3,-12.6666 1.3333,-19.9999 -2,-9.6667 -1.3333,-12.6667 6,-27.00002 6.3333,-12.99998 7.3333,-15.99998 7,-23.99997 -0.3333,-5.66666 -0.6667,-6.66666 -3,-11.66666 -1.6667,-3.66666 -3.6667,-6.66666 -7,-9.66666 -4.6666,-4.66666 -7.6666,-6.33332 -15,-6.99999 -2.3333,-0.33333 -4,-0.66666 -4,-1 0.3334,-0.33333 4.6667,-3.66666 9.6667,-7.33332 5,-4 10.3333,-8.33333 12,-9.99999 3.6666,-3.66667 6.3333,-9 7.6666,-14.66666 3.3334,-13.99998 -1.3333,-25.99997 -14.3333,-38.66663 -6.6666,-6.33332 -7.3333,-7.33332 -7.3333,-11.66665 0,-5 2,-10.33332 6.6667,-17.99998 6.6666,-10.99999 7.6666,-13.33332 7.6666,-19.66665 0,-4.66666 -0.3333,-5.99999 -2.3333,-9.99999 -2.6667,-5.66666 -8,-11.33332 -13.3333,-13.99999 -8.3334,-3.99999 -17.6667,-3.99999 -30,0 -8.6667,2.66667 -22.3333,5.33333 -31.3333,6 -11.6667,0.66666 -18.3333,2.99999 -25.6667,9.33332 -4.3333,3.66666 -5.9999,4 -17.3333,5 -10.6666,0.66666 -14.6666,1.66666 -18.9999,4.99999 -4.3334,3.33333 -6.6667,6.99999 -8.6667,12.66666 -3,8.33332 -2.3333,13.33332 3.3333,25.99997 3,6.33333 3.3334,7.66666 2.6667,17.99998 -0.6667,6.66666 -0.6667,7.33333 1,10.66666 2.3333,4.66666 6.6666,9.33332 10.3333,11.33332 7,3.33333 19.6667,1.33333 27.3333,-4.66666 6.3333,-4.66666 8.6667,-9.99999 9.6667,-22.66665 0.3333,-4.33332 1.3333,-8.99999 1.6666,-10.66665 2.3334,-6 13.3334,-12.33332 25.3333,-14.66665 4.3334,-1 6,-1 8,-0.33334 3.3334,1 3.3334,2.33333 -0.6666,11.66666 -4,9.66666 -4,14.33332 -1,24.33331 3,8.33332 3.6666,15.66665 2,20.99998 -2.3334,7.66666 -9.3334,16.99998 -15.3333,19.66664 -2.6667,1.33334 -4,1.33334 -12,1 -22.6667,-0.33333 -22.6667,-0.66666 -26.6667,1.66667 -5,2.33333 -11.6666,8.99999 -13.6666,13.66665 -1.6667,4.33333 -1.6667,9.66666 0,12.99999 2,4 6,6.33333 14,7.99999 8.9999,1.66667 23.6666,1.33333 37.9999,-1 10.6667,-2 16.3333,-2.33333 18.6667,-1.33333 1,0.66667 1.3333,1.66667 1.3333,5 0,4.66666 -1.6667,9.99999 -5.6667,17.33331 -3.3333,6.66666 -4.6666,12.66666 -4.3333,16.33332 0.3333,1.33333 1.3333,5.00002 2.3333,8.00002 1.6667,5.3333 1.6667,5.6666 0.6667,8 -3,6 -17.6666,11 -27.6666,9 -7.3334,-1.3334 -9.3334,-4 -12.3334,-16.6667 -2.6666,-11.99998 -4.3333,-15.66665 -7.9999,-19.66664 -5.3334,-5 -11,-6.33333 -20.3334,-3.66667 -8.6666,2 -18.6666,7.33333 -23.6666,12.66666 -8.3333,7.66665 -13.3333,21.33335 -14,35.66665 -0.3333,7.6666 -0.3333,8.3333 1.3333,12 2.6667,5.6666 7.3334,8.6666 18,11.3333 10.3333,3 16,3.3333 33,3 z m 310.9999,-229.99979 c -16,-6.66666 -33.3333,3.66667 -52.6666,-10.99999 -10.6667,-6.99999 -14.6667,-8.66666 -30.6667,-9.99999 -10,-1 -16.6666,-0.33333 -30.9999,3.33333 -9.3334,2.33333 -11,2.66667 -12,1.66667 -18,-4 -39.6667,22.33331 -35.3333,41.33329 1,6.33333 2.6666,10.33332 7.6666,17.66665 15,23.66664 22,54.33328 21.6667,86.99992 4,33.99996 -20,64.66661 -20.3333,96.66661 -0.6667,21.9999 5.6666,27.6666 22.6666,31.6666 19,6 27.6666,-0.3333 42.6666,-13 11.3334,-13.3333 25,-13 39.6667,-11.3333 36.9999,-2 41.9999,-69.33328 50.9999,-96.66659 2.6667,-8.33332 7.3333,-16.33332 17.3333,-31.66663 25.6667,-38.99997 22.6667,-83.33326 -20.6666,-105.66657 z m -28,94.99991 c -1,3 -3.3333,8.33332 -5.3333,11.99999 -6.3333,7.99999 -9,37.66663 -13.3333,53.66661 -6,17.33328 -11.3334,25.99998 -27.6667,32.66668 -9,3.6666 -15.6666,3.3333 -17.3333,-1 -1,-2 -0.6667,-3.3334 3.3333,-12.3334 12.3334,-28.33327 11.3334,-55.33324 1.3334,-88.99988 -6,-19.99998 6.3333,-43.66662 28.6666,-43.33329 5.3333,-0.33333 6.3333,0 9.6667,1.33333 21.3333,8 26.9999,25.33331 20.6666,45.99996 z"
       id="text2-5-6"
       inkscape:label="Purple text"
       transform="matrix(2.5340132,0,0,2.5340132,-4175.0449,568.91523)"
       aria-label="Richies&#10;3D" /><path
       style="font-size:400px;font-family:'LEQUA HYPER';-inkscape-font-specification:'LEQUA HYPER, Normal';text-align:center;text-anchor:middle;white-space:pre;shape-padding:50.3001;display:none;fill:#f7dbf0;fill-opacity:1"
       sodipodi:type="inkscape:offset"
       inkscape:radius="0"
       inkscape:original="M 3147.0469 859.19531 C 3137.3971 859.19531 3126.7652 861.15672 3114.6621 865.08203 C 3097.6524 870.31579 3070.8299 875.54898 3053.166 876.85742 C 3030.2683 878.16585 3017.1838 882.74561 3002.791 895.17578 C 2994.2861 902.3722 2991.015 903.02757 2968.7715 904.99023 C 2947.8365 906.29867 2939.9854 908.26054 2931.4805 914.80273 C 2922.9757 921.34493 2918.396 928.54232 2914.4707 939.66406 C 2908.5827 956.01955 2909.892 965.83301 2921.0137 990.69336 C 2926.9017 1003.1235 2927.5564 1005.7387 2926.248 1026.0195 C 2924.9395 1039.1039 2924.9379 1040.4129 2928.209 1046.9551 C 2932.7886 1056.1141 2941.2938 1065.2739 2948.4902 1069.1992 C 2962.2288 1075.7414 2987.0897 1071.815 3002.1367 1060.0391 C 3014.5669 1050.88 3019.1467 1040.4131 3021.1094 1015.5527 C 3021.7636 1007.0479 3023.7267 997.88829 3024.3809 994.61719 C 3028.9604 982.84124 3050.5497 970.41157 3074.1016 965.83203 C 3082.6065 963.86937 3085.8773 963.86929 3089.8027 965.17773 C 3096.3449 967.14039 3096.3448 969.75802 3088.4941 988.07617 C 3080.6435 1007.0486 3080.6432 1016.2074 3086.5312 1035.834 C 3092.4192 1052.1895 3093.7281 1066.5812 3090.457 1077.0488 C 3085.8774 1092.0958 3072.1372 1110.4147 3060.3613 1115.6484 C 3055.1275 1118.2653 3052.5117 1118.2655 3036.8105 1117.6113 C 2992.3235 1116.9571 2992.3233 1116.3032 2984.4727 1120.8828 C 2974.6594 1125.4623 2961.5757 1138.546 2957.6504 1147.7051 C 2954.3793 1156.2099 2954.3793 1166.6785 2957.6504 1173.2207 C 2961.5757 1181.0714 2969.4258 1185.6508 2985.127 1188.9219 C 3002.791 1192.193 3031.5755 1191.5385 3059.707 1186.959 C 3080.642 1183.0336 3091.7642 1182.3791 3096.3438 1184.3418 C 3098.3063 1185.6502 3098.9609 1187.6121 3098.9609 1194.1543 C 3098.9609 1203.3133 3095.6904 1213.781 3087.8398 1228.1738 C 3081.2976 1241.2582 3078.6797 1253.034 3079.334 1260.2305 C 3079.9882 1262.8473 3081.9514 1270.0436 3083.9141 1275.9316 C 3087.1852 1286.3991 3087.1854 1287.0533 3085.2227 1291.6328 C 3079.3348 1303.4087 3050.5485 1313.2222 3030.9219 1309.2969 C 3016.5291 1306.68 3012.6048 1301.4463 3006.7168 1276.5859 C 3001.483 1253.034 2998.212 1245.8389 2991.0156 1237.9883 C 2980.5481 1228.175 2969.4256 1225.5572 2951.1074 1230.791 C 2934.0977 1234.7163 2914.4715 1245.1848 2904.6582 1255.6523 C 2888.3027 1270.6994 2878.49 1297.5209 2877.1816 1325.6523 C 2876.5274 1340.6994 2876.5258 1342.0087 2879.7969 1349.2051 C 2885.0306 1360.3268 2894.19 1366.2154 2915.125 1371.4492 C 2935.4058 1377.3372 2946.5274 1377.9901 2979.8926 1377.3359 L 3010.6406 1376.0273 L 3013.9121 1379.2988 C 3015.2205 1381.2615 3018.4925 1385.1879 3021.1094 1388.459 C 3025.6889 1395.6554 3034.1926 1400.8891 3044.0059 1403.5059 C 3052.5107 1405.4686 3064.9425 1405.4686 3091.1113 1404.1602 C 3127.0934 1401.5433 3135.5965 1398.2709 3159.1484 1377.3359 C 3180.7377 1359.0177 3186.6273 1352.4756 3189.8984 1344.625 C 3194.4779 1335.4659 3195.7848 1319.7658 3192.5137 1305.373 C 3188.5884 1286.4006 3189.8982 1280.5124 3204.291 1252.3809 C 3216.7212 1226.8664 3218.6835 1220.9786 3218.0293 1205.2773 C 3217.3751 1194.1556 3216.7202 1192.1922 3212.1406 1182.3789 C 3208.8695 1175.1825 3204.9445 1169.2941 3198.4023 1163.4062 C 3189.2432 1154.2471 3183.3558 1150.9765 3168.9629 1149.668 C 3164.3834 1149.0138 3161.1113 1148.3593 3161.1113 1147.7051 C 3161.7655 1147.0509 3170.2707 1140.509 3180.084 1133.3125 C 3189.8973 1125.4619 3200.3656 1116.9566 3203.6367 1113.6855 C 3210.8331 1106.489 3216.0667 1096.0221 3218.6836 1084.9004 C 3225.2258 1057.4232 3216.0672 1033.8702 3190.5527 1009.0098 C 3177.4683 996.57962 3176.1582 994.61813 3176.1582 986.11328 C 3176.1582 976.29998 3180.0851 965.83221 3189.2441 950.78516 C 3202.3285 929.19591 3204.291 924.61573 3204.291 912.18555 C 3204.291 903.02648 3203.6362 900.41118 3199.7109 892.56055 C 3194.4771 881.43881 3184.0105 870.31579 3173.543 865.08203 C 3165.3652 861.15672 3156.6966 859.19531 3147.0469 859.19531 z M 381.33203 876.20508 C 364.32232 875.55086 358.4351 877.51295 338.1543 887.98047 C 319.18193 897.13954 313.94767 898.44719 300.86328 897.79297 C 273.38605 895.17609 230.86247 867.69943 190.95508 886.01758 C 109.83184 937.04671 100.67216 1025.3666 119.64453 1120.2285 C 128.8036 1183.0335 130.11181 1194.8092 117.68164 1249.1094 C 109.17679 1279.8577 108.52336 1287.0535 107.86914 1309.2969 C 108.52336 1358.3634 108.52237 1423.1319 149.08398 1448.6465 C 207.30953 1468.9273 250.48962 1360.9815 245.25586 1302.7559 C 247.87274 1256.9606 207.31118 1176.4908 262.26562 1148.3594 C 317.22008 1134.6208 304.78959 1219.0154 325.72461 1250.418 C 343.38854 1284.4374 410.11832 1394.3453 436.28711 1423.7852 C 482.08248 1462.3841 519.37242 1392.3829 514.13867 1343.9707 C 512.83023 1228.828 462.45638 1245.1848 423.85742 1172.5664 C 410.11881 1150.323 425.8188 1132.0048 446.09961 1123.5 C 464.41776 1118.2662 499.74733 1112.3771 510.21484 1097.3301 C 535.7294 1072.4697 561.89802 974.99169 525.26172 937.70117 C 475.54103 884.70938 454.60462 878.82195 381.33203 876.20508 z M 1268.7422 878.81055 C 1254.6356 878.16655 1240.1604 879.6387 1222.0059 884.05469 C 1154.6213 907.6066 1190.604 983.49603 1228.5488 1048.918 C 1246.2127 1088.1712 1195.8379 1155.5561 1195.8379 1200.6973 C 1197.1463 1289.0169 1114.7145 1389.7673 1210.2305 1453.2266 C 1246.2126 1470.2363 1295.9336 1435.5629 1312.2891 1405.4688 C 1320.7939 1389.1133 1322.7559 1376.682 1322.7559 1347.2422 C 1327.3354 1314.5312 1300.5132 1270.0449 1312.9434 1236.6797 C 1326.0278 1210.511 1376.4028 1202.0049 1396.6836 1210.5098 C 1458.1803 1245.1834 1291.3526 1410.0474 1449.0195 1463.6934 C 1477.1509 1470.2356 1529.4884 1457.1508 1547.8066 1427.7109 C 1553.6945 1417.2434 1556.3127 1407.4312 1557.6211 1386.4961 C 1560.238 1338.0839 1517.0585 1332.8493 1500.0488 1281.166 C 1484.3475 1237.3333 1524.9092 1175.1826 1532.7598 1133.9668 C 1536.0309 1121.5366 1542.5739 1107.1439 1556.3125 1084.9004 C 1583.1355 1048.2641 1582.4807 967.79458 1567.4336 931.8125 C 1557.6203 910.22325 1533.4143 899.75632 1502.666 903.68164 C 1424.8139 912.18649 1401.9168 973.02785 1425.4688 1043.0293 C 1447.0579 1126.7695 1416.3102 1106.489 1346.9629 1112.377 C 1341.7292 1114.9939 1324.0642 1124.1524 1322.1016 1124.8066 C 1313.5967 1117.6102 1314.9047 1105.836 1318.1758 1089.4805 C 1327.9891 1054.1527 1362.0092 1002.4681 1356.7754 963.86914 C 1357.4296 918.72799 1334.5311 875.54938 1282.8477 880.12891 C 1278.1046 879.47469 1273.4444 879.02521 1268.7422 878.81055 z M 3412.8945 883.89062 C 3399.6159 883.76796 3386.9814 885.85464 3365.8828 891.25195 C 3347.5646 895.83148 3344.2946 896.48414 3342.332 894.52148 C 3307.0041 886.67085 3264.4795 938.35597 3272.9844 975.64648 C 3274.947 988.07666 3278.218 995.92549 3288.0312 1010.3184 C 3317.4711 1056.768 3331.2089 1116.9568 3330.5547 1181.0703 C 3338.4053 1247.8007 3291.3026 1307.9898 3290.6484 1370.7949 C 3289.34 1413.9734 3301.7696 1425.0947 3335.1348 1432.9453 C 3372.4254 1444.7213 3389.4351 1432.29 3418.875 1407.4297 C 3441.1184 1381.2609 3467.9409 1381.9164 3496.7266 1385.1875 C 3569.345 1381.2622 3579.1584 1249.1089 3596.8223 1195.4629 C 3602.056 1179.1074 3611.2152 1163.4067 3630.8418 1133.3125 C 3681.2167 1056.7689 3675.3297 969.75849 3590.2812 925.92578 C 3558.8787 912.84138 3524.8588 933.1216 3486.9141 904.33594 C 3465.9791 890.59733 3458.1271 887.32586 3426.7246 884.70898 C 3421.818 884.21832 3417.3207 883.93151 3412.8945 883.89062 z M 2429.9492 892.00977 C 2408.7382 892.89782 2394.938 901.2283 2364.2715 920.03711 C 2361.0004 920.69133 2341.3747 923.30882 2321.0938 925.27148 C 2235.3911 935.08477 2240.6243 930.50509 2202.0254 973.68359 C 2196.1374 983.49688 2185.6694 1009.0115 2181.7441 1024.0586 C 2174.5477 1058.078 2182.3985 1112.3783 2215.7637 1139.8555 C 2226.2312 1148.3604 2226.2326 1149.0144 2227.541 1155.5566 C 2234.0832 1197.4267 2283.8036 1234.7163 2324.3652 1247.1465 C 2329.599 1248.4549 2340.7196 1249.7637 2348.5703 1250.418 C 2380.627 1252.3806 2427.7306 1283.1289 2429.0391 1317.1484 C 2426.4222 1360.9811 2374.0844 1367.5235 2345.2988 1334.8125 C 2325.018 1319.1112 2306.0463 1263.5022 2284.457 1249.1094 C 2266.1389 1235.3708 2237.3535 1226.8657 2220.998 1230.1367 C 2194.175 1237.3332 2168.006 1257.6149 2168.6602 1287.709 C 2166.6975 1315.1862 2186.3237 1352.4752 2198.7539 1373.4102 C 2201.3708 1376.6813 2213.8023 1389.7671 2226.8867 1402.1973 C 2253.7097 1427.7119 2255.0179 1429.0198 2273.9902 1431.6367 C 2290.3457 1434.2536 2304.7385 1432.9446 2323.0566 1427.0566 C 2356.4218 1413.9723 2373.4314 1425.749 2404.1797 1434.2539 C 2431.0027 1438.8334 2474.1808 1421.8228 2500.3496 1409.3926 C 2526.5184 1396.3082 2539.6024 1381.2608 2546.7988 1356.4004 C 2549.4157 1347.8956 2555.9575 1327.6159 2559.8828 1317.1484 C 2560.537 1273.3156 2559.8845 1248.4549 2524.5566 1214.4355 C 2511.4722 1201.3511 2506.8924 1199.3887 2489.2285 1199.3887 C 2466.985 1199.3887 2427.7323 1209.2025 2410.0684 1203.3145 C 2387.1707 1197.4266 2360.3459 1183.6879 2345.9531 1169.9492 C 2319.1301 1149.0142 2311.9339 1077.0504 2330.252 1040.4141 C 2342.028 1016.2079 2366.2348 995.27297 2386.5156 991.34766 C 2410.7217 987.42234 2444.7418 989.38349 2457.1719 1011.627 C 2474.1816 1045.6464 2403.5247 1112.378 2447.3574 1154.9023 C 2464.3671 1171.2578 2495.1158 1179.1087 2516.0508 1173.2207 C 2516.705 1172.5665 2518.0139 1166.677 2519.9766 1160.7891 C 2532.4068 1104.5262 2563.1546 1104.5268 2582.127 1067.2363 C 2588.6692 1039.759 2593.2481 988.07604 2560.5371 970.41211 C 2523.2466 943.5891 2570.3509 910.87736 2481.377 897.79297 C 2458.0704 893.62232 2442.6758 891.47693 2429.9492 892.00977 z M 613.08008 892.88672 C 606.9161 892.64139 596.24408 898.28479 587.41211 907.60742 C 563.86021 929.85088 560.59013 973.68322 579.5625 1003.123 C 599.84331 1037.7967 604.42187 1055.4599 604.42188 1096.6758 C 607.69298 1141.8169 573.67508 1213.7814 567.78711 1264.8105 C 558.62803 1317.1481 563.20616 1328.9246 572.36523 1368.832 C 575.63633 1385.8417 577.60015 1391.7293 582.17969 1398.2715 C 599.1894 1417.8981 637.1341 1449.9555 664.61133 1436.8711 C 673.7704 1432.2916 686.20073 1421.1684 715.64062 1391.7285 C 745.08051 1362.2886 751.62163 1353.7836 756.20117 1340.6992 C 765.36025 1298.1749 754.23917 1274.6248 728.72461 1222.9414 C 710.40646 1186.3051 707.13469 1177.1446 706.48047 1160.7891 C 705.82625 1145.742 708.4428 1135.2755 720.21875 1103.873 C 735.2658 1063.3114 754.23972 976.29941 733.30469 948.16797 C 716.29499 914.80277 684.89177 887.3253 644.98438 896.48438 C 631.24577 898.44704 618.81624 898.44688 617.50781 895.17578 C 616.69004 893.70379 615.13474 892.9685 613.08008 892.88672 z M 1648.0547 892.88672 C 1641.8907 892.64139 1631.2187 898.28479 1622.3867 907.60742 C 1598.8348 929.85088 1595.5647 973.68322 1614.5371 1003.123 C 1634.8179 1037.7967 1639.3965 1055.4599 1639.3965 1096.6758 C 1642.6676 1141.8169 1608.6497 1213.7814 1602.7617 1264.8105 C 1593.6026 1317.1481 1598.1807 1328.9246 1607.3398 1368.832 C 1610.6109 1385.8417 1612.5748 1391.7293 1617.1543 1398.2715 C 1634.1641 1417.8981 1672.1087 1449.9555 1699.5859 1436.8711 C 1708.745 1432.2916 1721.1754 1421.1684 1750.6152 1391.7285 C 1780.0551 1362.2886 1786.5962 1353.7836 1791.1758 1340.6992 C 1800.3348 1298.1749 1789.2138 1274.6248 1763.6992 1222.9414 C 1745.3811 1186.3051 1742.1093 1177.1446 1741.4551 1160.7891 C 1740.8009 1145.742 1743.4174 1135.2755 1755.1934 1103.873 C 1770.2404 1063.3114 1789.2143 976.29941 1768.2793 948.16797 C 1751.2696 914.80277 1719.8664 887.3253 1679.959 896.48438 C 1666.2204 898.44704 1653.7908 898.44688 1652.4824 895.17578 C 1651.6646 893.70379 1650.1093 892.9685 1648.0547 892.88672 z M 891.60547 895.88281 C 887.65971 896.07703 884.26582 896.48445 881.8125 897.13867 C 781.71691 927.88699 744.42533 1073.7782 790.2207 1162.752 C 814.42683 1218.3607 818.35329 1251.7271 816.39062 1322.3828 C 815.7364 1338.0841 816.38898 1340.0458 819.00586 1347.8965 C 840.59511 1407.4305 879.84922 1427.0568 942.6543 1445.375 C 978.63637 1451.263 1016.5802 1434.9082 1050.5996 1418.5527 C 1099.0118 1391.7297 1140.8824 1343.3175 1153.9668 1286.4004 C 1166.397 1243.2219 1156.5832 1223.5949 1133.6855 1199.3887 C 1118.6384 1183.6875 1070.228 1181.724 1048.6387 1193.5 C 986.48784 1222.9398 1040.7868 1298.8301 1004.8047 1332.1953 C 991.72032 1342.6628 974.71143 1341.3542 962.28125 1330.2324 C 948.54264 1326.3071 949.19679 1278.5486 945.27148 1260.2305 C 940.69194 1242.5665 928.26066 1230.7918 902.74609 1220.9785 C 895.54968 1219.67 873.30618 1196.7726 869.38086 1190.2305 C 865.45554 1182.3798 864.14859 1168.6411 865.45703 1156.2109 C 871.99923 1103.2191 887.04463 1031.2542 934.14844 1000.5059 C 959.00879 981.53346 1004.8044 986.76786 1002.1875 1022.0957 C 1002.1875 1033.2174 1000.226 1039.1055 994.99219 1039.1055 C 965.55231 1043.0308 937.42077 1098.638 944.61719 1126.1152 C 947.23406 1137.8912 950.50506 1143.7805 960.31836 1154.248 C 1018.5439 1211.1651 1080.0401 1150.9764 1088.5449 1082.9375 C 1091.1618 1039.1048 1126.4899 1019.4789 1123.873 990.03906 C 1127.7983 958.63652 1066.3024 917.42094 1046.6758 909.57031 C 1024.4323 903.02811 988.4505 893.21375 966.20703 900.41016 C 951.8142 903.02704 949.19713 903.02688 931.5332 899.10156 C 920.24792 896.64824 903.44276 895.30015 891.60547 895.88281 z M 1884.3926 902.64844 C 1878.8419 902.61777 1873.1179 903.68195 1867.0664 906.29883 C 1861.1784 908.91571 1854.6365 910.87695 1853.3281 910.87695 C 1822.5798 927.88666 1820.6165 973.02781 1831.084 1010.3184 C 1838.9347 1033.8703 1851.3649 1060.6945 1849.4023 1086.8633 C 1849.4023 1122.1911 1846.1315 1141.1636 1834.3555 1170.6035 C 1818.6542 1209.2024 1811.4563 1252.3814 1822.5781 1289.6719 C 1844.1673 1347.8975 1769.5862 1419.2066 1853.9805 1448.6465 C 1876.8782 1451.2634 1893.2347 1439.4863 1928.5625 1439.4863 C 1993.9845 1432.9441 2014.9197 1452.5711 2079.0332 1442.7578 C 2108.4731 1439.4867 2115.0153 1436.2166 2128.7539 1418.5527 C 2151.6516 1387.8044 2156.2306 1360.3257 2140.5293 1323.6895 C 2132.6787 1302.1002 2123.5195 1293.5954 2106.5098 1290.9785 C 2069.8735 1285.7447 2048.9398 1312.5681 2035.2012 1343.9707 C 1978.2841 1320.4188 1952.7681 1366.8695 1923.9824 1353.1309 C 1912.8607 1347.8972 1906.9723 1342.6633 1903.7012 1336.1211 C 1899.7759 1330.8874 1900.4319 1299.4836 1903.0488 1293.5957 C 1922.0211 1245.8376 1959.9653 1244.5291 2013.6113 1258.9219 C 2042.397 1266.7725 2082.3049 1274.6245 2101.2773 1253.0352 C 2116.9786 1235.3713 2132.0245 1197.4267 2124.8281 1171.9121 C 2116.3233 1137.2385 2078.3778 1116.9578 2036.5078 1123.5 C 2022.1149 1125.4626 2016.228 1128.7333 1978.2832 1152.2852 C 1925.2914 1179.1082 1901.0843 1144.435 1920.7109 1090.1348 C 1924.6362 1077.0504 1927.9087 1071.1616 1932.4883 1067.2363 C 1946.2269 1058.7314 1990.0593 1051.5349 2012.957 1065.9277 C 2037.8173 1079.0121 2098.6586 1083.5911 2118.2852 1060.6934 C 2132.0238 1046.9548 2140.5293 1030.5999 2140.5293 1016.207 C 2144.4546 1003.1226 2118.9405 982.18821 2111.7441 971.7207 C 2109.7815 969.10382 2109.7812 937.70017 2109.7812 929.19531 C 2085.575 910.22294 2059.4063 911.53194 2026.6953 917.41992 C 1999.8723 923.3079 1966.5079 921.99977 1933.7969 920.03711 C 1916.133 912.67713 1901.0445 902.74043 1884.3926 902.64844 z M 346.49609 970.24805 C 353.20184 970.24805 356.4732 970.73937 361.05273 971.7207 C 389.83839 977.60867 410.7721 995.92664 416.00586 1020.1328 C 420.58539 1039.7593 416.00651 1056.1154 404.88477 1058.0781 C 402.2679 1058.0781 395.7254 1057.4236 385.91211 1055.4609 C 370.86506 1051.5356 342.7329 1048.9187 330.30273 1055.4609 C 318.52678 1061.3489 286.47032 1092.7517 283.19922 1090.7891 C 266.84373 1096.0228 235.44274 1089.4803 230.20898 1071.8164 C 240.02228 1049.5729 249.17953 1022.0957 247.87109 989.38477 C 247.87109 980.87991 247.87272 981.53259 261.61133 976.29883 C 270.11619 973.68196 273.38729 973.02914 311.33203 971.7207 C 329.65018 970.73937 339.79034 970.24805 346.49609 970.24805 z M 3482.252 1019.2422 C 3487.5266 1019.2729 3489.857 1020.133 3494.7637 1022.0957 C 3536.6338 1037.797 3547.7564 1071.8154 3535.3262 1112.377 C 3533.3636 1118.265 3528.7847 1128.7333 3524.8594 1135.9297 C 3512.4293 1151.631 3507.1944 1209.8552 3498.6895 1241.2578 C 3486.9136 1275.2772 3476.4455 1292.2886 3444.3887 1305.373 C 3426.7248 1312.5694 3413.6402 1311.9151 3410.3691 1303.4102 C 3408.4064 1299.4849 3409.0615 1296.867 3416.9121 1279.2031 C 3441.1182 1223.5945 3439.1559 1170.6035 3419.5293 1104.5273 C 3407.7533 1065.2741 3431.9602 1018.8243 3475.793 1019.4785 C 3478.4098 1019.315 3480.4937 1019.232 3482.252 1019.2422 z "
       xlink:href="#text2"
       id="path4"
       d="m 3147.0469,859.19531 c -9.6498,0 -20.2817,1.96141 -32.3848,5.88672 -17.0097,5.23376 -43.8322,10.46695 -61.4961,11.77539 -22.8977,1.30843 -35.9822,5.88819 -50.375,18.31836 -8.5049,7.19642 -11.776,7.85179 -34.0195,9.81445 -20.935,1.30844 -28.7861,3.27031 -37.291,9.8125 -8.5048,6.5422 -13.0845,13.73959 -17.0098,24.86133 -5.888,16.35549 -4.5787,26.16895 6.543,51.0293 5.888,12.43014 6.5427,15.04534 5.2343,35.32614 -1.3085,13.0844 -1.3101,14.3934 1.961,20.9356 4.5796,9.159 13.0848,18.3188 20.2812,22.2441 13.7386,6.5422 38.5995,2.6158 53.6465,-9.1601 12.4302,-9.1591 17.01,-19.626 18.9727,-44.4864 0.6542,-8.5048 2.6173,-17.66441 3.2715,-20.93551 4.5795,-11.77595 26.1688,-24.20562 49.7207,-28.78516 8.5049,-1.96266 11.7757,-1.96274 15.7011,-0.6543 6.5422,1.96266 6.5421,4.58029 -1.3086,22.89844 -7.8506,18.97243 -7.8509,28.13123 -1.9629,47.75783 5.888,16.3555 7.1969,30.7472 3.9258,41.2148 -4.5796,15.047 -18.3198,33.3659 -30.0957,38.5996 -5.2338,2.6169 -7.8496,2.6171 -23.5508,1.9629 -44.487,-0.6542 -44.4872,-1.3081 -52.3378,3.2715 -9.8133,4.5795 -22.897,17.6632 -26.8223,26.8223 -3.2711,8.5048 -3.2711,18.9734 0,25.5156 3.9253,7.8507 11.7754,12.4301 27.4766,15.7012 17.664,3.2711 46.4485,2.6166 74.58,-1.9629 20.935,-3.9254 32.0572,-4.5799 36.6368,-2.6172 1.9625,1.3084 2.6171,3.2703 2.6171,9.8125 0,9.159 -3.2705,19.6267 -11.1211,34.0195 -6.5422,13.0844 -9.1601,24.8602 -8.5058,32.0567 0.6542,2.6168 2.6174,9.8131 4.5801,15.7011 3.2711,10.4675 3.2713,11.1217 1.3086,15.7012 -5.8879,11.7759 -34.6742,21.5894 -54.3008,17.6641 -14.3928,-2.6169 -18.3171,-7.8506 -24.2051,-32.711 -5.2338,-23.5519 -8.5048,-30.747 -15.7012,-38.5976 -10.4675,-9.8133 -21.59,-12.4311 -39.9082,-7.1973 -17.0097,3.9253 -36.6359,14.3938 -46.4492,24.8613 -16.3555,15.0471 -26.1682,41.8686 -27.4766,70 -0.6542,15.0471 -0.6558,16.3564 2.6153,23.5528 5.2337,11.1217 14.3931,17.0103 35.3281,22.2441 20.2808,5.888 31.4024,6.5409 64.7676,5.8867 l 30.748,-1.3086 3.2715,3.2715 c 1.3084,1.9627 4.5804,5.8891 7.1973,9.1602 4.5795,7.1964 13.0832,12.4301 22.8965,15.0469 8.5048,1.9627 20.9366,1.9627 47.1054,0.6543 35.9821,-2.6169 44.4852,-5.8893 68.0371,-26.8243 21.5893,-18.3182 27.4789,-24.8603 30.75,-32.7109 4.5795,-9.1591 5.8864,-24.8592 2.6153,-39.252 -3.9253,-18.9724 -2.6155,-24.8606 11.7773,-52.9921 12.4302,-25.5145 14.3925,-31.4023 13.7383,-47.1036 -0.6542,-11.1217 -1.3091,-13.0851 -5.8887,-22.8984 -3.2711,-7.1964 -7.1961,-13.0848 -13.7383,-18.9727 -9.1591,-9.1591 -15.0465,-12.4297 -29.4394,-13.7382 -4.5795,-0.6542 -7.8516,-1.3087 -7.8516,-1.9629 0.6542,-0.6542 9.1594,-7.1961 18.9727,-14.3926 9.8133,-7.8506 20.2816,-16.3559 23.5527,-19.627 7.1964,-7.1965 12.43,-17.6634 15.0469,-28.7851 6.5422,-27.4772 -2.6164,-51.0302 -28.1309,-75.8906 -13.0844,-12.43018 -14.3945,-14.39167 -14.3945,-22.89652 0,-9.8133 3.9269,-20.28107 13.0859,-35.32812 13.0844,-21.58925 15.0469,-26.16943 15.0469,-38.59961 0,-9.15907 -0.6548,-11.77437 -4.5801,-19.625 -5.2338,-11.12174 -15.7004,-22.24476 -26.1679,-27.47852 -8.1778,-3.92531 -16.8464,-5.88672 -26.4961,-5.88672 z M 381.33203,876.20508 c -17.00971,-0.65422 -22.89693,1.30787 -43.17773,11.77539 -18.97237,9.15907 -24.20663,10.46672 -37.29102,9.8125 -27.47723,-2.61688 -70.00081,-30.09354 -109.9082,-11.77539 -81.12324,51.02913 -90.28292,139.34902 -71.31055,234.21092 9.15907,62.805 10.46728,74.5807 -1.96289,128.8809 -8.50485,30.7483 -9.15828,37.9441 -9.8125,60.1875 0.65422,49.0665 0.65323,113.835 41.21484,139.3496 58.22555,20.2808 101.40564,-87.665 96.17188,-145.8906 2.61688,-45.7953 -37.94468,-126.2651 17.00976,-154.3965 54.95446,-13.7386 42.52397,70.656 63.45899,102.0586 17.66393,34.0194 84.39371,143.9273 110.5625,173.3672 45.79537,38.5989 83.08531,-31.4023 77.85156,-79.8145 -1.30844,-115.1427 -51.68229,-98.7859 -90.28125,-171.4043 -13.73861,-22.2434 1.96138,-40.5616 22.24219,-49.0664 18.31815,-5.2338 53.64772,-11.1229 64.11523,-26.1699 25.51456,-24.8604 51.68318,-122.33841 15.04688,-159.62893 -49.72069,-52.99179 -70.6571,-58.87922 -143.92969,-61.49609 z m 887.41017,2.60547 c -14.1066,-0.644 -28.5818,0.82815 -46.7363,5.24414 -67.3846,23.55191 -31.4019,99.44134 6.5429,164.86331 17.6639,39.2532 -32.7109,106.6381 -32.7109,151.7793 1.3084,88.3196 -81.1234,189.07 14.3926,252.5293 35.9821,17.0097 85.7031,-17.6637 102.0586,-47.7578 8.5048,-16.3555 10.4668,-28.7868 10.4668,-58.2266 4.5795,-32.711 -22.2427,-77.1973 -9.8125,-110.5625 13.0844,-26.1687 63.4594,-34.6748 83.7402,-26.1699 61.4967,34.6736 -105.331,199.5376 52.3359,253.1836 28.1314,6.5422 80.4689,-6.5426 98.7871,-35.9825 5.8879,-10.4675 8.5061,-20.2797 9.8145,-41.2148 2.6169,-48.4122 -40.5626,-53.6468 -57.5723,-105.3301 -15.7013,-43.8327 24.8604,-105.9834 32.711,-147.1992 3.2711,-12.4302 9.8141,-26.8229 23.5527,-49.0664 26.823,-36.6363 26.1682,-117.10582 11.1211,-153.0879 -9.8133,-21.58925 -34.0193,-32.05618 -64.7676,-28.13086 -77.8521,8.50485 -100.7492,69.34621 -77.1972,139.34766 21.5891,83.7402 -9.1586,63.4597 -78.5059,69.3477 -5.2337,2.6169 -22.8987,11.7754 -24.8613,12.4296 -8.5049,-7.1964 -7.1969,-18.9706 -3.9258,-35.3261 9.8133,-35.3278 43.8334,-87.0124 38.5996,-125.61136 0.6542,-45.14115 -22.2443,-88.31976 -73.9277,-83.74023 -4.7431,-0.65422 -9.4033,-1.1037 -14.1055,-1.31836 z m 2144.1523,5.08007 c -13.2786,-0.12266 -25.9131,1.96402 -47.0117,7.36133 -18.3182,4.57953 -21.5882,5.23219 -23.5508,3.26953 -35.3279,-7.85063 -77.8525,43.83449 -69.3476,81.125 1.9626,12.43018 5.2336,20.27901 15.0468,34.67192 29.4399,46.4496 43.1777,106.6384 42.5235,170.7519 7.8506,66.7304 -39.2521,126.9195 -39.9063,189.7246 -1.3084,43.1785 11.1212,54.2998 44.4864,62.1504 37.2906,11.776 54.3003,-0.6553 83.7402,-25.5156 22.2434,-26.1688 49.0659,-25.5133 77.8516,-22.2422 72.6184,-3.9253 82.4318,-136.0786 100.0957,-189.7246 5.2337,-16.3555 14.3929,-32.0562 34.0195,-62.1504 50.3749,-76.5436 44.4879,-163.55401 -40.5606,-207.38672 -31.4025,-13.0844 -65.4224,7.19582 -103.3671,-21.58984 -20.935,-13.73861 -28.787,-17.01008 -60.1895,-19.62696 -4.9066,-0.49066 -9.4039,-0.77747 -13.8301,-0.81836 z m -982.9453,8.11915 c -21.211,0.88805 -35.0112,9.21853 -65.6777,28.02734 -3.2711,0.65422 -22.8968,3.27171 -43.1777,5.23437 -85.7027,9.81329 -80.4695,5.23361 -119.0684,48.41211 -5.888,9.81329 -16.356,35.32791 -20.2813,50.37501 -7.1964,34.0194 0.6544,88.3197 34.0196,115.7969 10.4675,8.5049 10.4689,9.1589 11.7773,15.7011 6.5422,41.8701 56.2626,79.1597 96.8242,91.5899 5.2338,1.3084 16.3544,2.6172 24.2051,3.2715 32.0567,1.9626 79.1603,32.7109 80.4688,66.7304 -2.6169,43.8327 -54.9547,50.3751 -83.7403,17.6641 -20.2808,-15.7013 -39.2525,-71.3103 -60.8418,-85.7031 -18.3181,-13.7386 -47.1035,-22.2437 -63.459,-18.9727 -26.823,7.1965 -52.992,27.4782 -52.3378,57.5723 -1.9627,27.4772 17.6635,64.7662 30.0937,85.7012 2.6169,3.2711 15.0484,16.3569 28.1328,28.7871 26.823,25.5146 28.1312,26.8225 47.1035,29.4394 16.3555,2.6169 30.7483,1.3079 49.0664,-4.5801 33.3652,-13.0843 50.3748,-1.3076 81.1231,7.1973 26.823,4.5795 70.0011,-12.4311 96.1699,-24.8613 26.1688,-13.0844 39.2528,-28.1318 46.4492,-52.9922 2.6169,-8.5048 9.1587,-28.7845 13.084,-39.252 0.6542,-43.8328 0,-68.6935 -35.3262,-102.7129 -13.0844,-13.0844 -17.6642,-15.0468 -35.3281,-15.0468 -22.2435,0 -61.4962,9.8138 -79.1601,3.9258 -22.8977,-5.8879 -49.7225,-19.6266 -64.1153,-33.3653 -26.823,-20.935 -34.0192,-92.8988 -15.7011,-129.5351 11.776,-24.2062 35.9828,-45.14113 56.2636,-49.06644 24.2061,-3.92532 58.2262,-1.96417 70.6563,20.27934 17.0097,34.0194 -53.6472,100.751 -9.8145,143.2753 17.0097,16.3555 47.7584,24.2064 68.6934,18.3184 0.6542,-0.6542 1.9631,-6.5437 3.9258,-12.4316 12.4302,-56.2629 43.178,-56.2623 62.1504,-93.5528 6.5422,-27.4773 11.1211,-79.16026 -21.5899,-96.82419 -37.2905,-26.82301 9.8138,-59.53475 -79.1601,-72.61914 -23.3066,-4.17065 -38.7012,-6.31604 -51.4278,-5.7832 z m -1816.86912,0.87695 c -6.16398,-0.24533 -16.836,5.39807 -25.66797,14.7207 -23.5519,22.24346 -26.82198,66.0758 -7.84961,95.51558 20.28081,34.6737 24.85937,52.3369 24.85938,93.5528 3.2711,45.1411 -30.7468,117.1056 -36.63477,168.1347 -9.15908,52.3376 -4.58095,64.1141 4.57812,104.0215 3.2711,17.0097 5.23492,22.8973 9.81446,29.4395 17.00971,19.6266 54.95441,51.684 82.43164,38.5996 9.15907,-4.5795 21.5894,-15.7027 51.02929,-45.1426 29.43989,-29.4399 35.98101,-37.9449 40.56055,-51.0293 9.15908,-42.5243 -1.962,-66.0744 -27.47656,-117.7578 -18.31815,-36.6363 -21.58992,-45.7968 -22.24414,-62.1523 -0.65422,-15.0471 1.96233,-25.5136 13.73828,-56.9161 15.04705,-40.5616 34.02097,-127.57359 13.08594,-155.70503 -17.0097,-33.3652 -48.41292,-60.84267 -88.32031,-51.68359 -13.73861,1.96266 -26.16814,1.9625 -27.47657,-1.3086 -0.81777,-1.47199 -2.37307,-2.20728 -4.42773,-2.28906 z m 1034.97462,0 c -6.164,-0.24533 -16.836,5.39807 -25.668,14.7207 -23.5519,22.24346 -26.822,66.0758 -7.8496,95.51558 20.2808,34.6737 24.8594,52.3369 24.8594,93.5528 3.2711,45.1411 -30.7468,117.1056 -36.6348,168.1347 -9.1591,52.3376 -4.581,64.1141 4.5781,104.0215 3.2711,17.0097 5.235,22.8973 9.8145,29.4395 17.0098,19.6266 54.9544,51.684 82.4316,38.5996 9.1591,-4.5795 21.5895,-15.7027 51.0293,-45.1426 29.4399,-29.4399 35.981,-37.9449 40.5606,-51.0293 9.159,-42.5243 -1.962,-66.0744 -27.4766,-117.7578 -18.3181,-36.6363 -21.5899,-45.7968 -22.2441,-62.1523 -0.6542,-15.0471 1.9623,-25.5136 13.7383,-56.9161 15.047,-40.5616 34.0209,-127.57359 13.0859,-155.70503 -17.0097,-33.3652 -48.4129,-60.84267 -88.3203,-51.68359 -13.7386,1.96266 -26.1682,1.9625 -27.4766,-1.3086 -0.8178,-1.47199 -2.3731,-2.20728 -4.4277,-2.28906 z m -756.44923,2.99609 c -3.94576,0.19422 -7.33965,0.60164 -9.79297,1.25586 -100.09559,30.74832 -137.38717,176.63953 -91.5918,265.61333 24.20613,55.6087 28.13259,88.9751 26.16992,159.6308 -0.65422,15.7013 -0.002,17.663 2.61524,25.5137 21.58925,59.534 60.84336,79.1603 123.64844,97.4785 35.98207,5.888 73.9259,-10.4668 107.9453,-26.8223 48.4122,-26.823 90.2828,-75.2352 103.3672,-132.1523 12.4302,-43.1785 2.6164,-62.8055 -20.2813,-87.0117 -15.0471,-15.7012 -63.4575,-17.6647 -85.0468,-5.8887 -62.15086,29.4398 -7.8519,105.3301 -43.834,138.6953 -13.08438,10.4675 -30.09327,9.1589 -42.52345,-1.9629 -13.73861,-3.9253 -13.08446,-51.6838 -17.00977,-70.0019 -4.57954,-17.664 -17.01082,-29.4387 -42.52539,-39.252 -7.19641,-1.3085 -29.43991,-24.2059 -33.36523,-30.748 -3.92532,-7.8507 -5.23227,-21.5894 -3.92383,-34.0196 6.5422,-52.9918 21.5876,-124.9567 68.69141,-155.705 24.86035,-18.97244 70.65596,-13.73804 68.03906,21.5898 0,11.1217 -1.9615,17.0098 -7.19531,17.0098 -29.43988,3.9253 -57.57142,59.5325 -50.375,87.0097 2.61687,11.776 5.88787,17.6653 15.70117,28.1328 58.22554,56.9171 119.72174,-3.2716 128.22654,-71.3105 2.6169,-43.8327 37.945,-63.4586 35.3281,-92.89844 3.9253,-31.40254 -57.5706,-72.61812 -77.1972,-80.46875 -22.2435,-6.5422 -58.2253,-16.35656 -80.46877,-9.16015 -14.39283,2.61688 -17.0099,2.61672 -34.67383,-1.3086 -11.28528,-2.45332 -28.09044,-3.80141 -39.92773,-3.21875 z m 992.78713,6.76563 c -5.5507,-0.0307 -11.2747,1.03351 -17.3262,3.65039 -5.888,2.61688 -12.4299,4.57812 -13.7383,4.57812 -30.7483,17.00971 -32.7116,62.15086 -22.2441,99.44145 7.8507,23.5519 20.2809,50.3761 18.3183,76.5449 0,35.3278 -3.2708,54.3003 -15.0468,83.7402 -15.7013,38.5989 -22.8992,81.7779 -11.7774,119.0684 21.5892,58.2256 -52.9919,129.5347 31.4024,158.9746 22.8977,2.6169 39.2542,-9.1602 74.582,-9.1602 65.422,-6.5422 86.3572,13.0848 150.4707,3.2715 29.4399,-3.2711 35.9821,-6.5412 49.7207,-24.2051 22.8977,-30.7483 27.4767,-58.227 11.7754,-94.8632 -7.8506,-21.5893 -17.0098,-30.0941 -34.0195,-32.711 -36.6363,-5.2338 -57.57,21.5896 -71.3086,52.9922 -56.9171,-23.5519 -82.4331,22.8988 -111.2188,9.1602 -11.1217,-5.2337 -17.0101,-10.4676 -20.2812,-17.0098 -3.9253,-5.2337 -3.2693,-36.6375 -0.6524,-42.5254 18.9723,-47.7581 56.9165,-49.0666 110.5625,-34.6738 28.7857,7.8506 68.6936,15.7026 87.666,-5.8867 15.7013,-17.6639 30.7472,-55.6085 23.5508,-81.1231 -8.5048,-34.6736 -46.4503,-54.9543 -88.3203,-48.4121 -14.3929,1.9626 -20.2798,5.2333 -58.2246,28.7852 -52.9918,26.823 -77.1989,-7.8502 -57.5723,-62.1504 3.9253,-13.0844 7.1978,-18.9732 11.7774,-22.8985 13.7386,-8.5049 57.571,-15.7014 80.4687,-1.3086 24.8603,13.0844 85.7016,17.6634 105.3282,-5.2343 13.7386,-13.7386 22.2441,-30.0935 22.2441,-44.4864 3.9253,-13.0844 -21.5888,-34.01879 -28.7852,-44.4863 -1.9626,-2.61688 -1.9629,-34.02053 -1.9629,-42.52539 -24.2062,-18.97237 -50.3749,-17.66337 -83.0859,-11.77539 -26.823,5.88798 -60.1874,4.57985 -92.8984,2.61719 -17.6639,-7.35998 -32.7524,-17.29668 -49.4043,-17.38867 z M 346.49609,970.24805 c 6.70575,0 9.97711,0.49132 14.55664,1.47265 28.78566,5.88797 49.71937,24.20594 54.95313,48.4121 4.57953,19.6265 6.5e-4,35.9826 -11.12109,37.9453 -2.61687,0 -9.15937,-0.6545 -18.97266,-2.6172 -15.04705,-3.9253 -43.17921,-6.5422 -55.60938,0 -11.77595,5.888 -43.83241,37.2908 -47.10351,35.3282 -16.35549,5.2337 -47.75648,-1.3088 -52.99024,-18.9727 9.8133,-22.2435 18.97055,-49.7207 17.66211,-82.43163 0,-8.50486 0.002,-7.85218 13.74024,-13.08594 8.50486,-2.61687 11.77596,-3.26969 49.7207,-4.57813 18.31815,-0.98133 28.45831,-1.47265 35.16406,-1.47265 z M 3482.252,1019.2422 c 5.2746,0.031 7.605,0.8908 12.5117,2.8535 41.8701,15.7013 52.9927,49.7197 40.5625,90.2813 -1.9626,5.888 -6.5415,16.3563 -10.4668,23.5527 -12.4301,15.7013 -17.665,73.9255 -26.1699,105.3281 -11.7759,34.0194 -22.244,51.0308 -54.3008,64.1152 -17.6639,7.1964 -30.7485,6.5421 -34.0196,-1.9628 -1.9627,-3.9253 -1.3076,-6.5432 6.543,-24.2071 24.2061,-55.6086 22.2438,-108.5996 2.6172,-174.6758 -11.776,-39.2532 12.4309,-85.703 56.2637,-85.0488 2.6168,-0.1635 4.7007,-0.2465 6.459,-0.2363 z"
       inkscape:label="path4"
       transform="translate(-28.014161,35.017701)"
       inkscape:href="#text2" /><path
       style="font-size:400px;font-family:'LEQUA HYPER';-inkscape-font-specification:'LEQUA HYPER, Normal';text-align:center;text-anchor:middle;white-space:pre;shape-padding:50.3001;display:none;fill:#8875b5;stroke-width:1.63555"
       d="M 525.26107,937.70079 C 475.54038,884.709 454.60535,878.82102 381.33276,876.20415 c -17.00971,-0.65422 -22.89769,1.30843 -43.17849,11.77595 -18.97237,9.15907 -24.20613,10.46751 -37.29052,9.81329 -27.47723,-2.61688 -70.0015,-30.0941 -109.90889,-11.77595 -81.12324,51.02913 -90.28231,139.34876 -71.30994,234.21066 9.15907,62.805 10.46751,74.581 -1.96266,128.8812 -8.50485,30.7483 -9.15907,37.9448 -9.81329,60.1882 0.65422,49.0665 0.65422,113.8342 41.21583,139.3488 58.22555,20.2808 101.40404,-87.6654 96.17028,-145.891 2.61688,-45.7953 -37.94473,-126.2644 17.00971,-154.3958 54.95445,-13.7386 42.52428,70.6557 63.4593,102.0583 17.66393,34.0194 84.39433,143.9283 110.56312,173.3682 45.79537,38.5989 83.08588,-31.4026 77.85213,-79.8148 -1.30844,-115.1427 -51.68335,-98.7872 -90.28231,-171.4056 -13.73861,-22.2434 1.96266,-40.5616 22.24347,-49.0664 18.31815,-5.2338 53.64601,-11.1218 64.11352,-26.1688 25.51456,-24.8604 51.68335,-122.33909 15.04705,-159.62961 z M 404.88466,1058.0772 c -2.61687,0 -9.15907,-0.6542 -18.97236,-2.6169 -15.04705,-3.9253 -43.1785,-6.5422 -55.60867,0 -11.77595,5.888 -43.83271,37.2905 -47.10381,35.3279 -16.35549,5.2337 -47.75803,-1.3085 -52.99179,-18.9724 9.8133,-22.2435 18.97237,-49.7207 17.66393,-82.43166 0,-8.50486 0,-7.85064 13.73861,-13.0844 8.50486,-2.61687 11.77595,-3.27109 49.72069,-4.57953 36.6363,-1.96266 40.56162,-1.96266 49.72069,0 28.78566,5.88797 49.72069,24.20612 54.95445,48.41229 4.57953,19.6265 0,35.982 -11.12174,37.9447 z m 162.90167,206.7334 c -9.15908,52.3376 -4.57954,64.1135 4.57953,104.0209 3.2711,17.0097 5.23376,22.8977 9.8133,29.4399 17.00971,19.6266 54.95444,51.6833 82.43167,38.5989 9.15907,-4.5795 21.58924,-15.7012 51.02913,-45.1411 29.43988,-29.4399 35.98207,-37.9447 40.56161,-51.0291 9.15908,-42.5243 -1.96266,-66.0762 -27.47722,-117.7596 -18.31815,-36.6363 -21.58925,-45.7953 -22.24347,-62.1508 -0.65422,-15.0471 1.96266,-25.5146 13.73861,-56.9171 15.04705,-40.5616 34.01942,-127.57286 13.08439,-155.7043 -17.0097,-33.3652 -48.41225,-60.84242 -88.31964,-51.68335 -13.73861,1.96266 -26.16879,1.96266 -27.47722,-1.30844 -3.2711,-5.88797 -18.31815,0 -30.09411,12.43018 -23.5519,22.24346 -26.823,66.07618 -7.85063,95.51601 20.28081,34.6737 24.86034,52.3376 24.86034,93.5535 3.2711,45.1411 -30.74832,117.1053 -36.63629,168.1344 z m 222.43466,-102.0583 c 24.20613,55.6087 28.13144,88.9739 26.16878,159.6296 -0.65422,15.7013 0,17.6639 2.61688,25.5146 21.58925,59.534 60.84243,79.1605 123.64751,97.4787 35.98207,5.888 73.92684,-10.4675 107.94624,-26.823 48.4122,-26.823 90.2823,-75.2353 103.3667,-132.1524 12.4302,-43.1785 2.6169,-62.805 -20.2808,-87.0112 -15.0471,-15.7012 -63.4593,-17.6639 -85.0486,-5.8879 -62.15083,29.4398 -7.8506,105.3293 -43.8327,138.6945 -13.08437,10.4675 -30.09408,9.1591 -42.52426,-1.9627 -13.73861,-3.9253 -13.08439,-51.6833 -17.0097,-70.0014 -4.57954,-17.664 -17.00971,-29.4399 -42.52428,-39.2532 -7.19641,-1.3085 -29.43988,-24.2062 -33.3652,-30.7483 -3.92532,-7.8507 -5.23376,-21.5893 -3.92532,-34.0195 6.5422,-52.9918 21.58925,-124.9559 68.69306,-155.7042 24.86035,-18.9724 70.6557,-13.73864 68.0388,21.5892 0,11.1217 -1.9626,17.0097 -7.19638,17.0097 -29.43988,3.9253 -57.57132,59.534 -50.3749,87.0112 2.61687,11.776 5.88797,17.664 15.70127,28.1315 58.22551,56.9171 119.72221,-3.2711 128.22701,-71.31 2.6169,-43.8327 37.9448,-63.4593 35.3279,-92.89914 3.9253,-31.40254 -57.5713,-72.61838 -77.1979,-80.46901 -22.2435,-6.5422 -58.22557,-16.35549 -80.46904,-9.15908 -14.39283,2.61688 -17.00971,2.61688 -34.67364,-1.30844 -15.04705,-3.2711 -39.90739,-4.57954 -49.72069,-1.96266 -100.09559,30.74832 -137.38611,176.63933 -91.59074,265.61313 z m 438.32731,-113.8342 c 17.6639,39.2532 -32.711,106.6378 -32.711,151.779 1.3084,88.3196 -81.1232,189.0694 14.3928,252.5287 35.9821,17.0097 85.7028,-17.6639 102.0583,-47.758 8.5048,-16.3555 10.4675,-28.7857 10.4675,-58.2255 4.5795,-32.711 -22.2435,-77.198 -9.8133,-110.5632 13.0844,-26.1687 63.4593,-34.6736 83.7401,-26.1687 61.4967,34.6736 -105.3293,199.5369 52.3376,253.1829 28.1314,6.5422 80.469,-6.5421 98.7872,-35.982 5.8879,-10.4675 8.5048,-20.2808 9.8132,-41.2159 2.6169,-48.4122 -40.5616,-53.646 -57.5713,-105.3293 -15.7013,-43.8327 24.8604,-105.9836 32.711,-147.1994 3.2711,-12.4302 9.8133,-26.823 23.5519,-49.0665 26.823,-36.6363 26.1688,-117.10531 11.1217,-153.08739 -9.8133,-21.58925 -34.0194,-32.05676 -64.7677,-28.13144 -77.8521,8.50485 -100.7498,69.34728 -77.1979,139.34873 21.5892,83.7402 -9.1591,63.4593 -78.5064,69.3473 -5.2337,2.6169 -22.8977,11.776 -24.8603,12.4302 -8.5049,-7.1964 -7.1964,-18.9724 -3.9253,-35.3279 9.8133,-35.3278 43.8327,-87.0112 38.5989,-125.61013 0.6542,-45.14115 -22.2434,-88.31964 -73.9268,-83.74011 -18.9724,-2.61688 -36.6363,-1.96266 -60.8424,3.92532 -67.3846,23.55191 -31.4026,99.44138 6.5422,164.86332 z m 374.2126,215.8925 c -9.1591,52.3376 -4.5795,64.1135 4.5796,104.0209 3.2711,17.0097 5.2337,22.8977 9.8132,29.4399 17.0098,19.6266 54.9545,51.6833 82.4317,38.5989 9.1591,-4.5795 21.5893,-15.7012 51.0291,-45.1411 29.4399,-29.4399 35.9821,-37.9447 40.5617,-51.0291 9.159,-42.5243 -1.9627,-66.0762 -27.4773,-117.7596 -18.3181,-36.6363 -21.5892,-45.7953 -22.2434,-62.1508 -0.6542,-15.0471 1.9626,-25.5146 13.7386,-56.9171 15.047,-40.5616 34.0194,-127.57286 13.0844,-155.7043 -17.0097,-33.3652 -48.4123,-60.84242 -88.3197,-51.68335 -13.7386,1.96266 -26.1688,1.96266 -27.4772,-1.30844 -3.2711,-5.88797 -18.3181,0 -30.0941,12.43018 -23.5519,22.24346 -26.823,66.07618 -7.8506,95.51601 20.2808,34.6737 24.8603,52.3376 24.8603,93.5535 3.2711,45.1411 -30.7483,117.1053 -36.6363,168.1344 z m 503.7493,26.1688 c -36.6363,-5.2338 -57.5714,21.5892 -71.31,52.9918 -56.9171,-23.5519 -82.4316,22.8976 -111.2173,9.159 -11.1217,-5.2337 -17.0097,-10.4675 -20.2808,-17.0097 -3.9253,-5.2337 -3.2711,-36.6363 -0.6542,-42.5242 18.9723,-47.7581 56.9171,-49.0665 110.5631,-34.6737 28.7857,7.8506 68.693,15.7013 87.6654,-5.888 15.7013,-17.6639 30.7483,-55.6086 23.5519,-81.1232 -8.5048,-34.6736 -46.4496,-54.9544 -88.3196,-48.4122 -14.3929,1.9626 -20.2808,5.2337 -58.2256,28.7856 -52.9918,26.823 -77.1979,-7.8506 -57.5713,-62.1508 3.9253,-13.0844 7.1964,-18.9724 11.776,-22.8977 13.7386,-8.5049 57.5713,-15.7013 80.469,-1.3085 24.8603,13.0844 85.7027,17.664 105.3293,-5.2337 13.7386,-13.7386 22.2435,-30.0941 22.2435,-44.487 3.9253,-13.0844 -21.5893,-34.01938 -28.7857,-44.48689 -1.9626,-2.61688 -1.9626,-34.01942 -1.9626,-42.52428 -24.2062,-18.97237 -50.3749,-17.66393 -83.0859,-11.77595 -26.823,5.88798 -60.1882,4.57954 -92.8992,2.61688 -23.5519,-9.8133 -42.5243,-24.20613 -66.7304,-13.73861 -5.888,2.61688 -12.4302,4.57953 -13.7386,4.57953 -30.7483,17.00971 -32.711,62.15087 -22.2435,99.44142 7.8507,23.5519 20.2808,50.3749 18.3182,76.5437 0,35.3278 -3.2711,54.3002 -15.0471,83.7401 -15.7013,38.5989 -22.8977,81.7774 -11.7759,119.0679 21.5892,58.2256 -52.9918,129.5355 31.4025,158.9754 22.8977,2.6169 39.2532,-9.1591 74.581,-9.1591 65.422,-6.5422 86.357,13.0844 150.4705,3.2711 29.4399,-3.2711 35.9821,-6.5422 49.7207,-24.2061 22.8977,-30.7483 27.4773,-58.2256 11.776,-94.8618 -7.8506,-21.5893 -17.0097,-30.0941 -34.0194,-32.711 z m 454.0277,-320.56763 c -37.2905,-26.82301 9.8133,-59.53399 -79.1606,-72.61838 -62.1508,-11.12173 -68.0388,-7.85063 -117.1053,22.24347 -3.2711,0.65422 -22.8976,3.2711 -43.1785,5.23376 -85.7027,9.81329 -80.469,5.23375 -119.0679,48.41225 -5.888,9.81329 -16.3555,35.32783 -20.2808,50.37493 -7.1964,34.0194 0.6542,88.3196 34.0194,115.7968 10.4675,8.5049 10.4675,9.1591 11.7759,15.7013 6.5422,41.8701 56.2629,79.1606 96.8245,91.5908 5.2338,1.3084 16.3555,2.6168 24.2062,3.2711 32.0567,1.9626 79.1605,32.7109 80.469,66.7304 -2.6169,43.8327 -54.9545,50.3749 -83.7401,17.6639 -20.2808,-15.7013 -39.2532,-71.31 -60.8425,-85.7028 -18.3181,-13.7386 -47.1038,-22.2434 -63.4593,-18.9724 -26.823,7.1965 -52.9917,27.4773 -52.3375,57.5714 -1.9627,27.4772 17.6639,64.7677 30.0941,85.7027 2.6169,3.2711 15.047,16.3555 28.1314,28.7857 26.823,25.5146 28.1315,26.823 47.1038,29.4399 16.3555,2.6169 30.7484,1.3084 49.0665,-4.5796 33.3652,-13.0843 50.3749,-1.3084 81.1232,7.1965 26.823,4.5795 70.0015,-12.4302 96.1703,-24.8604 26.1688,-13.0844 39.2532,-28.1314 46.4496,-52.9918 2.6169,-8.5048 9.1591,-28.7856 13.0844,-39.2531 0.6542,-43.8328 0,-68.6931 -35.3279,-102.7125 -13.0844,-13.0844 -17.6639,-15.0471 -35.3278,-15.0471 -22.2435,0 -61.4967,9.8133 -79.1606,3.9253 -22.8977,-5.8879 -49.7207,-19.6265 -64.1135,-33.3652 -26.823,-20.935 -34.0194,-92.8991 -15.7013,-129.5354 11.776,-24.2062 35.9821,-45.14119 56.2629,-49.0665 24.2061,-3.92532 58.2256,-1.96266 70.6557,20.2808 17.0097,34.0194 -53.646,100.7498 -9.8133,143.2741 17.0097,16.3555 47.7581,24.2061 68.6931,18.3181 0.6542,-0.6542 1.9626,-6.5422 3.9253,-12.4301 12.4302,-56.2629 43.1785,-56.2629 62.1509,-93.5534 6.5422,-27.4773 11.1217,-79.1606 -21.5893,-96.82453 z m 419.3553,406.92463 30.7483,-1.3085 3.2711,3.2711 c 1.3084,1.9627 4.5795,5.888 7.1964,9.1591 4.5795,7.1964 13.0844,12.4302 22.8977,15.047 8.5048,1.9627 20.935,1.9627 47.1038,0.6543 35.9821,-2.6169 44.4869,-5.888 68.0388,-26.823 21.5893,-18.3182 27.4773,-24.8604 30.7484,-32.711 4.5795,-9.1591 5.8879,-24.8604 2.6168,-39.2532 -3.9253,-18.9724 -2.6168,-24.8603 11.776,-52.9918 12.4302,-25.5145 14.3928,-31.4025 13.7386,-47.1038 -0.6542,-11.1217 -1.3084,-13.0844 -5.888,-22.8977 -3.2711,-7.1964 -7.1964,-13.0844 -13.7386,-18.9723 -9.1591,-9.1591 -15.047,-12.4302 -29.4399,-13.7387 -4.5795,-0.6542 -7.8506,-1.3084 -7.8506,-1.9626 0.6542,-0.6542 9.1591,-7.1964 18.9724,-14.3929 9.8133,-7.8506 20.2808,-16.3554 23.5519,-19.6265 7.1964,-7.1965 12.4301,-17.664 15.047,-28.7857 6.5422,-27.4772 -2.6169,-51.0291 -28.1314,-75.8895 -13.0844,-12.43015 -14.3928,-14.39281 -14.3928,-22.89766 0,-9.8133 3.9253,-20.28081 13.0843,-35.32786 13.0844,-21.58925 15.0471,-26.16878 15.0471,-38.59896 0,-9.15907 -0.6542,-11.77595 -4.5795,-19.62658 -5.2338,-11.12174 -15.7013,-22.24347 -26.1688,-27.47723 -16.3555,-7.85063 -34.6737,-7.85063 -58.8798,0 -17.0097,5.23376 -43.8327,10.46752 -61.4966,11.77596 -22.8977,1.30843 -35.9821,5.88797 -50.3749,18.31814 -8.5049,7.19642 -11.776,7.85064 -34.0195,9.8133 -20.935,1.30844 -28.7856,3.2711 -37.2905,9.81329 -8.5048,6.5422 -13.0844,13.73861 -17.0097,24.86035 -5.888,16.35549 -4.5795,26.16878 6.5422,51.02913 5.888,12.43012 6.5422,15.04702 5.2338,35.32782 -1.3085,13.0844 -1.3085,14.3929 1.9626,20.9351 4.5796,9.159 13.0844,18.3181 20.2808,22.2434 13.7386,6.5422 38.599,2.6169 53.646,-9.159 12.4302,-9.1591 17.0097,-19.6266 18.9724,-44.487 0.6542,-8.5048 2.6169,-17.66391 3.2711,-20.93501 4.5795,-11.77595 26.1688,-24.20612 49.7207,-28.78566 8.5049,-1.96266 11.7759,-1.96266 15.7013,-0.65422 6.5422,1.96266 6.5422,4.57954 -1.3085,22.89769 -7.8506,18.9724 -7.8506,28.1314 -1.9626,47.758 5.8879,16.3555 7.1964,30.7483 3.9253,41.2159 -4.5796,15.047 -18.3182,33.3652 -30.0941,38.5989 -5.2338,2.6169 -7.8507,2.6169 -23.5519,1.9627 -44.487,-0.6542 -44.487,-1.3085 -52.3376,3.2711 -9.8133,4.5795 -22.8977,17.6639 -26.823,26.823 -3.2711,8.5048 -3.2711,18.9723 0,25.5145 3.9253,7.8507 11.776,12.4302 27.4772,15.7013 17.664,3.2711 46.4496,2.6169 74.5811,-1.9626 20.935,-3.9254 32.0567,-4.5796 36.6363,-2.6169 1.9626,1.3084 2.6168,3.2711 2.6168,9.8133 0,9.159 -3.2711,19.6266 -11.1217,34.0194 -6.5422,13.0844 -9.1591,24.8603 -8.5048,32.0568 0.6542,2.6168 2.6168,9.8132 4.5795,15.7012 3.2711,10.4675 3.2711,11.1218 1.3084,15.7013 -5.8879,11.7759 -34.6736,21.5892 -54.3002,17.6639 -14.3928,-2.6169 -18.3181,-7.8506 -24.2061,-32.711 -5.2338,-23.5519 -8.5049,-30.7483 -15.7013,-38.5989 -10.4675,-9.8133 -21.5892,-12.4302 -39.9074,-7.1964 -17.0097,3.9253 -36.6363,14.3928 -46.4496,24.8603 -16.3555,15.0471 -26.1688,41.8701 -27.4772,70.0015 -0.6542,15.0471 -0.6542,16.3555 2.6169,23.5519 5.2337,11.1217 14.3928,17.0097 35.3278,22.2435 20.2808,5.888 31.4026,6.5422 64.7678,5.888 z m 610.3872,-451.41156 c -31.4026,-13.0844 -65.422,7.19641 -103.3667,-21.58925 -20.935,-13.73861 -28.7857,-17.00971 -60.1882,-19.62659 -19.6266,-1.96266 -32.711,-0.65422 -60.8424,6.5422 -18.3182,4.57953 -21.5893,5.23375 -23.5519,3.27109 -35.3279,-7.85063 -77.8522,43.83272 -69.3473,81.12323 1.9626,12.43018 5.2337,20.28081 15.047,34.67368 29.4399,46.4496 43.1785,106.6378 42.5243,170.7513 7.8506,66.7304 -39.2532,126.9186 -39.9074,189.7237 -1.3084,43.1785 11.1217,54.3002 44.4869,62.1508 37.2906,11.776 54.3003,-0.6542 83.7402,-25.5145 22.2434,-26.1688 49.0664,-25.5146 77.8521,-22.2435 72.6184,-3.9253 82.4317,-136.0777 100.0956,-189.7237 5.2337,-16.3555 14.3928,-32.0567 34.0194,-62.1509 50.3749,-76.5436 44.4869,-163.55485 -40.5616,-207.38756 z m -54.9545,186.45256 c -1.9626,5.888 -6.5422,16.3555 -10.4675,23.5519 -12.4301,15.7013 -17.6639,73.9268 -26.1688,105.3294 -11.7759,34.0194 -22.2434,51.0291 -54.3002,64.1135 -17.6639,7.1964 -30.7483,6.5422 -34.0194,-1.9627 -1.9627,-3.9253 -1.3084,-6.5422 6.5422,-24.2061 24.2061,-55.6086 22.2435,-108.6004 2.6169,-174.6766 -11.776,-39.2532 12.4301,-85.7028 56.2629,-85.0486 10.4675,-0.6542 12.4301,0 18.9723,2.6169 41.8701,15.7013 52.9918,49.7207 40.5616,90.2823 z"
       id="text2"
       inkscape:label="Purple"
       inkscape:transform-center-x="-28.014163"
       inkscape:transform-center-y="-266.13455"
       aria-label="Richies 3D" /></g></svg>
